ISO-10303-21;
HEADER;
/* Generated by software containing ST-Developer
 * from STEP Tools, Inc. (www.steptools.com) 
 */

FILE_DESCRIPTION(
/* description */ (''),
/* implementation_level */ '2;1');

FILE_NAME(
/* name */ '',
/* time_stamp */ '2026-02-15T15:19:48+03:00',
/* author */ ('Service'),
/* organization */ (''),
/* preprocessor_version */ 'ST-DEVELOPER v20',
/* originating_system */ 'Autodesk Inventor 2024',
/* authorisation */ '');

FILE_SCHEMA (('AUTOMOTIVE_DESIGN { 1 0 10303 214 3 1 1 }'));
ENDSEC;

DATA;
#10=MECHANICAL_DESIGN_GEOMETRIC_PRESENTATION_REPRESENTATION('',(#13),#826);
#11=SHAPE_REPRESENTATION_RELATIONSHIP('SRR','None',#833,#12);
#12=ADVANCED_BREP_SHAPE_REPRESENTATION('',(#14),#825);
#13=STYLED_ITEM('',(#842),#14);
#14=MANIFOLD_SOLID_BREP('\X2\04220432043504400434043E0435\X0\ \X2\04420435043B043E\X0\1',
#508);
#15=FACE_BOUND('',#71,.T.);
#16=FACE_BOUND('',#73,.T.);
#17=FACE_BOUND('',#89,.T.);
#18=FACE_BOUND('',#96,.T.);
#19=FACE_BOUND('',#97,.T.);
#20=FACE_BOUND('',#99,.T.);
#21=PLANE('',#534);
#22=PLANE('',#535);
#23=PLANE('',#536);
#24=PLANE('',#537);
#25=PLANE('',#538);
#26=PLANE('',#539);
#27=PLANE('',#540);
#28=PLANE('',#541);
#29=PLANE('',#542);
#30=PLANE('',#543);
#31=PLANE('',#544);
#32=PLANE('',#545);
#33=PLANE('',#546);
#34=PLANE('',#547);
#35=PLANE('',#548);
#36=PLANE('',#549);
#37=PLANE('',#550);
#38=PLANE('',#554);
#39=PLANE('',#555);
#40=PLANE('',#556);
#41=PLANE('',#557);
#42=PLANE('',#558);
#43=PLANE('',#559);
#44=FACE_OUTER_BOUND('',#69,.T.);
#45=FACE_OUTER_BOUND('',#70,.T.);
#46=FACE_OUTER_BOUND('',#72,.T.);
#47=FACE_OUTER_BOUND('',#74,.T.);
#48=FACE_OUTER_BOUND('',#75,.T.);
#49=FACE_OUTER_BOUND('',#76,.T.);
#50=FACE_OUTER_BOUND('',#77,.T.);
#51=FACE_OUTER_BOUND('',#78,.T.);
#52=FACE_OUTER_BOUND('',#79,.T.);
#53=FACE_OUTER_BOUND('',#80,.T.);
#54=FACE_OUTER_BOUND('',#81,.T.);
#55=FACE_OUTER_BOUND('',#82,.T.);
#56=FACE_OUTER_BOUND('',#83,.T.);
#57=FACE_OUTER_BOUND('',#84,.T.);
#58=FACE_OUTER_BOUND('',#85,.T.);
#59=FACE_OUTER_BOUND('',#86,.T.);
#60=FACE_OUTER_BOUND('',#87,.T.);
#61=FACE_OUTER_BOUND('',#88,.T.);
#62=FACE_OUTER_BOUND('',#90,.T.);
#63=FACE_OUTER_BOUND('',#91,.T.);
#64=FACE_OUTER_BOUND('',#92,.T.);
#65=FACE_OUTER_BOUND('',#93,.T.);
#66=FACE_OUTER_BOUND('',#94,.T.);
#67=FACE_OUTER_BOUND('',#95,.T.);
#68=FACE_OUTER_BOUND('',#98,.T.);
#69=EDGE_LOOP('',(#345,#346,#347,#348));
#70=EDGE_LOOP('',(#349,#350,#351,#352));
#71=EDGE_LOOP('',(#353));
#72=EDGE_LOOP('',(#354,#355,#356,#357));
#73=EDGE_LOOP('',(#358));
#74=EDGE_LOOP('',(#359,#360,#361,#362));
#75=EDGE_LOOP('',(#363,#364,#365,#366));
#76=EDGE_LOOP('',(#367,#368,#369,#370));
#77=EDGE_LOOP('',(#371,#372,#373,#374));
#78=EDGE_LOOP('',(#375,#376,#377,#378));
#79=EDGE_LOOP('',(#379,#380,#381,#382));
#80=EDGE_LOOP('',(#383,#384,#385,#386));
#81=EDGE_LOOP('',(#387,#388,#389,#390));
#82=EDGE_LOOP('',(#391,#392,#393,#394));
#83=EDGE_LOOP('',(#395,#396,#397,#398));
#84=EDGE_LOOP('',(#399,#400,#401,#402,#403));
#85=EDGE_LOOP('',(#404,#405,#406,#407));
#86=EDGE_LOOP('',(#408,#409,#410,#411));
#87=EDGE_LOOP('',(#412,#413,#414,#415,#416,#417,#418,#419));
#88=EDGE_LOOP('',(#420,#421,#422,#423,#424,#425,#426,#427,#428,#429));
#89=EDGE_LOOP('',(#430,#431,#432,#433,#434));
#90=EDGE_LOOP('',(#435,#436,#437,#438));
#91=EDGE_LOOP('',(#439,#440,#441,#442));
#92=EDGE_LOOP('',(#443,#444,#445,#446));
#93=EDGE_LOOP('',(#447,#448,#449,#450,#451,#452,#453));
#94=EDGE_LOOP('',(#454,#455,#456,#457));
#95=EDGE_LOOP('',(#458,#459,#460,#461,#462,#463,#464,#465,#466,#467,#468));
#96=EDGE_LOOP('',(#469,#470,#471,#472,#473));
#97=EDGE_LOOP('',(#474));
#98=EDGE_LOOP('',(#475,#476,#477,#478,#479));
#99=EDGE_LOOP('',(#480));
#100=LINE('',#689,#164);
#101=LINE('',#694,#165);
#102=LINE('',#696,#166);
#103=LINE('',#698,#167);
#104=LINE('',#699,#168);
#105=LINE('',#703,#169);
#106=LINE('',#705,#170);
#107=LINE('',#707,#171);
#108=LINE('',#708,#172);
#109=LINE('',#711,#173);
#110=LINE('',#713,#174);
#111=LINE('',#714,#175);
#112=LINE('',#717,#176);
#113=LINE('',#719,#177);
#114=LINE('',#720,#178);
#115=LINE('',#723,#179);
#116=LINE('',#725,#180);
#117=LINE('',#726,#181);
#118=LINE('',#729,#182);
#119=LINE('',#731,#183);
#120=LINE('',#732,#184);
#121=LINE('',#735,#185);
#122=LINE('',#737,#186);
#123=LINE('',#738,#187);
#124=LINE('',#741,#188);
#125=LINE('',#743,#189);
#126=LINE('',#744,#190);
#127=LINE('',#747,#191);
#128=LINE('',#749,#192);
#129=LINE('',#750,#193);
#130=LINE('',#753,#194);
#131=LINE('',#755,#195);
#132=LINE('',#756,#196);
#133=LINE('',#758,#197);
#134=LINE('',#759,#198);
#135=LINE('',#763,#199);
#136=LINE('',#765,#200);
#137=LINE('',#767,#201);
#138=LINE('',#768,#202);
#139=LINE('',#771,#203);
#140=LINE('',#773,#204);
#141=LINE('',#775,#205);
#142=LINE('',#776,#206);
#143=LINE('',#779,#207);
#144=LINE('',#781,#208);
#145=LINE('',#782,#209);
#146=LINE('',#785,#210);
#147=LINE('',#786,#211);
#148=LINE('',#789,#212);
#149=LINE('',#791,#213);
#150=LINE('',#792,#214);
#151=LINE('',#793,#215);
#152=LINE('',#795,#216);
#153=LINE('',#800,#217);
#154=LINE('',#805,#218);
#155=LINE('',#807,#219);
#156=LINE('',#809,#220);
#157=LINE('',#810,#221);
#158=LINE('',#812,#222);
#159=LINE('',#813,#223);
#160=LINE('',#816,#224);
#161=LINE('',#817,#225);
#162=LINE('',#819,#226);
#163=LINE('',#820,#227);
#164=VECTOR('',#566,2.1);
#165=VECTOR('',#571,10.);
#166=VECTOR('',#572,10.);
#167=VECTOR('',#573,10.);
#168=VECTOR('',#574,10.);
#169=VECTOR('',#577,10.);
#170=VECTOR('',#578,10.);
#171=VECTOR('',#579,10.);
#172=VECTOR('',#580,10.);
#173=VECTOR('',#583,10.);
#174=VECTOR('',#584,10.);
#175=VECTOR('',#585,10.);
#176=VECTOR('',#588,10.);
#177=VECTOR('',#589,10.);
#178=VECTOR('',#590,10.);
#179=VECTOR('',#593,10.);
#180=VECTOR('',#594,10.);
#181=VECTOR('',#595,10.);
#182=VECTOR('',#598,10.);
#183=VECTOR('',#599,10.);
#184=VECTOR('',#600,10.);
#185=VECTOR('',#603,10.);
#186=VECTOR('',#604,10.);
#187=VECTOR('',#605,10.);
#188=VECTOR('',#608,10.);
#189=VECTOR('',#609,10.);
#190=VECTOR('',#610,10.);
#191=VECTOR('',#613,10.);
#192=VECTOR('',#614,10.);
#193=VECTOR('',#615,10.);
#194=VECTOR('',#618,10.);
#195=VECTOR('',#619,10.);
#196=VECTOR('',#620,10.);
#197=VECTOR('',#623,10.);
#198=VECTOR('',#624,10.);
#199=VECTOR('',#627,10.);
#200=VECTOR('',#628,10.);
#201=VECTOR('',#629,10.);
#202=VECTOR('',#630,10.);
#203=VECTOR('',#633,10.);
#204=VECTOR('',#634,10.);
#205=VECTOR('',#635,10.);
#206=VECTOR('',#636,10.);
#207=VECTOR('',#639,10.);
#208=VECTOR('',#640,10.);
#209=VECTOR('',#641,10.);
#210=VECTOR('',#644,10.);
#211=VECTOR('',#645,10.);
#212=VECTOR('',#648,10.);
#213=VECTOR('',#649,10.);
#214=VECTOR('',#650,10.);
#215=VECTOR('',#651,10.);
#216=VECTOR('',#654,10.);
#217=VECTOR('',#659,2.75);
#218=VECTOR('',#664,10.);
#219=VECTOR('',#665,10.);
#220=VECTOR('',#666,10.);
#221=VECTOR('',#667,10.);
#222=VECTOR('',#670,10.);
#223=VECTOR('',#671,10.);
#224=VECTOR('',#674,10.);
#225=VECTOR('',#675,10.);
#226=VECTOR('',#678,10.);
#227=VECTOR('',#679,10.);
#228=CIRCLE('',#532,2.1);
#229=CIRCLE('',#533,2.1);
#230=CIRCLE('',#552,2.75);
#231=CIRCLE('',#553,2.75);
#232=VERTEX_POINT('',#686);
#233=VERTEX_POINT('',#688);
#234=VERTEX_POINT('',#692);
#235=VERTEX_POINT('',#693);
#236=VERTEX_POINT('',#695);
#237=VERTEX_POINT('',#697);
#238=VERTEX_POINT('',#701);
#239=VERTEX_POINT('',#702);
#240=VERTEX_POINT('',#704);
#241=VERTEX_POINT('',#706);
#242=VERTEX_POINT('',#710);
#243=VERTEX_POINT('',#712);
#244=VERTEX_POINT('',#716);
#245=VERTEX_POINT('',#718);
#246=VERTEX_POINT('',#722);
#247=VERTEX_POINT('',#724);
#248=VERTEX_POINT('',#728);
#249=VERTEX_POINT('',#730);
#250=VERTEX_POINT('',#734);
#251=VERTEX_POINT('',#736);
#252=VERTEX_POINT('',#740);
#253=VERTEX_POINT('',#742);
#254=VERTEX_POINT('',#746);
#255=VERTEX_POINT('',#748);
#256=VERTEX_POINT('',#752);
#257=VERTEX_POINT('',#754);
#258=VERTEX_POINT('',#761);
#259=VERTEX_POINT('',#762);
#260=VERTEX_POINT('',#764);
#261=VERTEX_POINT('',#766);
#262=VERTEX_POINT('',#770);
#263=VERTEX_POINT('',#772);
#264=VERTEX_POINT('',#774);
#265=VERTEX_POINT('',#778);
#266=VERTEX_POINT('',#780);
#267=VERTEX_POINT('',#784);
#268=VERTEX_POINT('',#788);
#269=VERTEX_POINT('',#790);
#270=VERTEX_POINT('',#797);
#271=VERTEX_POINT('',#799);
#272=VERTEX_POINT('',#803);
#273=VERTEX_POINT('',#804);
#274=VERTEX_POINT('',#806);
#275=VERTEX_POINT('',#808);
#276=VERTEX_POINT('',#815);
#277=EDGE_CURVE('',#232,#232,#228,.T.);
#278=EDGE_CURVE('',#232,#233,#100,.T.);
#279=EDGE_CURVE('',#233,#233,#229,.T.);
#280=EDGE_CURVE('',#234,#235,#101,.T.);
#281=EDGE_CURVE('',#235,#236,#102,.T.);
#282=EDGE_CURVE('',#237,#236,#103,.T.);
#283=EDGE_CURVE('',#234,#237,#104,.T.);
#284=EDGE_CURVE('',#238,#239,#105,.T.);
#285=EDGE_CURVE('',#240,#238,#106,.T.);
#286=EDGE_CURVE('',#241,#240,#107,.T.);
#287=EDGE_CURVE('',#241,#239,#108,.T.);
#288=EDGE_CURVE('',#236,#242,#109,.T.);
#289=EDGE_CURVE('',#243,#242,#110,.T.);
#290=EDGE_CURVE('',#237,#243,#111,.T.);
#291=EDGE_CURVE('',#244,#239,#112,.T.);
#292=EDGE_CURVE('',#245,#244,#113,.T.);
#293=EDGE_CURVE('',#245,#238,#114,.T.);
#294=EDGE_CURVE('',#240,#246,#115,.T.);
#295=EDGE_CURVE('',#247,#246,#116,.T.);
#296=EDGE_CURVE('',#241,#247,#117,.T.);
#297=EDGE_CURVE('',#246,#248,#118,.T.);
#298=EDGE_CURVE('',#249,#248,#119,.T.);
#299=EDGE_CURVE('',#247,#249,#120,.T.);
#300=EDGE_CURVE('',#248,#250,#121,.T.);
#301=EDGE_CURVE('',#251,#250,#122,.T.);
#302=EDGE_CURVE('',#249,#251,#123,.T.);
#303=EDGE_CURVE('',#250,#252,#124,.T.);
#304=EDGE_CURVE('',#253,#252,#125,.T.);
#305=EDGE_CURVE('',#251,#253,#126,.T.);
#306=EDGE_CURVE('',#242,#254,#127,.T.);
#307=EDGE_CURVE('',#255,#254,#128,.T.);
#308=EDGE_CURVE('',#243,#255,#129,.T.);
#309=EDGE_CURVE('',#254,#256,#130,.T.);
#310=EDGE_CURVE('',#257,#256,#131,.T.);
#311=EDGE_CURVE('',#255,#257,#132,.T.);
#312=EDGE_CURVE('',#256,#235,#133,.T.);
#313=EDGE_CURVE('',#257,#234,#134,.T.);
#314=EDGE_CURVE('',#258,#259,#135,.T.);
#315=EDGE_CURVE('',#258,#260,#136,.T.);
#316=EDGE_CURVE('',#261,#260,#137,.T.);
#317=EDGE_CURVE('',#259,#261,#138,.T.);
#318=EDGE_CURVE('',#260,#262,#139,.T.);
#319=EDGE_CURVE('',#263,#262,#140,.T.);
#320=EDGE_CURVE('',#264,#263,#141,.T.);
#321=EDGE_CURVE('',#264,#261,#142,.T.);
#322=EDGE_CURVE('',#263,#265,#143,.T.);
#323=EDGE_CURVE('',#266,#265,#144,.T.);
#324=EDGE_CURVE('',#264,#266,#145,.T.);
#325=EDGE_CURVE('',#262,#267,#146,.T.);
#326=EDGE_CURVE('',#265,#267,#147,.T.);
#327=EDGE_CURVE('',#268,#258,#148,.T.);
#328=EDGE_CURVE('',#269,#268,#149,.T.);
#329=EDGE_CURVE('',#253,#269,#150,.T.);
#330=EDGE_CURVE('',#267,#252,#151,.T.);
#331=EDGE_CURVE('',#245,#266,#152,.T.);
#332=EDGE_CURVE('',#270,#270,#230,.T.);
#333=EDGE_CURVE('',#270,#271,#153,.T.);
#334=EDGE_CURVE('',#271,#271,#231,.T.);
#335=EDGE_CURVE('',#272,#273,#154,.T.);
#336=EDGE_CURVE('',#273,#274,#155,.T.);
#337=EDGE_CURVE('',#275,#274,#156,.T.);
#338=EDGE_CURVE('',#272,#275,#157,.T.);
#339=EDGE_CURVE('',#268,#272,#158,.T.);
#340=EDGE_CURVE('',#269,#275,#159,.T.);
#341=EDGE_CURVE('',#276,#244,#160,.T.);
#342=EDGE_CURVE('',#259,#276,#161,.T.);
#343=EDGE_CURVE('',#273,#259,#162,.T.);
#344=EDGE_CURVE('',#274,#276,#163,.T.);
#345=ORIENTED_EDGE('',*,*,#277,.F.);
#346=ORIENTED_EDGE('',*,*,#278,.T.);
#347=ORIENTED_EDGE('',*,*,#279,.F.);
#348=ORIENTED_EDGE('',*,*,#278,.F.);
#349=ORIENTED_EDGE('',*,*,#280,.T.);
#350=ORIENTED_EDGE('',*,*,#281,.T.);
#351=ORIENTED_EDGE('',*,*,#282,.F.);
#352=ORIENTED_EDGE('',*,*,#283,.F.);
#353=ORIENTED_EDGE('',*,*,#279,.T.);
#354=ORIENTED_EDGE('',*,*,#284,.F.);
#355=ORIENTED_EDGE('',*,*,#285,.F.);
#356=ORIENTED_EDGE('',*,*,#286,.F.);
#357=ORIENTED_EDGE('',*,*,#287,.T.);
#358=ORIENTED_EDGE('',*,*,#277,.T.);
#359=ORIENTED_EDGE('',*,*,#282,.T.);
#360=ORIENTED_EDGE('',*,*,#288,.T.);
#361=ORIENTED_EDGE('',*,*,#289,.F.);
#362=ORIENTED_EDGE('',*,*,#290,.F.);
#363=ORIENTED_EDGE('',*,*,#284,.T.);
#364=ORIENTED_EDGE('',*,*,#291,.F.);
#365=ORIENTED_EDGE('',*,*,#292,.F.);
#366=ORIENTED_EDGE('',*,*,#293,.T.);
#367=ORIENTED_EDGE('',*,*,#294,.T.);
#368=ORIENTED_EDGE('',*,*,#295,.F.);
#369=ORIENTED_EDGE('',*,*,#296,.F.);
#370=ORIENTED_EDGE('',*,*,#286,.T.);
#371=ORIENTED_EDGE('',*,*,#297,.T.);
#372=ORIENTED_EDGE('',*,*,#298,.F.);
#373=ORIENTED_EDGE('',*,*,#299,.F.);
#374=ORIENTED_EDGE('',*,*,#295,.T.);
#375=ORIENTED_EDGE('',*,*,#300,.T.);
#376=ORIENTED_EDGE('',*,*,#301,.F.);
#377=ORIENTED_EDGE('',*,*,#302,.F.);
#378=ORIENTED_EDGE('',*,*,#298,.T.);
#379=ORIENTED_EDGE('',*,*,#303,.T.);
#380=ORIENTED_EDGE('',*,*,#304,.F.);
#381=ORIENTED_EDGE('',*,*,#305,.F.);
#382=ORIENTED_EDGE('',*,*,#301,.T.);
#383=ORIENTED_EDGE('',*,*,#306,.T.);
#384=ORIENTED_EDGE('',*,*,#307,.F.);
#385=ORIENTED_EDGE('',*,*,#308,.F.);
#386=ORIENTED_EDGE('',*,*,#289,.T.);
#387=ORIENTED_EDGE('',*,*,#309,.T.);
#388=ORIENTED_EDGE('',*,*,#310,.F.);
#389=ORIENTED_EDGE('',*,*,#311,.F.);
#390=ORIENTED_EDGE('',*,*,#307,.T.);
#391=ORIENTED_EDGE('',*,*,#312,.T.);
#392=ORIENTED_EDGE('',*,*,#280,.F.);
#393=ORIENTED_EDGE('',*,*,#313,.F.);
#394=ORIENTED_EDGE('',*,*,#310,.T.);
#395=ORIENTED_EDGE('',*,*,#314,.F.);
#396=ORIENTED_EDGE('',*,*,#315,.T.);
#397=ORIENTED_EDGE('',*,*,#316,.F.);
#398=ORIENTED_EDGE('',*,*,#317,.F.);
#399=ORIENTED_EDGE('',*,*,#318,.T.);
#400=ORIENTED_EDGE('',*,*,#319,.F.);
#401=ORIENTED_EDGE('',*,*,#320,.F.);
#402=ORIENTED_EDGE('',*,*,#321,.T.);
#403=ORIENTED_EDGE('',*,*,#316,.T.);
#404=ORIENTED_EDGE('',*,*,#320,.T.);
#405=ORIENTED_EDGE('',*,*,#322,.T.);
#406=ORIENTED_EDGE('',*,*,#323,.F.);
#407=ORIENTED_EDGE('',*,*,#324,.F.);
#408=ORIENTED_EDGE('',*,*,#319,.T.);
#409=ORIENTED_EDGE('',*,*,#325,.T.);
#410=ORIENTED_EDGE('',*,*,#326,.F.);
#411=ORIENTED_EDGE('',*,*,#322,.F.);
#412=ORIENTED_EDGE('',*,*,#327,.F.);
#413=ORIENTED_EDGE('',*,*,#328,.F.);
#414=ORIENTED_EDGE('',*,*,#329,.F.);
#415=ORIENTED_EDGE('',*,*,#304,.T.);
#416=ORIENTED_EDGE('',*,*,#330,.F.);
#417=ORIENTED_EDGE('',*,*,#325,.F.);
#418=ORIENTED_EDGE('',*,*,#318,.F.);
#419=ORIENTED_EDGE('',*,*,#315,.F.);
#420=ORIENTED_EDGE('',*,*,#293,.F.);
#421=ORIENTED_EDGE('',*,*,#331,.T.);
#422=ORIENTED_EDGE('',*,*,#323,.T.);
#423=ORIENTED_EDGE('',*,*,#326,.T.);
#424=ORIENTED_EDGE('',*,*,#330,.T.);
#425=ORIENTED_EDGE('',*,*,#303,.F.);
#426=ORIENTED_EDGE('',*,*,#300,.F.);
#427=ORIENTED_EDGE('',*,*,#297,.F.);
#428=ORIENTED_EDGE('',*,*,#294,.F.);
#429=ORIENTED_EDGE('',*,*,#285,.T.);
#430=ORIENTED_EDGE('',*,*,#281,.F.);
#431=ORIENTED_EDGE('',*,*,#312,.F.);
#432=ORIENTED_EDGE('',*,*,#309,.F.);
#433=ORIENTED_EDGE('',*,*,#306,.F.);
#434=ORIENTED_EDGE('',*,*,#288,.F.);
#435=ORIENTED_EDGE('',*,*,#332,.F.);
#436=ORIENTED_EDGE('',*,*,#333,.T.);
#437=ORIENTED_EDGE('',*,*,#334,.T.);
#438=ORIENTED_EDGE('',*,*,#333,.F.);
#439=ORIENTED_EDGE('',*,*,#335,.T.);
#440=ORIENTED_EDGE('',*,*,#336,.T.);
#441=ORIENTED_EDGE('',*,*,#337,.F.);
#442=ORIENTED_EDGE('',*,*,#338,.F.);
#443=ORIENTED_EDGE('',*,*,#328,.T.);
#444=ORIENTED_EDGE('',*,*,#339,.T.);
#445=ORIENTED_EDGE('',*,*,#338,.T.);
#446=ORIENTED_EDGE('',*,*,#340,.F.);
#447=ORIENTED_EDGE('',*,*,#317,.T.);
#448=ORIENTED_EDGE('',*,*,#321,.F.);
#449=ORIENTED_EDGE('',*,*,#324,.T.);
#450=ORIENTED_EDGE('',*,*,#331,.F.);
#451=ORIENTED_EDGE('',*,*,#292,.T.);
#452=ORIENTED_EDGE('',*,*,#341,.F.);
#453=ORIENTED_EDGE('',*,*,#342,.F.);
#454=ORIENTED_EDGE('',*,*,#343,.T.);
#455=ORIENTED_EDGE('',*,*,#342,.T.);
#456=ORIENTED_EDGE('',*,*,#344,.F.);
#457=ORIENTED_EDGE('',*,*,#336,.F.);
#458=ORIENTED_EDGE('',*,*,#287,.F.);
#459=ORIENTED_EDGE('',*,*,#296,.T.);
#460=ORIENTED_EDGE('',*,*,#299,.T.);
#461=ORIENTED_EDGE('',*,*,#302,.T.);
#462=ORIENTED_EDGE('',*,*,#305,.T.);
#463=ORIENTED_EDGE('',*,*,#329,.T.);
#464=ORIENTED_EDGE('',*,*,#340,.T.);
#465=ORIENTED_EDGE('',*,*,#337,.T.);
#466=ORIENTED_EDGE('',*,*,#344,.T.);
#467=ORIENTED_EDGE('',*,*,#341,.T.);
#468=ORIENTED_EDGE('',*,*,#291,.T.);
#469=ORIENTED_EDGE('',*,*,#290,.T.);
#470=ORIENTED_EDGE('',*,*,#308,.T.);
#471=ORIENTED_EDGE('',*,*,#311,.T.);
#472=ORIENTED_EDGE('',*,*,#313,.T.);
#473=ORIENTED_EDGE('',*,*,#283,.T.);
#474=ORIENTED_EDGE('',*,*,#332,.T.);
#475=ORIENTED_EDGE('',*,*,#314,.T.);
#476=ORIENTED_EDGE('',*,*,#343,.F.);
#477=ORIENTED_EDGE('',*,*,#335,.F.);
#478=ORIENTED_EDGE('',*,*,#339,.F.);
#479=ORIENTED_EDGE('',*,*,#327,.T.);
#480=ORIENTED_EDGE('',*,*,#334,.F.);
#481=CYLINDRICAL_SURFACE('',#531,2.1);
#482=CYLINDRICAL_SURFACE('',#551,2.75);
#483=ADVANCED_FACE('',(#44),#481,.F.);
#484=ADVANCED_FACE('',(#45,#15),#21,.T.);
#485=ADVANCED_FACE('',(#46,#16),#22,.T.);
#486=ADVANCED_FACE('',(#47),#23,.T.);
#487=ADVANCED_FACE('',(#48),#24,.T.);
#488=ADVANCED_FACE('',(#49),#25,.T.);
#489=ADVANCED_FACE('',(#50),#26,.T.);
#490=ADVANCED_FACE('',(#51),#27,.T.);
#491=ADVANCED_FACE('',(#52),#28,.T.);
#492=ADVANCED_FACE('',(#53),#29,.T.);
#493=ADVANCED_FACE('',(#54),#30,.T.);
#494=ADVANCED_FACE('',(#55),#31,.T.);
#495=ADVANCED_FACE('',(#56),#32,.T.);
#496=ADVANCED_FACE('',(#57),#33,.T.);
#497=ADVANCED_FACE('',(#58),#34,.T.);
#498=ADVANCED_FACE('',(#59),#35,.T.);
#499=ADVANCED_FACE('',(#60),#36,.T.);
#500=ADVANCED_FACE('',(#61,#17),#37,.T.);
#501=ADVANCED_FACE('',(#62),#482,.F.);
#502=ADVANCED_FACE('',(#63),#38,.T.);
#503=ADVANCED_FACE('',(#64),#39,.T.);
#504=ADVANCED_FACE('',(#65),#40,.T.);
#505=ADVANCED_FACE('',(#66),#41,.T.);
#506=ADVANCED_FACE('',(#67,#18,#19),#42,.T.);
#507=ADVANCED_FACE('',(#68,#20),#43,.F.);
#508=CLOSED_SHELL('',(#483,#484,#485,#486,#487,#488,#489,#490,#491,#492,
#493,#494,#495,#496,#497,#498,#499,#500,#501,#502,#503,#504,#505,#506,#507));
#509=DERIVED_UNIT_ELEMENT(#512,1.);
#510=DERIVED_UNIT_ELEMENT(#828,-3.);
#511=DIMENSIONAL_EXPONENTS(0.,1.,0.,0.,0.,0.,0.);
#512=(
CONVERSION_BASED_UNIT('gram',#514)
MASS_UNIT()
NAMED_UNIT(#511)
);
#513=(
MASS_UNIT()
NAMED_UNIT(*)
SI_UNIT(.KILO.,.GRAM.)
);
#514=MASS_MEASURE_WITH_UNIT(MASS_MEASURE(0.001),#513);
#515=DERIVED_UNIT((#509,#510));
#516=MEASURE_REPRESENTATION_ITEM('density measure',
POSITIVE_RATIO_MEASURE(1.),#515);
#517=PROPERTY_DEFINITION_REPRESENTATION(#522,#519);
#518=PROPERTY_DEFINITION_REPRESENTATION(#523,#520);
#519=REPRESENTATION('material name',(#521),#825);
#520=REPRESENTATION('density',(#516),#825);
#521=DESCRIPTIVE_REPRESENTATION_ITEM('\X2\04220438043F043E0432044B0435\X0\',
'\X2\04220438043F043E0432044B0435\X0\');
#522=PROPERTY_DEFINITION('material property','material name',#835);
#523=PROPERTY_DEFINITION('material property','density of part',#835);
#524=DATE_TIME_ROLE('creation_date');
#525=APPLIED_DATE_AND_TIME_ASSIGNMENT(#526,#524,(#835));
#526=DATE_AND_TIME(#527,#528);
#527=CALENDAR_DATE(2026,13,2);
#528=LOCAL_TIME(0,0,0.,#529);
#529=COORDINATED_UNIVERSAL_TIME_OFFSET(0,0,.BEHIND.);
#530=AXIS2_PLACEMENT_3D('',#684,#560,#561);
#531=AXIS2_PLACEMENT_3D('',#685,#562,#563);
#532=AXIS2_PLACEMENT_3D('',#687,#564,#565);
#533=AXIS2_PLACEMENT_3D('',#690,#567,#568);
#534=AXIS2_PLACEMENT_3D('',#691,#569,#570);
#535=AXIS2_PLACEMENT_3D('',#700,#575,#576);
#536=AXIS2_PLACEMENT_3D('',#709,#581,#582);
#537=AXIS2_PLACEMENT_3D('',#715,#586,#587);
#538=AXIS2_PLACEMENT_3D('',#721,#591,#592);
#539=AXIS2_PLACEMENT_3D('',#727,#596,#597);
#540=AXIS2_PLACEMENT_3D('',#733,#601,#602);
#541=AXIS2_PLACEMENT_3D('',#739,#606,#607);
#542=AXIS2_PLACEMENT_3D('',#745,#611,#612);
#543=AXIS2_PLACEMENT_3D('',#751,#616,#617);
#544=AXIS2_PLACEMENT_3D('',#757,#621,#622);
#545=AXIS2_PLACEMENT_3D('',#760,#625,#626);
#546=AXIS2_PLACEMENT_3D('',#769,#631,#632);
#547=AXIS2_PLACEMENT_3D('',#777,#637,#638);
#548=AXIS2_PLACEMENT_3D('',#783,#642,#643);
#549=AXIS2_PLACEMENT_3D('',#787,#646,#647);
#550=AXIS2_PLACEMENT_3D('',#794,#652,#653);
#551=AXIS2_PLACEMENT_3D('',#796,#655,#656);
#552=AXIS2_PLACEMENT_3D('',#798,#657,#658);
#553=AXIS2_PLACEMENT_3D('',#801,#660,#661);
#554=AXIS2_PLACEMENT_3D('',#802,#662,#663);
#555=AXIS2_PLACEMENT_3D('',#811,#668,#669);
#556=AXIS2_PLACEMENT_3D('',#814,#672,#673);
#557=AXIS2_PLACEMENT_3D('',#818,#676,#677);
#558=AXIS2_PLACEMENT_3D('',#821,#680,#681);
#559=AXIS2_PLACEMENT_3D('',#822,#682,#683);
#560=DIRECTION('axis',(0.,0.,1.));
#561=DIRECTION('refdir',(1.,0.,0.));
#562=DIRECTION('center_axis',(-1.,0.,0.));
#563=DIRECTION('ref_axis',(0.,3.52170046973666E-32,-1.));
#564=DIRECTION('center_axis',(-1.,1.58603289232165E-16,2.22044604925031E-16));
#565=DIRECTION('ref_axis',(0.,3.52170046973666E-32,-1.));
#566=DIRECTION('',(-1.,0.,0.));
#567=DIRECTION('center_axis',(1.,-4.28626379701574E-16,-2.22044604925031E-16));
#568=DIRECTION('ref_axis',(0.,3.52170046973666E-32,-1.));
#569=DIRECTION('center_axis',(-1.,4.28626379701574E-16,2.22044604925031E-16));
#570=DIRECTION('ref_axis',(-4.28626379701574E-16,-1.,8.31215503417313E-32));
#571=DIRECTION('',(0.,-1.,0.));
#572=DIRECTION('',(2.22044604925031E-16,0.,1.));
#573=DIRECTION('',(-4.28626379701574E-16,-1.,0.));
#574=DIRECTION('',(2.22044604925031E-16,0.,1.));
#575=DIRECTION('center_axis',(1.,-1.58603289232165E-16,-2.22044604925031E-16));
#576=DIRECTION('ref_axis',(1.58603289232165E-16,1.,-3.07572093426783E-32));
#577=DIRECTION('',(1.58603289232165E-16,1.,0.));
#578=DIRECTION('',(2.22044604925031E-16,0.,1.));
#579=DIRECTION('',(-1.58603289232165E-16,-1.,3.07572093426783E-32));
#580=DIRECTION('',(2.22044604925031E-16,0.,1.));
#581=DIRECTION('center_axis',(0.,0.,-1.));
#582=DIRECTION('ref_axis',(-1.,0.,0.));
#583=DIRECTION('',(-1.,0.,3.52451753849256E-16));
#584=DIRECTION('',(0.,-1.,0.));
#585=DIRECTION('',(-1.,0.,0.));
#586=DIRECTION('center_axis',(0.,0.,-1.));
#587=DIRECTION('ref_axis',(-1.,0.,0.));
#588=DIRECTION('',(-1.,0.,0.));
#589=DIRECTION('',(0.,1.,0.));
#590=DIRECTION('',(-1.,0.,3.52451753849256E-16));
#591=DIRECTION('center_axis',(-1.93925419148499E-16,0.,-1.));
#592=DIRECTION('ref_axis',(1.,-5.98601855574278E-32,-1.93925419148499E-16));
#593=DIRECTION('',(-1.,0.,1.93925419148499E-16));
#594=DIRECTION('',(0.,-1.,0.));
#595=DIRECTION('',(-1.,5.98601855574278E-32,1.93925419148499E-16));
#596=DIRECTION('center_axis',(-1.,0.,0.));
#597=DIRECTION('ref_axis',(0.,-3.08676324229521E-16,-1.));
#598=DIRECTION('',(0.,0.,1.));
#599=DIRECTION('',(0.,-1.,0.));
#600=DIRECTION('',(0.,3.08676324229521E-16,1.));
#601=DIRECTION('center_axis',(-7.40148683083438E-16,0.,1.));
#602=DIRECTION('ref_axis',(-1.,-2.28466374877516E-31,-7.40148683083438E-16));
#603=DIRECTION('',(1.,0.,7.40148683083438E-16));
#604=DIRECTION('',(0.,-1.,0.));
#605=DIRECTION('',(1.,2.28466374877516E-31,7.40148683083438E-16));
#606=DIRECTION('center_axis',(-1.,0.,6.66133814775094E-16));
#607=DIRECTION('ref_axis',(-6.66133814775094E-16,-3.08676324229521E-16,
-1.));
#608=DIRECTION('',(6.66133814775094E-16,0.,1.));
#609=DIRECTION('',(0.,-1.,0.));
#610=DIRECTION('',(6.66133814775094E-16,3.08676324229521E-16,1.));
#611=DIRECTION('center_axis',(0.647482014388489,0.,-0.762080731316193));
#612=DIRECTION('ref_axis',(0.762080731316193,1.99862368206165E-16,0.647482014388489));
#613=DIRECTION('',(-0.762080731316193,0.,-0.647482014388489));
#614=DIRECTION('',(0.,-1.,0.));
#615=DIRECTION('',(-0.762080731316193,-1.99862368206165E-16,-0.647482014388489));
#616=DIRECTION('center_axis',(0.647482014388489,0.,0.762080731316193));
#617=DIRECTION('ref_axis',(-0.762080731316193,1.99862368206165E-16,0.647482014388489));
#618=DIRECTION('',(0.762080731316193,0.,-0.647482014388489));
#619=DIRECTION('',(0.,-1.,0.));
#620=DIRECTION('',(0.762080731316193,-1.99862368206165E-16,-0.647482014388489));
#621=DIRECTION('center_axis',(0.,0.,1.));
#622=DIRECTION('ref_axis',(-1.,0.,0.));
#623=DIRECTION('',(1.,0.,0.));
#624=DIRECTION('',(1.,0.,0.));
#625=DIRECTION('center_axis',(-1.,0.,2.48329675022762E-16));
#626=DIRECTION('ref_axis',(-2.48329675022762E-16,-3.08676324229521E-16,
-1.));
#627=DIRECTION('',(2.48329675022762E-16,3.08676324229521E-16,1.));
#628=DIRECTION('',(0.,-1.,0.));
#629=DIRECTION('',(-2.48329675022762E-16,-3.08676324229521E-16,-1.));
#630=DIRECTION('',(0.,-1.,0.));
#631=DIRECTION('center_axis',(0.,-1.,0.));
#632=DIRECTION('ref_axis',(0.,0.,-1.));
#633=DIRECTION('',(-1.,9.64717108486514E-32,3.12533561132205E-16));
#634=DIRECTION('',(-3.58942138720708E-16,0.,1.));
#635=DIRECTION('',(-1.,0.,2.15312578114763E-16));
#636=DIRECTION('',(-0.716506130382507,2.15326675558892E-16,0.697580794692834));
#637=DIRECTION('center_axis',(2.15312578114763E-16,0.,1.));
#638=DIRECTION('ref_axis',(-1.,6.64618951728465E-32,2.15312578114763E-16));
#639=DIRECTION('',(0.,-1.,0.));
#640=DIRECTION('',(-1.,6.64618951728465E-32,2.15312578114763E-16));
#641=DIRECTION('',(0.,-1.,0.));
#642=DIRECTION('center_axis',(1.,0.,3.58942138720708E-16));
#643=DIRECTION('ref_axis',(-3.58942138720708E-16,3.08676324229521E-16,1.));
#644=DIRECTION('',(0.,-1.,0.));
#645=DIRECTION('',(-3.58942138720708E-16,3.08676324229521E-16,1.));
#646=DIRECTION('center_axis',(3.12533561132205E-16,0.,1.));
#647=DIRECTION('ref_axis',(-1.,9.64717108486514E-32,3.12533561132205E-16));
#648=DIRECTION('',(1.,-9.64717108486514E-32,-3.12533561132205E-16));
#649=DIRECTION('',(0.,-1.,0.));
#650=DIRECTION('',(1.,0.,0.));
#651=DIRECTION('',(-1.,9.64717108486514E-32,3.12533561132205E-16));
#652=DIRECTION('center_axis',(0.,-1.,0.));
#653=DIRECTION('ref_axis',(0.,0.,-1.));
#654=DIRECTION('',(-0.716506130382507,2.15326675558892E-16,0.697580794692834));
#655=DIRECTION('center_axis',(0.,1.,0.));
#656=DIRECTION('ref_axis',(1.,0.,0.));
#657=DIRECTION('center_axis',(0.,-1.,3.08676324229521E-16));
#658=DIRECTION('ref_axis',(1.,0.,0.));
#659=DIRECTION('',(0.,-1.,0.));
#660=DIRECTION('center_axis',(0.,-1.,3.08676324229521E-16));
#661=DIRECTION('ref_axis',(1.,0.,0.));
#662=DIRECTION('center_axis',(1.17200085424577E-16,0.,1.));
#663=DIRECTION('ref_axis',(1.,-3.61768915682443E-32,-1.17200085424577E-16));
#664=DIRECTION('',(1.,-3.61768915682443E-32,-1.17200085424577E-16));
#665=DIRECTION('',(0.,1.,0.));
#666=DIRECTION('',(1.,-3.61768915682443E-32,-1.17200085424577E-16));
#667=DIRECTION('',(0.,1.,0.));
#668=DIRECTION('center_axis',(-1.,0.,4.96659350045524E-16));
#669=DIRECTION('ref_axis',(4.96659350045524E-16,3.08676324229521E-16,1.));
#670=DIRECTION('',(4.96659350045524E-16,3.08676324229521E-16,1.));
#671=DIRECTION('',(4.96659350045524E-16,3.08676324229521E-16,1.));
#672=DIRECTION('center_axis',(0.697580794692834,0.,0.716506130382507));
#673=DIRECTION('ref_axis',(0.716506130382507,-2.15326675558892E-16,-0.697580794692834));
#674=DIRECTION('',(0.716506130382507,-2.15326675558892E-16,-0.697580794692834));
#675=DIRECTION('',(0.,1.,0.));
#676=DIRECTION('center_axis',(1.,0.,-2.48329675022762E-16));
#677=DIRECTION('ref_axis',(-2.48329675022762E-16,-3.08676324229521E-16,
-1.));
#678=DIRECTION('',(-2.48329675022762E-16,-3.08676324229521E-16,-1.));
#679=DIRECTION('',(-2.48329675022762E-16,-3.08676324229521E-16,-1.));
#680=DIRECTION('center_axis',(0.,1.,-3.08676324229521E-16));
#681=DIRECTION('ref_axis',(0.,3.08676324229521E-16,1.));
#682=DIRECTION('center_axis',(0.,1.,-3.08676324229521E-16));
#683=DIRECTION('ref_axis',(0.,3.08676324229521E-16,1.));
#684=CARTESIAN_POINT('',(0.,0.,0.));
#685=CARTESIAN_POINT('Origin',(-13.4102324759513,-285.082623551071,200.328157136285));
#686=CARTESIAN_POINT('',(-13.4102324759513,-285.082623551071,202.428157136285));
#687=CARTESIAN_POINT('Origin',(-13.4102324759513,-285.082623551071,200.328157136285));
#688=CARTESIAN_POINT('',(-17.7842735045302,-285.082623551071,202.428157136285));
#689=CARTESIAN_POINT('',(-13.4102324759513,-285.082623551071,202.428157136285));
#690=CARTESIAN_POINT('Origin',(-17.7842735045302,-285.082623551071,200.328157136285));
#691=CARTESIAN_POINT('Origin',(-17.7842735045302,-278.082623551071,189.328157136285));
#692=CARTESIAN_POINT('',(-17.7842735045302,-278.082623551071,191.328157136285));
#693=CARTESIAN_POINT('',(-17.7842735045302,-292.082623551071,191.328157136285));
#694=CARTESIAN_POINT('',(-17.7842735045302,-278.082623551071,191.328157136285));
#695=CARTESIAN_POINT('',(-17.7842735045302,-292.082623551071,209.328157136285));
#696=CARTESIAN_POINT('',(-17.7842735045302,-292.082623551071,189.328157136285));
#697=CARTESIAN_POINT('',(-17.7842735045302,-278.082623551071,209.328157136285));
#698=CARTESIAN_POINT('',(-17.7842735045302,-279.082623551071,209.328157136285));
#699=CARTESIAN_POINT('',(-17.7842735045302,-278.082623551071,189.328157136285));
#700=CARTESIAN_POINT('Origin',(-13.4102324759513,-292.082623551071,189.328157136285));
#701=CARTESIAN_POINT('',(-13.4102324759513,-292.082623551071,209.328157136285));
#702=CARTESIAN_POINT('',(-13.4102324759513,-278.082623551071,209.328157136285));
#703=CARTESIAN_POINT('',(-13.4102324759513,-286.082623551071,209.328157136285));
#704=CARTESIAN_POINT('',(-13.4102324759513,-292.082623551071,189.328157136285));
#705=CARTESIAN_POINT('',(-13.4102324759513,-292.082623551071,189.328157136285));
#706=CARTESIAN_POINT('',(-13.4102324759513,-278.082623551071,189.328157136285));
#707=CARTESIAN_POINT('',(-13.4102324759513,-278.082623551071,189.328157136285));
#708=CARTESIAN_POINT('',(-13.4102324759513,-278.082623551071,189.328157136285));
#709=CARTESIAN_POINT('Origin',(0.38174734919646,-280.082623551071,209.328157136285));
#710=CARTESIAN_POINT('',(-30.0913513392351,-292.082623551071,209.328157136285));
#711=CARTESIAN_POINT('',(-30.4128124218827,-292.082623551071,209.328157136285));
#712=CARTESIAN_POINT('',(-30.0913513392351,-278.082623551071,209.328157136285));
#713=CARTESIAN_POINT('',(-30.0913513392351,-278.082623551071,209.328157136285));
#714=CARTESIAN_POINT('',(0.38174734919646,-278.082623551071,209.328157136285));
#715=CARTESIAN_POINT('Origin',(0.38174734919646,-280.082623551071,209.328157136285));
#716=CARTESIAN_POINT('',(0.38174734919646,-278.082623551071,209.328157136285));
#717=CARTESIAN_POINT('',(0.38174734919646,-278.082623551071,209.328157136285));
#718=CARTESIAN_POINT('',(0.381747349196457,-292.082623551071,209.328157136285));
#719=CARTESIAN_POINT('',(0.38174734919646,-280.082623551071,209.328157136285));
#720=CARTESIAN_POINT('',(-30.4128124218827,-292.082623551071,209.328157136285));
#721=CARTESIAN_POINT('Origin',(-43.6842735045302,-278.082623551071,189.328157136285));
#722=CARTESIAN_POINT('',(-43.6842735045302,-292.082623551071,189.328157136285));
#723=CARTESIAN_POINT('',(-13.4102324759513,-292.082623551071,189.328157136285));
#724=CARTESIAN_POINT('',(-43.6842735045302,-278.082623551071,189.328157136285));
#725=CARTESIAN_POINT('',(-43.6842735045302,-278.082623551071,189.328157136285));
#726=CARTESIAN_POINT('',(-17.7842735045302,-278.082623551071,189.328157136285));
#727=CARTESIAN_POINT('Origin',(-43.6842735045302,-278.082623551071,209.328157136285));
#728=CARTESIAN_POINT('',(-43.6842735045302,-292.082623551071,209.328157136285));
#729=CARTESIAN_POINT('',(-43.6842735045302,-292.082623551071,206.249678016477));
#730=CARTESIAN_POINT('',(-43.6842735045302,-278.082623551071,209.328157136285));
#731=CARTESIAN_POINT('',(-43.6842735045302,-278.082623551071,209.328157136285));
#732=CARTESIAN_POINT('',(-43.6842735045302,-278.082623551071,189.328157136285));
#733=CARTESIAN_POINT('Origin',(-40.6842735045302,-278.082623551071,209.328157136285));
#734=CARTESIAN_POINT('',(-40.6842735045302,-292.082623551071,209.328157136285));
#735=CARTESIAN_POINT('',(-35.7092735045302,-292.082623551071,209.328157136285));
#736=CARTESIAN_POINT('',(-40.6842735045302,-278.082623551071,209.328157136285));
#737=CARTESIAN_POINT('',(-40.6842735045302,-278.082623551071,209.328157136285));
#738=CARTESIAN_POINT('',(-43.6842735045302,-278.082623551071,209.328157136285));
#739=CARTESIAN_POINT('Origin',(-40.6842735045302,-278.082623551071,217.014240657055));
#740=CARTESIAN_POINT('',(-40.6842735045302,-292.082623551071,217.014240657055));
#741=CARTESIAN_POINT('',(-40.6842735045302,-292.082623551071,210.092719776863));
#742=CARTESIAN_POINT('',(-40.6842735045302,-278.082623551071,217.014240657055));
#743=CARTESIAN_POINT('',(-40.6842735045302,-278.082623551071,217.014240657055));
#744=CARTESIAN_POINT('',(-40.6842735045302,-278.082623551071,189.328157136285));
#745=CARTESIAN_POINT('Origin',(-40.6842735045302,-278.082623551071,200.328157136285));
#746=CARTESIAN_POINT('',(-40.6842735045302,-292.082623551071,200.328157136285));
#747=CARTESIAN_POINT('',(-37.0935313568049,-292.082623551071,203.378937537127));
#748=CARTESIAN_POINT('',(-40.6842735045302,-278.082623551071,200.328157136285));
#749=CARTESIAN_POINT('',(-40.6842735045302,-278.082623551071,200.328157136285));
#750=CARTESIAN_POINT('',(-30.0913513392351,-278.082623551071,209.328157136285));
#751=CARTESIAN_POINT('Origin',(-30.0913513392351,-278.082623551071,191.328157136285));
#752=CARTESIAN_POINT('',(-30.0913513392351,-292.082623551071,191.328157136285));
#753=CARTESIAN_POINT('',(-33.1999225112259,-292.082623551071,193.969273545086));
#754=CARTESIAN_POINT('',(-30.0913513392351,-278.082623551071,191.328157136285));
#755=CARTESIAN_POINT('',(-30.0913513392351,-278.082623551071,191.328157136285));
#756=CARTESIAN_POINT('',(-40.6842735045302,-278.082623551071,200.328157136285));
#757=CARTESIAN_POINT('Origin',(-17.7842735045302,-278.082623551071,191.328157136285));
#758=CARTESIAN_POINT('',(-24.2592735045302,-292.082623551071,191.328157136285));
#759=CARTESIAN_POINT('',(-40.6842735045302,-278.082623551071,191.328157136285));
#760=CARTESIAN_POINT('Origin',(-7.57494480903667,-280.082623551071,217.074686305412));
#761=CARTESIAN_POINT('',(-7.57494480903667,-280.082623551071,217.014240657055));
#762=CARTESIAN_POINT('',(-7.57494480903667,-280.082623551071,217.074686305412));
#763=CARTESIAN_POINT('',(-7.57494480903667,-280.082623551071,219.279844783374));
#764=CARTESIAN_POINT('',(-7.57494480903667,-288.082623551071,217.014240657055));
#765=CARTESIAN_POINT('',(-7.57494480903667,-280.082623551071,217.014240657055));
#766=CARTESIAN_POINT('',(-7.57494480903667,-288.082623551071,217.074686305412));
#767=CARTESIAN_POINT('',(-7.57494480903667,-288.082623551071,217.014240657055));
#768=CARTESIAN_POINT('',(-7.57494480903667,-280.082623551071,217.074686305412));
#769=CARTESIAN_POINT('Origin',(-10.7216105440467,-288.082623551071,213.951421720848));
#770=CARTESIAN_POINT('',(-20.2842735045302,-288.082623551071,217.014240657055));
#771=CARTESIAN_POINT('',(-21.7842735045302,-288.082623551071,217.014240657055));
#772=CARTESIAN_POINT('',(-20.2842735045302,-288.082623551071,210.828157136285));
#773=CARTESIAN_POINT('',(-20.2842735045302,-288.082623551071,212.389789428566));
#774=CARTESIAN_POINT('',(-1.15894758356327,-288.082623551071,210.828157136285));
#775=CARTESIAN_POINT('',(-5.940279063805,-288.082623551071,210.828157136285));
#776=CARTESIAN_POINT('',(-7.57494480903667,-288.082623551071,217.074686305412));
#777=CARTESIAN_POINT('Origin',(-1.15894758356327,-280.082623551071,210.828157136285));
#778=CARTESIAN_POINT('',(-20.2842735045302,-292.082623551071,210.828157136285));
#779=CARTESIAN_POINT('',(-20.2842735045302,-280.082623551071,210.828157136285));
#780=CARTESIAN_POINT('',(-1.15894758356327,-292.082623551071,210.828157136285));
#781=CARTESIAN_POINT('',(-21.7842735045302,-292.082623551071,210.828157136285));
#782=CARTESIAN_POINT('',(-1.15894758356327,-280.082623551071,210.828157136285));
#783=CARTESIAN_POINT('Origin',(-20.2842735045302,-280.082623551071,210.828157136285));
#784=CARTESIAN_POINT('',(-20.2842735045302,-292.082623551071,217.014240657055));
#785=CARTESIAN_POINT('',(-20.2842735045302,-280.082623551071,217.014240657055));
#786=CARTESIAN_POINT('',(-20.2842735045302,-292.082623551071,217.014240657055));
#787=CARTESIAN_POINT('Origin',(-20.2842735045302,-280.082623551071,217.014240657055));
#788=CARTESIAN_POINT('',(-21.7842735045302,-280.082623551071,217.014240657055));
#789=CARTESIAN_POINT('',(-17.4819413306568,-280.082623551071,217.014240657055));
#790=CARTESIAN_POINT('',(-21.7842735045302,-278.082623551071,217.014240657055));
#791=CARTESIAN_POINT('',(-21.7842735045302,-279.082623551071,217.014240657055));
#792=CARTESIAN_POINT('',(-40.6842735045302,-278.082623551071,217.014240657055));
#793=CARTESIAN_POINT('',(-21.7842735045302,-292.082623551071,217.014240657055));
#794=CARTESIAN_POINT('Origin',(-10.7012630776669,-292.082623551071,213.17119889667));
#795=CARTESIAN_POINT('',(-7.57494480903667,-292.082623551071,217.074686305412));
#796=CARTESIAN_POINT('Origin',(-16.7463561047483,-280.082623551071,221.72330516725));
#797=CARTESIAN_POINT('',(-19.4963561047483,-278.082623551071,221.72330516725));
#798=CARTESIAN_POINT('Origin',(-16.7463561047483,-278.082623551071,221.72330516725));
#799=CARTESIAN_POINT('',(-19.4963561047483,-280.082623551071,221.72330516725));
#800=CARTESIAN_POINT('',(-19.4963561047483,-280.082623551071,221.72330516725));
#801=CARTESIAN_POINT('Origin',(-16.7463561047483,-280.082623551071,221.72330516725));
#802=CARTESIAN_POINT('Origin',(-21.7842735045302,-280.082623551071,225.955765865618));
#803=CARTESIAN_POINT('',(-21.7842735045302,-280.082623551071,225.955765865618));
#804=CARTESIAN_POINT('',(-7.57494480903666,-280.082623551071,225.955765865618));
#805=CARTESIAN_POINT('',(-21.7842735045302,-280.082623551071,225.955765865618));
#806=CARTESIAN_POINT('',(-7.57494480903666,-278.082623551071,225.955765865618));
#807=CARTESIAN_POINT('',(-7.57494480903666,-280.082623551071,225.955765865618));
#808=CARTESIAN_POINT('',(-21.7842735045302,-278.082623551071,225.955765865618));
#809=CARTESIAN_POINT('',(-21.7842735045302,-278.082623551071,225.955765865618));
#810=CARTESIAN_POINT('',(-21.7842735045302,-280.082623551071,225.955765865618));
#811=CARTESIAN_POINT('Origin',(-21.7842735045302,-280.082623551071,209.328157136285));
#812=CARTESIAN_POINT('',(-21.7842735045302,-280.082623551071,217.014240657055));
#813=CARTESIAN_POINT('',(-21.7842735045302,-278.082623551071,217.014240657055));
#814=CARTESIAN_POINT('Origin',(-7.57494480903667,-280.082623551071,217.074686305412));
#815=CARTESIAN_POINT('',(-7.57494480903667,-278.082623551071,217.074686305412));
#816=CARTESIAN_POINT('',(-7.57494480903667,-278.082623551071,217.074686305412));
#817=CARTESIAN_POINT('',(-7.57494480903667,-280.082623551071,217.074686305412));
#818=CARTESIAN_POINT('Origin',(-7.57494480903666,-280.082623551071,225.955765865618));
#819=CARTESIAN_POINT('',(-7.57494480903666,-280.082623551071,225.955765865618));
#820=CARTESIAN_POINT('',(-7.57494480903666,-278.082623551071,225.955765865618));
#821=CARTESIAN_POINT('Origin',(-14.6796091567834,-278.082623551071,221.485003261337));
#822=CARTESIAN_POINT('Origin',(-14.6796091567834,-280.082623551071,221.485003261337));
#823=UNCERTAINTY_MEASURE_WITH_UNIT(LENGTH_MEASURE(0.01),#827,
'DISTANCE_ACCURACY_VALUE',
'Maximum model space distance between geometric entities at asserted c
onnectivities');
#824=UNCERTAINTY_MEASURE_WITH_UNIT(LENGTH_MEASURE(0.01),#827,
'DISTANCE_ACCURACY_VALUE',
'Maximum model space distance between geometric entities at asserted c
onnectivities');
#825=(
GEOMETRIC_REPRESENTATION_CONTEXT(3)
GLOBAL_UNCERTAINTY_ASSIGNED_CONTEXT((#823))
GLOBAL_UNIT_ASSIGNED_CONTEXT((#827,#829,#830))
REPRESENTATION_CONTEXT('','3D')
);
#826=(
GEOMETRIC_REPRESENTATION_CONTEXT(3)
GLOBAL_UNCERTAINTY_ASSIGNED_CONTEXT((#824))
GLOBAL_UNIT_ASSIGNED_CONTEXT((#827,#829,#830))
REPRESENTATION_CONTEXT('','3D')
);
#827=(
LENGTH_UNIT()
NAMED_UNIT(*)
SI_UNIT(.MILLI.,.METRE.)
);
#828=(
LENGTH_UNIT()
NAMED_UNIT(*)
SI_UNIT(.CENTI.,.METRE.)
);
#829=(
NAMED_UNIT(*)
PLANE_ANGLE_UNIT()
SI_UNIT($,.RADIAN.)
);
#830=(
NAMED_UNIT(*)
SI_UNIT($,.STERADIAN.)
SOLID_ANGLE_UNIT()
);
#831=SHAPE_DEFINITION_REPRESENTATION(#832,#833);
#832=PRODUCT_DEFINITION_SHAPE('',$,#835);
#833=SHAPE_REPRESENTATION('',(#530),#825);
#834=PRODUCT_DEFINITION_CONTEXT('part definition',#839,'design');
#835=PRODUCT_DEFINITION('\X2\043A0430044004350442043A0430\X0\',
'\X2\043A0430044004350442043A0430\X0\',#836,#834);
#836=PRODUCT_DEFINITION_FORMATION('',$,#841);
#837=PRODUCT_RELATED_PRODUCT_CATEGORY('\X2\043A0430044004350442043A0430\X0\',
'\X2\043A0430044004350442043A0430\X0\',(#841));
#838=APPLICATION_PROTOCOL_DEFINITION('international standard',
'automotive_design',2009,#839);
#839=APPLICATION_CONTEXT(
'Core Data for Automotive Mechanical Design Process');
#840=PRODUCT_CONTEXT('part definition',#839,'mechanical');
#841=PRODUCT('\X2\043A0430044004350442043A0430\X0\','\X2\043A0430044004350442043A0430\X0\',
$,(#840));
#842=PRESENTATION_STYLE_ASSIGNMENT((#843));
#843=SURFACE_STYLE_USAGE(.BOTH.,#846);
#844=SURFACE_STYLE_RENDERING_WITH_PROPERTIES($,#850,(#845));
#845=SURFACE_STYLE_TRANSPARENT(0.);
#846=SURFACE_SIDE_STYLE('',(#847,#844));
#847=SURFACE_STYLE_FILL_AREA(#848);
#848=FILL_AREA_STYLE('',(#849));
#849=FILL_AREA_STYLE_COLOUR('',#850);
#850=COLOUR_RGB('',0.749019607843137,0.749019607843137,0.749019607843137);
ENDSEC;
END-ISO-10303-21;
