ISO-10303-21;
HEADER;
/* Generated by software containing ST-Developer
 * from STEP Tools, Inc. (www.steptools.com) 
 */

FILE_DESCRIPTION(
/* description */ ('NONE'),
/* implementation_level */ '2;1');

FILE_NAME(
/* name */ '',
/* time_stamp */ '2026-03-12T18:59:05+03:00',
/* author */ ('Service'),
/* organization */ (''),
/* preprocessor_version */ 'ST-DEVELOPER v20',
/* originating_system */ 'Autodesk Inventor 2024',
/* authorisation */ '');

FILE_SCHEMA (('AUTOMOTIVE_DESIGN { 1 0 10303 214 3 1 1 }'));
ENDSEC;

DATA;
#10=MECHANICAL_DESIGN_GEOMETRIC_PRESENTATION_REPRESENTATION('',(#13),#1417);
#11=SHAPE_REPRESENTATION_RELATIONSHIP('SRR','None',#1424,#12);
#12=ADVANCED_BREP_SHAPE_REPRESENTATION('',(#14),#1416);
#13=STYLED_ITEM('',(#1434),#14);
#14=MANIFOLD_SOLID_BREP('\X2\04220432043504400434043E0435\X0\ \X2\04420435043B043E\X0\1',
#846);
#15=CONICAL_SURFACE('',#930,4.125,0.463647609000806);
#16=CYLINDRICAL_SURFACE('',#879,1.);
#17=CYLINDRICAL_SURFACE('',#883,1.2);
#18=CYLINDRICAL_SURFACE('',#886,1.2);
#19=CYLINDRICAL_SURFACE('',#890,1.);
#20=CYLINDRICAL_SURFACE('',#892,1.25);
#21=CYLINDRICAL_SURFACE('',#894,1.25);
#22=CYLINDRICAL_SURFACE('',#908,1.);
#23=CYLINDRICAL_SURFACE('',#917,0.999999999999999);
#24=CYLINDRICAL_SURFACE('',#918,4.25);
#25=CYLINDRICAL_SURFACE('',#923,1.2);
#26=CYLINDRICAL_SURFACE('',#925,1.2);
#27=CYLINDRICAL_SURFACE('',#928,1.25);
#28=CYLINDRICAL_SURFACE('',#929,1.25);
#29=CYLINDRICAL_SURFACE('',#934,2.5);
#30=CIRCLE('',#869,1.);
#31=CIRCLE('',#870,1.2);
#32=CIRCLE('',#871,1.2);
#33=CIRCLE('',#872,1.);
#34=CIRCLE('',#873,1.25);
#35=CIRCLE('',#874,1.25);
#36=CIRCLE('',#880,1.);
#37=CIRCLE('',#884,1.2);
#38=CIRCLE('',#887,1.2);
#39=CIRCLE('',#891,1.);
#40=CIRCLE('',#893,1.25);
#41=CIRCLE('',#895,1.25);
#42=CIRCLE('',#899,4.25);
#43=CIRCLE('',#902,0.999999999999999);
#44=CIRCLE('',#903,1.2);
#45=CIRCLE('',#904,1.2);
#46=CIRCLE('',#905,1.);
#47=CIRCLE('',#906,1.25);
#48=CIRCLE('',#907,1.25);
#49=CIRCLE('',#909,1.);
#50=CIRCLE('',#911,1.2);
#51=CIRCLE('',#912,1.2);
#52=CIRCLE('',#913,0.999999999999999);
#53=CIRCLE('',#914,1.25);
#54=CIRCLE('',#915,1.25);
#55=CIRCLE('',#919,4.25);
#56=CIRCLE('',#920,4.25);
#57=CIRCLE('',#931,4.);
#58=CIRCLE('',#933,2.5);
#59=CIRCLE('',#935,2.5);
#60=FACE_BOUND('',#116,.T.);
#61=FACE_BOUND('',#122,.T.);
#62=FACE_BOUND('',#123,.T.);
#63=FACE_BOUND('',#140,.T.);
#64=FACE_BOUND('',#141,.T.);
#65=FACE_BOUND('',#144,.T.);
#66=FACE_BOUND('',#147,.T.);
#67=FACE_BOUND('',#148,.T.);
#68=FACE_BOUND('',#151,.T.);
#69=FACE_BOUND('',#152,.T.);
#70=FACE_BOUND('',#167,.T.);
#71=FACE_OUTER_BOUND('',#115,.T.);
#72=FACE_OUTER_BOUND('',#117,.T.);
#73=FACE_OUTER_BOUND('',#118,.T.);
#74=FACE_OUTER_BOUND('',#119,.T.);
#75=FACE_OUTER_BOUND('',#120,.T.);
#76=FACE_OUTER_BOUND('',#121,.T.);
#77=FACE_OUTER_BOUND('',#124,.T.);
#78=FACE_OUTER_BOUND('',#125,.T.);
#79=FACE_OUTER_BOUND('',#126,.T.);
#80=FACE_OUTER_BOUND('',#127,.T.);
#81=FACE_OUTER_BOUND('',#128,.T.);
#82=FACE_OUTER_BOUND('',#129,.T.);
#83=FACE_OUTER_BOUND('',#130,.T.);
#84=FACE_OUTER_BOUND('',#131,.T.);
#85=FACE_OUTER_BOUND('',#132,.T.);
#86=FACE_OUTER_BOUND('',#133,.T.);
#87=FACE_OUTER_BOUND('',#134,.T.);
#88=FACE_OUTER_BOUND('',#135,.T.);
#89=FACE_OUTER_BOUND('',#136,.T.);
#90=FACE_OUTER_BOUND('',#137,.T.);
#91=FACE_OUTER_BOUND('',#138,.T.);
#92=FACE_OUTER_BOUND('',#139,.T.);
#93=FACE_OUTER_BOUND('',#142,.T.);
#94=FACE_OUTER_BOUND('',#143,.T.);
#95=FACE_OUTER_BOUND('',#145,.T.);
#96=FACE_OUTER_BOUND('',#146,.T.);
#97=FACE_OUTER_BOUND('',#149,.T.);
#98=FACE_OUTER_BOUND('',#150,.T.);
#99=FACE_OUTER_BOUND('',#153,.T.);
#100=FACE_OUTER_BOUND('',#154,.T.);
#101=FACE_OUTER_BOUND('',#155,.T.);
#102=FACE_OUTER_BOUND('',#156,.T.);
#103=FACE_OUTER_BOUND('',#157,.T.);
#104=FACE_OUTER_BOUND('',#158,.T.);
#105=FACE_OUTER_BOUND('',#159,.T.);
#106=FACE_OUTER_BOUND('',#160,.T.);
#107=FACE_OUTER_BOUND('',#161,.T.);
#108=FACE_OUTER_BOUND('',#162,.T.);
#109=FACE_OUTER_BOUND('',#163,.T.);
#110=FACE_OUTER_BOUND('',#164,.T.);
#111=FACE_OUTER_BOUND('',#165,.T.);
#112=FACE_OUTER_BOUND('',#166,.T.);
#113=FACE_OUTER_BOUND('',#168,.T.);
#114=FACE_OUTER_BOUND('',#169,.T.);
#115=EDGE_LOOP('',(#539,#540,#541,#542));
#116=EDGE_LOOP('',(#543,#544,#545,#546));
#117=EDGE_LOOP('',(#547,#548,#549,#550));
#118=EDGE_LOOP('',(#551,#552,#553,#554));
#119=EDGE_LOOP('',(#555,#556,#557,#558));
#120=EDGE_LOOP('',(#559,#560,#561,#562));
#121=EDGE_LOOP('',(#563,#564,#565,#566,#567,#568,#569,#570,#571,#572,#573,
#574));
#122=EDGE_LOOP('',(#575));
#123=EDGE_LOOP('',(#576));
#124=EDGE_LOOP('',(#577,#578,#579,#580,#581,#582,#583,#584,#585,#586,#587,
#588));
#125=EDGE_LOOP('',(#589,#590,#591,#592));
#126=EDGE_LOOP('',(#593,#594,#595,#596,#597,#598,#599,#600,#601,#602,#603,
#604));
#127=EDGE_LOOP('',(#605,#606,#607,#608));
#128=EDGE_LOOP('',(#609,#610,#611,#612));
#129=EDGE_LOOP('',(#613,#614,#615,#616));
#130=EDGE_LOOP('',(#617,#618,#619,#620));
#131=EDGE_LOOP('',(#621,#622,#623,#624));
#132=EDGE_LOOP('',(#625,#626,#627,#628));
#133=EDGE_LOOP('',(#629,#630,#631,#632));
#134=EDGE_LOOP('',(#633,#634,#635,#636));
#135=EDGE_LOOP('',(#637,#638,#639,#640));
#136=EDGE_LOOP('',(#641,#642,#643,#644));
#137=EDGE_LOOP('',(#645,#646,#647,#648));
#138=EDGE_LOOP('',(#649,#650,#651,#652));
#139=EDGE_LOOP('',(#653,#654,#655,#656,#657,#658,#659,#660,#661,#662,#663,
#664));
#140=EDGE_LOOP('',(#665));
#141=EDGE_LOOP('',(#666));
#142=EDGE_LOOP('',(#667,#668,#669,#670));
#143=EDGE_LOOP('',(#671,#672,#673,#674));
#144=EDGE_LOOP('',(#675));
#145=EDGE_LOOP('',(#676,#677,#678,#679));
#146=EDGE_LOOP('',(#680,#681,#682,#683,#684,#685,#686,#687,#688,#689,#690,
#691));
#147=EDGE_LOOP('',(#692));
#148=EDGE_LOOP('',(#693));
#149=EDGE_LOOP('',(#694,#695,#696,#697));
#150=EDGE_LOOP('',(#698,#699,#700,#701,#702,#703,#704,#705,#706,#707,#708,
#709));
#151=EDGE_LOOP('',(#710));
#152=EDGE_LOOP('',(#711));
#153=EDGE_LOOP('',(#712,#713,#714,#715));
#154=EDGE_LOOP('',(#716,#717,#718,#719));
#155=EDGE_LOOP('',(#720,#721,#722,#723,#724));
#156=EDGE_LOOP('',(#725,#726,#727,#728));
#157=EDGE_LOOP('',(#729,#730,#731,#732));
#158=EDGE_LOOP('',(#733,#734,#735,#736));
#159=EDGE_LOOP('',(#737,#738,#739,#740));
#160=EDGE_LOOP('',(#741,#742,#743,#744));
#161=EDGE_LOOP('',(#745,#746,#747,#748));
#162=EDGE_LOOP('',(#749,#750,#751,#752));
#163=EDGE_LOOP('',(#753,#754,#755,#756));
#164=EDGE_LOOP('',(#757,#758,#759,#760));
#165=EDGE_LOOP('',(#761,#762,#763,#764,#765));
#166=EDGE_LOOP('',(#766));
#167=EDGE_LOOP('',(#767));
#168=EDGE_LOOP('',(#768,#769,#770,#771));
#169=EDGE_LOOP('',(#772));
#170=LINE('',#1178,#257);
#171=LINE('',#1180,#258);
#172=LINE('',#1182,#259);
#173=LINE('',#1183,#260);
#174=LINE('',#1186,#261);
#175=LINE('',#1188,#262);
#176=LINE('',#1190,#263);
#177=LINE('',#1191,#264);
#178=LINE('',#1194,#265);
#179=LINE('',#1196,#266);
#180=LINE('',#1197,#267);
#181=LINE('',#1200,#268);
#182=LINE('',#1202,#269);
#183=LINE('',#1203,#270);
#184=LINE('',#1205,#271);
#185=LINE('',#1207,#272);
#186=LINE('',#1210,#273);
#187=LINE('',#1214,#274);
#188=LINE('',#1216,#275);
#189=LINE('',#1220,#276);
#190=LINE('',#1224,#277);
#191=LINE('',#1226,#278);
#192=LINE('',#1229,#279);
#193=LINE('',#1236,#280);
#194=LINE('',#1238,#281);
#195=LINE('',#1240,#282);
#196=LINE('',#1242,#283);
#197=LINE('',#1244,#284);
#198=LINE('',#1246,#285);
#199=LINE('',#1248,#286);
#200=LINE('',#1250,#287);
#201=LINE('',#1252,#288);
#202=LINE('',#1253,#289);
#203=LINE('',#1256,#290);
#204=LINE('',#1257,#291);
#205=LINE('',#1260,#292);
#206=LINE('',#1262,#293);
#207=LINE('',#1264,#294);
#208=LINE('',#1266,#295);
#209=LINE('',#1268,#296);
#210=LINE('',#1270,#297);
#211=LINE('',#1272,#298);
#212=LINE('',#1274,#299);
#213=LINE('',#1275,#300);
#214=LINE('',#1280,#301);
#215=LINE('',#1283,#302);
#216=LINE('',#1284,#303);
#217=LINE('',#1287,#304);
#218=LINE('',#1288,#305);
#219=LINE('',#1292,#306);
#220=LINE('',#1295,#307);
#221=LINE('',#1296,#308);
#222=LINE('',#1300,#309);
#223=LINE('',#1303,#310);
#224=LINE('',#1304,#311);
#225=LINE('',#1307,#312);
#226=LINE('',#1308,#313);
#227=LINE('',#1313,#314);
#228=LINE('',#1317,#315);
#229=LINE('',#1320,#316);
#230=LINE('',#1322,#317);
#231=LINE('',#1324,#318);
#232=LINE('',#1328,#319);
#233=LINE('',#1333,#320);
#234=LINE('',#1335,#321);
#235=LINE('',#1339,#322);
#236=LINE('',#1343,#323);
#237=LINE('',#1345,#324);
#238=LINE('',#1354,#325);
#239=LINE('',#1356,#326);
#240=LINE('',#1358,#327);
#241=LINE('',#1360,#328);
#242=LINE('',#1364,#329);
#243=LINE('',#1368,#330);
#244=LINE('',#1370,#331);
#245=LINE('',#1378,#332);
#246=LINE('',#1384,#333);
#247=LINE('',#1386,#334);
#248=LINE('',#1388,#335);
#249=LINE('',#1390,#336);
#250=LINE('',#1392,#337);
#251=LINE('',#1394,#338);
#252=LINE('',#1396,#339);
#253=LINE('',#1399,#340);
#254=LINE('',#1401,#341);
#255=LINE('',#1404,#342);
#256=LINE('',#1412,#343);
#257=VECTOR('',#941,1.);
#258=VECTOR('',#942,1.);
#259=VECTOR('',#943,1.);
#260=VECTOR('',#944,1.);
#261=VECTOR('',#945,1.);
#262=VECTOR('',#946,1.);
#263=VECTOR('',#947,1.);
#264=VECTOR('',#948,1.);
#265=VECTOR('',#951,1.);
#266=VECTOR('',#952,1.);
#267=VECTOR('',#953,1.);
#268=VECTOR('',#956,1.);
#269=VECTOR('',#957,1.);
#270=VECTOR('',#958,1.);
#271=VECTOR('',#961,1.);
#272=VECTOR('',#964,1.);
#273=VECTOR('',#967,1.);
#274=VECTOR('',#970,1.);
#275=VECTOR('',#971,1.);
#276=VECTOR('',#974,1.);
#277=VECTOR('',#977,1.);
#278=VECTOR('',#978,1.);
#279=VECTOR('',#981,1.);
#280=VECTOR('',#988,1.);
#281=VECTOR('',#989,1.);
#282=VECTOR('',#990,1.);
#283=VECTOR('',#991,1.);
#284=VECTOR('',#992,1.);
#285=VECTOR('',#993,1.);
#286=VECTOR('',#994,1.);
#287=VECTOR('',#995,1.);
#288=VECTOR('',#996,1.);
#289=VECTOR('',#997,1.);
#290=VECTOR('',#1000,1.);
#291=VECTOR('',#1001,1.);
#292=VECTOR('',#1004,1.);
#293=VECTOR('',#1005,1.);
#294=VECTOR('',#1006,1.);
#295=VECTOR('',#1007,1.);
#296=VECTOR('',#1008,1.);
#297=VECTOR('',#1009,1.);
#298=VECTOR('',#1010,1.);
#299=VECTOR('',#1011,1.);
#300=VECTOR('',#1012,1.);
#301=VECTOR('',#1019,1.);
#302=VECTOR('',#1022,1.);
#303=VECTOR('',#1023,1.);
#304=VECTOR('',#1026,1.);
#305=VECTOR('',#1027,1.);
#306=VECTOR('',#1032,1.);
#307=VECTOR('',#1035,1.);
#308=VECTOR('',#1036,1.);
#309=VECTOR('',#1041,1.);
#310=VECTOR('',#1044,1.);
#311=VECTOR('',#1045,1.);
#312=VECTOR('',#1048,1.);
#313=VECTOR('',#1049,1.);
#314=VECTOR('',#1056,1.25);
#315=VECTOR('',#1061,1.25);
#316=VECTOR('',#1066,1.);
#317=VECTOR('',#1069,1.);
#318=VECTOR('',#1072,1.);
#319=VECTOR('',#1077,1.);
#320=VECTOR('',#1082,1.);
#321=VECTOR('',#1083,1.);
#322=VECTOR('',#1086,1.);
#323=VECTOR('',#1089,1.);
#324=VECTOR('',#1090,1.);
#325=VECTOR('',#1101,1.);
#326=VECTOR('',#1104,1.);
#327=VECTOR('',#1105,1.);
#328=VECTOR('',#1106,1.);
#329=VECTOR('',#1109,1.);
#330=VECTOR('',#1112,1.);
#331=VECTOR('',#1113,1.);
#332=VECTOR('',#1124,1.);
#333=VECTOR('',#1131,4.25);
#334=VECTOR('',#1134,1.);
#335=VECTOR('',#1137,1.);
#336=VECTOR('',#1140,1.);
#337=VECTOR('',#1143,1.);
#338=VECTOR('',#1146,1.);
#339=VECTOR('',#1149,1.);
#340=VECTOR('',#1154,1.25);
#341=VECTOR('',#1157,1.25);
#342=VECTOR('',#1160,4.125);
#343=VECTOR('',#1171,2.5);
#344=VERTEX_POINT('',#1176);
#345=VERTEX_POINT('',#1177);
#346=VERTEX_POINT('',#1179);
#347=VERTEX_POINT('',#1181);
#348=VERTEX_POINT('',#1184);
#349=VERTEX_POINT('',#1185);
#350=VERTEX_POINT('',#1187);
#351=VERTEX_POINT('',#1189);
#352=VERTEX_POINT('',#1193);
#353=VERTEX_POINT('',#1195);
#354=VERTEX_POINT('',#1199);
#355=VERTEX_POINT('',#1201);
#356=VERTEX_POINT('',#1209);
#357=VERTEX_POINT('',#1211);
#358=VERTEX_POINT('',#1213);
#359=VERTEX_POINT('',#1215);
#360=VERTEX_POINT('',#1217);
#361=VERTEX_POINT('',#1219);
#362=VERTEX_POINT('',#1221);
#363=VERTEX_POINT('',#1223);
#364=VERTEX_POINT('',#1225);
#365=VERTEX_POINT('',#1227);
#366=VERTEX_POINT('',#1230);
#367=VERTEX_POINT('',#1232);
#368=VERTEX_POINT('',#1235);
#369=VERTEX_POINT('',#1237);
#370=VERTEX_POINT('',#1239);
#371=VERTEX_POINT('',#1241);
#372=VERTEX_POINT('',#1243);
#373=VERTEX_POINT('',#1245);
#374=VERTEX_POINT('',#1247);
#375=VERTEX_POINT('',#1249);
#376=VERTEX_POINT('',#1251);
#377=VERTEX_POINT('',#1255);
#378=VERTEX_POINT('',#1259);
#379=VERTEX_POINT('',#1261);
#380=VERTEX_POINT('',#1263);
#381=VERTEX_POINT('',#1265);
#382=VERTEX_POINT('',#1267);
#383=VERTEX_POINT('',#1269);
#384=VERTEX_POINT('',#1271);
#385=VERTEX_POINT('',#1273);
#386=VERTEX_POINT('',#1278);
#387=VERTEX_POINT('',#1282);
#388=VERTEX_POINT('',#1286);
#389=VERTEX_POINT('',#1290);
#390=VERTEX_POINT('',#1294);
#391=VERTEX_POINT('',#1298);
#392=VERTEX_POINT('',#1302);
#393=VERTEX_POINT('',#1306);
#394=VERTEX_POINT('',#1312);
#395=VERTEX_POINT('',#1316);
#396=VERTEX_POINT('',#1325);
#397=VERTEX_POINT('',#1330);
#398=VERTEX_POINT('',#1332);
#399=VERTEX_POINT('',#1334);
#400=VERTEX_POINT('',#1336);
#401=VERTEX_POINT('',#1338);
#402=VERTEX_POINT('',#1340);
#403=VERTEX_POINT('',#1342);
#404=VERTEX_POINT('',#1344);
#405=VERTEX_POINT('',#1347);
#406=VERTEX_POINT('',#1349);
#407=VERTEX_POINT('',#1352);
#408=VERTEX_POINT('',#1357);
#409=VERTEX_POINT('',#1359);
#410=VERTEX_POINT('',#1361);
#411=VERTEX_POINT('',#1363);
#412=VERTEX_POINT('',#1365);
#413=VERTEX_POINT('',#1367);
#414=VERTEX_POINT('',#1369);
#415=VERTEX_POINT('',#1372);
#416=VERTEX_POINT('',#1374);
#417=VERTEX_POINT('',#1380);
#418=VERTEX_POINT('',#1381);
#419=VERTEX_POINT('',#1403);
#420=VERTEX_POINT('',#1407);
#421=VERTEX_POINT('',#1410);
#422=EDGE_CURVE('',#344,#345,#170,.F.);
#423=EDGE_CURVE('',#346,#344,#171,.T.);
#424=EDGE_CURVE('',#346,#347,#172,.T.);
#425=EDGE_CURVE('',#347,#345,#173,.T.);
#426=EDGE_CURVE('',#348,#349,#174,.T.);
#427=EDGE_CURVE('',#350,#348,#175,.T.);
#428=EDGE_CURVE('',#351,#350,#176,.T.);
#429=EDGE_CURVE('',#349,#351,#177,.F.);
#430=EDGE_CURVE('',#352,#351,#178,.T.);
#431=EDGE_CURVE('',#353,#352,#179,.T.);
#432=EDGE_CURVE('',#349,#353,#180,.T.);
#433=EDGE_CURVE('',#348,#354,#181,.T.);
#434=EDGE_CURVE('',#354,#355,#182,.T.);
#435=EDGE_CURVE('',#355,#350,#183,.T.);
#436=EDGE_CURVE('',#352,#355,#184,.T.);
#437=EDGE_CURVE('',#353,#354,#185,.T.);
#438=EDGE_CURVE('',#356,#345,#186,.T.);
#439=EDGE_CURVE('',#357,#356,#30,.T.);
#440=EDGE_CURVE('',#358,#357,#187,.T.);
#441=EDGE_CURVE('',#359,#358,#188,.T.);
#442=EDGE_CURVE('',#360,#359,#31,.T.);
#443=EDGE_CURVE('',#361,#360,#189,.T.);
#444=EDGE_CURVE('',#362,#361,#32,.T.);
#445=EDGE_CURVE('',#363,#362,#190,.T.);
#446=EDGE_CURVE('',#364,#363,#191,.T.);
#447=EDGE_CURVE('',#365,#364,#33,.T.);
#448=EDGE_CURVE('',#344,#365,#192,.T.);
#449=EDGE_CURVE('',#366,#366,#34,.T.);
#450=EDGE_CURVE('',#367,#367,#35,.T.);
#451=EDGE_CURVE('',#368,#346,#193,.T.);
#452=EDGE_CURVE('',#365,#369,#194,.T.);
#453=EDGE_CURVE('',#370,#369,#195,.T.);
#454=EDGE_CURVE('',#370,#371,#196,.T.);
#455=EDGE_CURVE('',#372,#371,#197,.T.);
#456=EDGE_CURVE('',#373,#372,#198,.T.);
#457=EDGE_CURVE('',#374,#373,#199,.T.);
#458=EDGE_CURVE('',#375,#374,#200,.T.);
#459=EDGE_CURVE('',#375,#376,#201,.T.);
#460=EDGE_CURVE('',#368,#376,#202,.T.);
#461=EDGE_CURVE('',#347,#377,#203,.T.);
#462=EDGE_CURVE('',#377,#368,#204,.T.);
#463=EDGE_CURVE('',#377,#378,#205,.T.);
#464=EDGE_CURVE('',#378,#379,#206,.T.);
#465=EDGE_CURVE('',#379,#380,#207,.T.);
#466=EDGE_CURVE('',#381,#380,#208,.T.);
#467=EDGE_CURVE('',#381,#382,#209,.T.);
#468=EDGE_CURVE('',#383,#382,#210,.T.);
#469=EDGE_CURVE('',#384,#383,#211,.T.);
#470=EDGE_CURVE('',#385,#384,#212,.T.);
#471=EDGE_CURVE('',#356,#385,#213,.T.);
#472=EDGE_CURVE('',#386,#385,#36,.T.);
#473=EDGE_CURVE('',#357,#386,#214,.T.);
#474=EDGE_CURVE('',#387,#386,#215,.T.);
#475=EDGE_CURVE('',#358,#387,#216,.T.);
#476=EDGE_CURVE('',#388,#387,#217,.T.);
#477=EDGE_CURVE('',#359,#388,#218,.T.);
#478=EDGE_CURVE('',#389,#388,#37,.T.);
#479=EDGE_CURVE('',#360,#389,#219,.T.);
#480=EDGE_CURVE('',#390,#389,#220,.T.);
#481=EDGE_CURVE('',#361,#390,#221,.T.);
#482=EDGE_CURVE('',#391,#390,#38,.T.);
#483=EDGE_CURVE('',#362,#391,#222,.T.);
#484=EDGE_CURVE('',#392,#391,#223,.T.);
#485=EDGE_CURVE('',#363,#392,#224,.T.);
#486=EDGE_CURVE('',#393,#392,#225,.T.);
#487=EDGE_CURVE('',#364,#393,#226,.T.);
#488=EDGE_CURVE('',#369,#393,#39,.T.);
#489=EDGE_CURVE('',#366,#394,#227,.T.);
#490=EDGE_CURVE('',#394,#394,#40,.F.);
#491=EDGE_CURVE('',#367,#395,#228,.T.);
#492=EDGE_CURVE('',#395,#395,#41,.F.);
#493=EDGE_CURVE('',#384,#370,#229,.T.);
#494=EDGE_CURVE('',#371,#383,#230,.T.);
#495=EDGE_CURVE('',#382,#372,#231,.T.);
#496=EDGE_CURVE('',#396,#396,#42,.T.);
#497=EDGE_CURVE('',#373,#381,#232,.T.);
#498=EDGE_CURVE('',#380,#397,#43,.T.);
#499=EDGE_CURVE('',#397,#398,#233,.T.);
#500=EDGE_CURVE('',#398,#399,#234,.T.);
#501=EDGE_CURVE('',#399,#400,#44,.T.);
#502=EDGE_CURVE('',#400,#401,#235,.T.);
#503=EDGE_CURVE('',#401,#402,#45,.T.);
#504=EDGE_CURVE('',#402,#403,#236,.T.);
#505=EDGE_CURVE('',#403,#404,#237,.T.);
#506=EDGE_CURVE('',#404,#374,#46,.T.);
#507=EDGE_CURVE('',#405,#405,#47,.F.);
#508=EDGE_CURVE('',#406,#406,#48,.F.);
#509=EDGE_CURVE('',#407,#375,#49,.T.);
#510=EDGE_CURVE('',#407,#404,#238,.T.);
#511=EDGE_CURVE('',#378,#376,#239,.F.);
#512=EDGE_CURVE('',#408,#407,#240,.T.);
#513=EDGE_CURVE('',#409,#408,#241,.T.);
#514=EDGE_CURVE('',#410,#409,#50,.T.);
#515=EDGE_CURVE('',#411,#410,#242,.T.);
#516=EDGE_CURVE('',#412,#411,#51,.T.);
#517=EDGE_CURVE('',#413,#412,#243,.T.);
#518=EDGE_CURVE('',#414,#413,#244,.T.);
#519=EDGE_CURVE('',#379,#414,#52,.T.);
#520=EDGE_CURVE('',#415,#415,#53,.T.);
#521=EDGE_CURVE('',#416,#416,#54,.T.);
#522=EDGE_CURVE('',#414,#397,#245,.T.);
#523=EDGE_CURVE('',#417,#418,#55,.T.);
#524=EDGE_CURVE('',#418,#417,#56,.T.);
#525=EDGE_CURVE('',#418,#396,#246,.T.);
#526=EDGE_CURVE('',#413,#398,#247,.T.);
#527=EDGE_CURVE('',#412,#399,#248,.T.);
#528=EDGE_CURVE('',#411,#400,#249,.T.);
#529=EDGE_CURVE('',#410,#401,#250,.T.);
#530=EDGE_CURVE('',#409,#402,#251,.T.);
#531=EDGE_CURVE('',#408,#403,#252,.T.);
#532=EDGE_CURVE('',#415,#405,#253,.T.);
#533=EDGE_CURVE('',#416,#406,#254,.T.);
#534=EDGE_CURVE('',#417,#419,#255,.T.);
#535=EDGE_CURVE('',#419,#419,#57,.T.);
#536=EDGE_CURVE('',#420,#420,#58,.T.);
#537=EDGE_CURVE('',#421,#421,#59,.T.);
#538=EDGE_CURVE('',#421,#420,#256,.T.);
#539=ORIENTED_EDGE('',*,*,#422,.F.);
#540=ORIENTED_EDGE('',*,*,#423,.F.);
#541=ORIENTED_EDGE('',*,*,#424,.T.);
#542=ORIENTED_EDGE('',*,*,#425,.T.);
#543=ORIENTED_EDGE('',*,*,#426,.F.);
#544=ORIENTED_EDGE('',*,*,#427,.F.);
#545=ORIENTED_EDGE('',*,*,#428,.F.);
#546=ORIENTED_EDGE('',*,*,#429,.F.);
#547=ORIENTED_EDGE('',*,*,#429,.T.);
#548=ORIENTED_EDGE('',*,*,#430,.F.);
#549=ORIENTED_EDGE('',*,*,#431,.F.);
#550=ORIENTED_EDGE('',*,*,#432,.F.);
#551=ORIENTED_EDGE('',*,*,#427,.T.);
#552=ORIENTED_EDGE('',*,*,#433,.T.);
#553=ORIENTED_EDGE('',*,*,#434,.T.);
#554=ORIENTED_EDGE('',*,*,#435,.T.);
#555=ORIENTED_EDGE('',*,*,#428,.T.);
#556=ORIENTED_EDGE('',*,*,#435,.F.);
#557=ORIENTED_EDGE('',*,*,#436,.F.);
#558=ORIENTED_EDGE('',*,*,#430,.T.);
#559=ORIENTED_EDGE('',*,*,#426,.T.);
#560=ORIENTED_EDGE('',*,*,#432,.T.);
#561=ORIENTED_EDGE('',*,*,#437,.T.);
#562=ORIENTED_EDGE('',*,*,#433,.F.);
#563=ORIENTED_EDGE('',*,*,#422,.T.);
#564=ORIENTED_EDGE('',*,*,#438,.F.);
#565=ORIENTED_EDGE('',*,*,#439,.F.);
#566=ORIENTED_EDGE('',*,*,#440,.F.);
#567=ORIENTED_EDGE('',*,*,#441,.F.);
#568=ORIENTED_EDGE('',*,*,#442,.F.);
#569=ORIENTED_EDGE('',*,*,#443,.F.);
#570=ORIENTED_EDGE('',*,*,#444,.F.);
#571=ORIENTED_EDGE('',*,*,#445,.F.);
#572=ORIENTED_EDGE('',*,*,#446,.F.);
#573=ORIENTED_EDGE('',*,*,#447,.F.);
#574=ORIENTED_EDGE('',*,*,#448,.F.);
#575=ORIENTED_EDGE('',*,*,#449,.T.);
#576=ORIENTED_EDGE('',*,*,#450,.T.);
#577=ORIENTED_EDGE('',*,*,#451,.T.);
#578=ORIENTED_EDGE('',*,*,#423,.T.);
#579=ORIENTED_EDGE('',*,*,#448,.T.);
#580=ORIENTED_EDGE('',*,*,#452,.T.);
#581=ORIENTED_EDGE('',*,*,#453,.F.);
#582=ORIENTED_EDGE('',*,*,#454,.T.);
#583=ORIENTED_EDGE('',*,*,#455,.F.);
#584=ORIENTED_EDGE('',*,*,#456,.F.);
#585=ORIENTED_EDGE('',*,*,#457,.F.);
#586=ORIENTED_EDGE('',*,*,#458,.F.);
#587=ORIENTED_EDGE('',*,*,#459,.T.);
#588=ORIENTED_EDGE('',*,*,#460,.F.);
#589=ORIENTED_EDGE('',*,*,#461,.F.);
#590=ORIENTED_EDGE('',*,*,#424,.F.);
#591=ORIENTED_EDGE('',*,*,#451,.F.);
#592=ORIENTED_EDGE('',*,*,#462,.F.);
#593=ORIENTED_EDGE('',*,*,#461,.T.);
#594=ORIENTED_EDGE('',*,*,#463,.T.);
#595=ORIENTED_EDGE('',*,*,#464,.T.);
#596=ORIENTED_EDGE('',*,*,#465,.T.);
#597=ORIENTED_EDGE('',*,*,#466,.F.);
#598=ORIENTED_EDGE('',*,*,#467,.T.);
#599=ORIENTED_EDGE('',*,*,#468,.F.);
#600=ORIENTED_EDGE('',*,*,#469,.F.);
#601=ORIENTED_EDGE('',*,*,#470,.F.);
#602=ORIENTED_EDGE('',*,*,#471,.F.);
#603=ORIENTED_EDGE('',*,*,#438,.T.);
#604=ORIENTED_EDGE('',*,*,#425,.F.);
#605=ORIENTED_EDGE('',*,*,#431,.T.);
#606=ORIENTED_EDGE('',*,*,#436,.T.);
#607=ORIENTED_EDGE('',*,*,#434,.F.);
#608=ORIENTED_EDGE('',*,*,#437,.F.);
#609=ORIENTED_EDGE('',*,*,#439,.T.);
#610=ORIENTED_EDGE('',*,*,#471,.T.);
#611=ORIENTED_EDGE('',*,*,#472,.F.);
#612=ORIENTED_EDGE('',*,*,#473,.F.);
#613=ORIENTED_EDGE('',*,*,#440,.T.);
#614=ORIENTED_EDGE('',*,*,#473,.T.);
#615=ORIENTED_EDGE('',*,*,#474,.F.);
#616=ORIENTED_EDGE('',*,*,#475,.F.);
#617=ORIENTED_EDGE('',*,*,#441,.T.);
#618=ORIENTED_EDGE('',*,*,#475,.T.);
#619=ORIENTED_EDGE('',*,*,#476,.F.);
#620=ORIENTED_EDGE('',*,*,#477,.F.);
#621=ORIENTED_EDGE('',*,*,#442,.T.);
#622=ORIENTED_EDGE('',*,*,#477,.T.);
#623=ORIENTED_EDGE('',*,*,#478,.F.);
#624=ORIENTED_EDGE('',*,*,#479,.F.);
#625=ORIENTED_EDGE('',*,*,#443,.T.);
#626=ORIENTED_EDGE('',*,*,#479,.T.);
#627=ORIENTED_EDGE('',*,*,#480,.F.);
#628=ORIENTED_EDGE('',*,*,#481,.F.);
#629=ORIENTED_EDGE('',*,*,#444,.T.);
#630=ORIENTED_EDGE('',*,*,#481,.T.);
#631=ORIENTED_EDGE('',*,*,#482,.F.);
#632=ORIENTED_EDGE('',*,*,#483,.F.);
#633=ORIENTED_EDGE('',*,*,#445,.T.);
#634=ORIENTED_EDGE('',*,*,#483,.T.);
#635=ORIENTED_EDGE('',*,*,#484,.F.);
#636=ORIENTED_EDGE('',*,*,#485,.F.);
#637=ORIENTED_EDGE('',*,*,#446,.T.);
#638=ORIENTED_EDGE('',*,*,#485,.T.);
#639=ORIENTED_EDGE('',*,*,#486,.F.);
#640=ORIENTED_EDGE('',*,*,#487,.F.);
#641=ORIENTED_EDGE('',*,*,#447,.T.);
#642=ORIENTED_EDGE('',*,*,#487,.T.);
#643=ORIENTED_EDGE('',*,*,#488,.F.);
#644=ORIENTED_EDGE('',*,*,#452,.F.);
#645=ORIENTED_EDGE('',*,*,#449,.F.);
#646=ORIENTED_EDGE('',*,*,#489,.T.);
#647=ORIENTED_EDGE('',*,*,#490,.F.);
#648=ORIENTED_EDGE('',*,*,#489,.F.);
#649=ORIENTED_EDGE('',*,*,#450,.F.);
#650=ORIENTED_EDGE('',*,*,#491,.T.);
#651=ORIENTED_EDGE('',*,*,#492,.F.);
#652=ORIENTED_EDGE('',*,*,#491,.F.);
#653=ORIENTED_EDGE('',*,*,#493,.T.);
#654=ORIENTED_EDGE('',*,*,#453,.T.);
#655=ORIENTED_EDGE('',*,*,#488,.T.);
#656=ORIENTED_EDGE('',*,*,#486,.T.);
#657=ORIENTED_EDGE('',*,*,#484,.T.);
#658=ORIENTED_EDGE('',*,*,#482,.T.);
#659=ORIENTED_EDGE('',*,*,#480,.T.);
#660=ORIENTED_EDGE('',*,*,#478,.T.);
#661=ORIENTED_EDGE('',*,*,#476,.T.);
#662=ORIENTED_EDGE('',*,*,#474,.T.);
#663=ORIENTED_EDGE('',*,*,#472,.T.);
#664=ORIENTED_EDGE('',*,*,#470,.T.);
#665=ORIENTED_EDGE('',*,*,#490,.T.);
#666=ORIENTED_EDGE('',*,*,#492,.T.);
#667=ORIENTED_EDGE('',*,*,#493,.F.);
#668=ORIENTED_EDGE('',*,*,#469,.T.);
#669=ORIENTED_EDGE('',*,*,#494,.F.);
#670=ORIENTED_EDGE('',*,*,#454,.F.);
#671=ORIENTED_EDGE('',*,*,#495,.T.);
#672=ORIENTED_EDGE('',*,*,#455,.T.);
#673=ORIENTED_EDGE('',*,*,#494,.T.);
#674=ORIENTED_EDGE('',*,*,#468,.T.);
#675=ORIENTED_EDGE('',*,*,#496,.F.);
#676=ORIENTED_EDGE('',*,*,#497,.F.);
#677=ORIENTED_EDGE('',*,*,#456,.T.);
#678=ORIENTED_EDGE('',*,*,#495,.F.);
#679=ORIENTED_EDGE('',*,*,#467,.F.);
#680=ORIENTED_EDGE('',*,*,#497,.T.);
#681=ORIENTED_EDGE('',*,*,#466,.T.);
#682=ORIENTED_EDGE('',*,*,#498,.T.);
#683=ORIENTED_EDGE('',*,*,#499,.T.);
#684=ORIENTED_EDGE('',*,*,#500,.T.);
#685=ORIENTED_EDGE('',*,*,#501,.T.);
#686=ORIENTED_EDGE('',*,*,#502,.T.);
#687=ORIENTED_EDGE('',*,*,#503,.T.);
#688=ORIENTED_EDGE('',*,*,#504,.T.);
#689=ORIENTED_EDGE('',*,*,#505,.T.);
#690=ORIENTED_EDGE('',*,*,#506,.T.);
#691=ORIENTED_EDGE('',*,*,#457,.T.);
#692=ORIENTED_EDGE('',*,*,#507,.T.);
#693=ORIENTED_EDGE('',*,*,#508,.T.);
#694=ORIENTED_EDGE('',*,*,#509,.T.);
#695=ORIENTED_EDGE('',*,*,#458,.T.);
#696=ORIENTED_EDGE('',*,*,#506,.F.);
#697=ORIENTED_EDGE('',*,*,#510,.F.);
#698=ORIENTED_EDGE('',*,*,#511,.T.);
#699=ORIENTED_EDGE('',*,*,#459,.F.);
#700=ORIENTED_EDGE('',*,*,#509,.F.);
#701=ORIENTED_EDGE('',*,*,#512,.F.);
#702=ORIENTED_EDGE('',*,*,#513,.F.);
#703=ORIENTED_EDGE('',*,*,#514,.F.);
#704=ORIENTED_EDGE('',*,*,#515,.F.);
#705=ORIENTED_EDGE('',*,*,#516,.F.);
#706=ORIENTED_EDGE('',*,*,#517,.F.);
#707=ORIENTED_EDGE('',*,*,#518,.F.);
#708=ORIENTED_EDGE('',*,*,#519,.F.);
#709=ORIENTED_EDGE('',*,*,#464,.F.);
#710=ORIENTED_EDGE('',*,*,#520,.T.);
#711=ORIENTED_EDGE('',*,*,#521,.T.);
#712=ORIENTED_EDGE('',*,*,#511,.F.);
#713=ORIENTED_EDGE('',*,*,#463,.F.);
#714=ORIENTED_EDGE('',*,*,#462,.T.);
#715=ORIENTED_EDGE('',*,*,#460,.T.);
#716=ORIENTED_EDGE('',*,*,#519,.T.);
#717=ORIENTED_EDGE('',*,*,#522,.T.);
#718=ORIENTED_EDGE('',*,*,#498,.F.);
#719=ORIENTED_EDGE('',*,*,#465,.F.);
#720=ORIENTED_EDGE('',*,*,#523,.F.);
#721=ORIENTED_EDGE('',*,*,#524,.F.);
#722=ORIENTED_EDGE('',*,*,#525,.T.);
#723=ORIENTED_EDGE('',*,*,#496,.T.);
#724=ORIENTED_EDGE('',*,*,#525,.F.);
#725=ORIENTED_EDGE('',*,*,#518,.T.);
#726=ORIENTED_EDGE('',*,*,#526,.T.);
#727=ORIENTED_EDGE('',*,*,#499,.F.);
#728=ORIENTED_EDGE('',*,*,#522,.F.);
#729=ORIENTED_EDGE('',*,*,#517,.T.);
#730=ORIENTED_EDGE('',*,*,#527,.T.);
#731=ORIENTED_EDGE('',*,*,#500,.F.);
#732=ORIENTED_EDGE('',*,*,#526,.F.);
#733=ORIENTED_EDGE('',*,*,#516,.T.);
#734=ORIENTED_EDGE('',*,*,#528,.T.);
#735=ORIENTED_EDGE('',*,*,#501,.F.);
#736=ORIENTED_EDGE('',*,*,#527,.F.);
#737=ORIENTED_EDGE('',*,*,#515,.T.);
#738=ORIENTED_EDGE('',*,*,#529,.T.);
#739=ORIENTED_EDGE('',*,*,#502,.F.);
#740=ORIENTED_EDGE('',*,*,#528,.F.);
#741=ORIENTED_EDGE('',*,*,#514,.T.);
#742=ORIENTED_EDGE('',*,*,#530,.T.);
#743=ORIENTED_EDGE('',*,*,#503,.F.);
#744=ORIENTED_EDGE('',*,*,#529,.F.);
#745=ORIENTED_EDGE('',*,*,#513,.T.);
#746=ORIENTED_EDGE('',*,*,#531,.T.);
#747=ORIENTED_EDGE('',*,*,#504,.F.);
#748=ORIENTED_EDGE('',*,*,#530,.F.);
#749=ORIENTED_EDGE('',*,*,#512,.T.);
#750=ORIENTED_EDGE('',*,*,#510,.T.);
#751=ORIENTED_EDGE('',*,*,#505,.F.);
#752=ORIENTED_EDGE('',*,*,#531,.F.);
#753=ORIENTED_EDGE('',*,*,#520,.F.);
#754=ORIENTED_EDGE('',*,*,#532,.T.);
#755=ORIENTED_EDGE('',*,*,#507,.F.);
#756=ORIENTED_EDGE('',*,*,#532,.F.);
#757=ORIENTED_EDGE('',*,*,#521,.F.);
#758=ORIENTED_EDGE('',*,*,#533,.T.);
#759=ORIENTED_EDGE('',*,*,#508,.F.);
#760=ORIENTED_EDGE('',*,*,#533,.F.);
#761=ORIENTED_EDGE('',*,*,#523,.T.);
#762=ORIENTED_EDGE('',*,*,#524,.T.);
#763=ORIENTED_EDGE('',*,*,#534,.T.);
#764=ORIENTED_EDGE('',*,*,#535,.F.);
#765=ORIENTED_EDGE('',*,*,#534,.F.);
#766=ORIENTED_EDGE('',*,*,#535,.T.);
#767=ORIENTED_EDGE('',*,*,#536,.F.);
#768=ORIENTED_EDGE('',*,*,#537,.F.);
#769=ORIENTED_EDGE('',*,*,#538,.T.);
#770=ORIENTED_EDGE('',*,*,#536,.T.);
#771=ORIENTED_EDGE('',*,*,#538,.F.);
#772=ORIENTED_EDGE('',*,*,#537,.T.);
#773=PLANE('',#863);
#774=PLANE('',#864);
#775=PLANE('',#865);
#776=PLANE('',#866);
#777=PLANE('',#867);
#778=PLANE('',#868);
#779=PLANE('',#875);
#780=PLANE('',#876);
#781=PLANE('',#877);
#782=PLANE('',#878);
#783=PLANE('',#881);
#784=PLANE('',#882);
#785=PLANE('',#885);
#786=PLANE('',#888);
#787=PLANE('',#889);
#788=PLANE('',#896);
#789=PLANE('',#897);
#790=PLANE('',#898);
#791=PLANE('',#900);
#792=PLANE('',#901);
#793=PLANE('',#910);
#794=PLANE('',#916);
#795=PLANE('',#921);
#796=PLANE('',#922);
#797=PLANE('',#924);
#798=PLANE('',#926);
#799=PLANE('',#927);
#800=PLANE('',#932);
#801=PLANE('',#936);
#802=ADVANCED_FACE('',(#71,#60),#773,.T.);
#803=ADVANCED_FACE('',(#72),#774,.F.);
#804=ADVANCED_FACE('',(#73),#775,.T.);
#805=ADVANCED_FACE('',(#74),#776,.T.);
#806=ADVANCED_FACE('',(#75),#777,.T.);
#807=ADVANCED_FACE('',(#76,#61,#62),#778,.F.);
#808=ADVANCED_FACE('',(#77),#779,.T.);
#809=ADVANCED_FACE('',(#78),#780,.F.);
#810=ADVANCED_FACE('',(#79),#781,.T.);
#811=ADVANCED_FACE('',(#80),#782,.T.);
#812=ADVANCED_FACE('',(#81),#16,.T.);
#813=ADVANCED_FACE('',(#82),#783,.T.);
#814=ADVANCED_FACE('',(#83),#784,.T.);
#815=ADVANCED_FACE('',(#84),#17,.F.);
#816=ADVANCED_FACE('',(#85),#785,.T.);
#817=ADVANCED_FACE('',(#86),#18,.F.);
#818=ADVANCED_FACE('',(#87),#786,.T.);
#819=ADVANCED_FACE('',(#88),#787,.T.);
#820=ADVANCED_FACE('',(#89),#19,.T.);
#821=ADVANCED_FACE('',(#90),#20,.F.);
#822=ADVANCED_FACE('',(#91),#21,.F.);
#823=ADVANCED_FACE('',(#92,#63,#64),#788,.T.);
#824=ADVANCED_FACE('',(#93),#789,.T.);
#825=ADVANCED_FACE('',(#94,#65),#790,.T.);
#826=ADVANCED_FACE('',(#95),#791,.T.);
#827=ADVANCED_FACE('',(#96,#66,#67),#792,.T.);
#828=ADVANCED_FACE('',(#97),#22,.T.);
#829=ADVANCED_FACE('',(#98,#68,#69),#793,.F.);
#830=ADVANCED_FACE('',(#99),#794,.T.);
#831=ADVANCED_FACE('',(#100),#23,.T.);
#832=ADVANCED_FACE('',(#101),#24,.T.);
#833=ADVANCED_FACE('',(#102),#795,.T.);
#834=ADVANCED_FACE('',(#103),#796,.T.);
#835=ADVANCED_FACE('',(#104),#25,.F.);
#836=ADVANCED_FACE('',(#105),#797,.T.);
#837=ADVANCED_FACE('',(#106),#26,.F.);
#838=ADVANCED_FACE('',(#107),#798,.T.);
#839=ADVANCED_FACE('',(#108),#799,.T.);
#840=ADVANCED_FACE('',(#109),#27,.F.);
#841=ADVANCED_FACE('',(#110),#28,.F.);
#842=ADVANCED_FACE('',(#111),#15,.T.);
#843=ADVANCED_FACE('',(#112,#70),#800,.T.);
#844=ADVANCED_FACE('',(#113),#29,.T.);
#845=ADVANCED_FACE('',(#114),#801,.T.);
#846=CLOSED_SHELL('',(#802,#803,#804,#805,#806,#807,#808,#809,#810,#811,
#812,#813,#814,#815,#816,#817,#818,#819,#820,#821,#822,#823,#824,#825,#826,
#827,#828,#829,#830,#831,#832,#833,#834,#835,#836,#837,#838,#839,#840,#841,
#842,#843,#844,#845));
#847=DERIVED_UNIT_ELEMENT(#850,1.);
#848=DERIVED_UNIT_ELEMENT(#1419,-3.);
#849=DIMENSIONAL_EXPONENTS(0.,1.,0.,0.,0.,0.,0.);
#850=(
CONVERSION_BASED_UNIT('gram',#852)
MASS_UNIT()
NAMED_UNIT(#849)
);
#851=(
MASS_UNIT()
NAMED_UNIT(*)
SI_UNIT(.KILO.,.GRAM.)
);
#852=MASS_MEASURE_WITH_UNIT(MASS_MEASURE(0.001),#851);
#853=DERIVED_UNIT((#847,#848));
#854=MEASURE_REPRESENTATION_ITEM('density measure',
POSITIVE_RATIO_MEASURE(1.),#853);
#855=PROPERTY_DEFINITION_REPRESENTATION(#860,#857);
#856=PROPERTY_DEFINITION_REPRESENTATION(#861,#858);
#857=REPRESENTATION('material name',(#859),#1416);
#858=REPRESENTATION('density',(#854),#1416);
#859=DESCRIPTIVE_REPRESENTATION_ITEM('\X2\04220438043F043E0432044B0435\X0\',
'\X2\04220438043F043E0432044B0435\X0\');
#860=PROPERTY_DEFINITION('material property','material name',#1426);
#861=PROPERTY_DEFINITION('material property','density of part',#1426);
#862=AXIS2_PLACEMENT_3D('',#1174,#937,#938);
#863=AXIS2_PLACEMENT_3D('',#1175,#939,#940);
#864=AXIS2_PLACEMENT_3D('',#1192,#949,#950);
#865=AXIS2_PLACEMENT_3D('',#1198,#954,#955);
#866=AXIS2_PLACEMENT_3D('',#1204,#959,#960);
#867=AXIS2_PLACEMENT_3D('',#1206,#962,#963);
#868=AXIS2_PLACEMENT_3D('',#1208,#965,#966);
#869=AXIS2_PLACEMENT_3D('',#1212,#968,#969);
#870=AXIS2_PLACEMENT_3D('',#1218,#972,#973);
#871=AXIS2_PLACEMENT_3D('',#1222,#975,#976);
#872=AXIS2_PLACEMENT_3D('',#1228,#979,#980);
#873=AXIS2_PLACEMENT_3D('',#1231,#982,#983);
#874=AXIS2_PLACEMENT_3D('',#1233,#984,#985);
#875=AXIS2_PLACEMENT_3D('',#1234,#986,#987);
#876=AXIS2_PLACEMENT_3D('',#1254,#998,#999);
#877=AXIS2_PLACEMENT_3D('',#1258,#1002,#1003);
#878=AXIS2_PLACEMENT_3D('',#1276,#1013,#1014);
#879=AXIS2_PLACEMENT_3D('',#1277,#1015,#1016);
#880=AXIS2_PLACEMENT_3D('',#1279,#1017,#1018);
#881=AXIS2_PLACEMENT_3D('',#1281,#1020,#1021);
#882=AXIS2_PLACEMENT_3D('',#1285,#1024,#1025);
#883=AXIS2_PLACEMENT_3D('',#1289,#1028,#1029);
#884=AXIS2_PLACEMENT_3D('',#1291,#1030,#1031);
#885=AXIS2_PLACEMENT_3D('',#1293,#1033,#1034);
#886=AXIS2_PLACEMENT_3D('',#1297,#1037,#1038);
#887=AXIS2_PLACEMENT_3D('',#1299,#1039,#1040);
#888=AXIS2_PLACEMENT_3D('',#1301,#1042,#1043);
#889=AXIS2_PLACEMENT_3D('',#1305,#1046,#1047);
#890=AXIS2_PLACEMENT_3D('',#1309,#1050,#1051);
#891=AXIS2_PLACEMENT_3D('',#1310,#1052,#1053);
#892=AXIS2_PLACEMENT_3D('',#1311,#1054,#1055);
#893=AXIS2_PLACEMENT_3D('',#1314,#1057,#1058);
#894=AXIS2_PLACEMENT_3D('',#1315,#1059,#1060);
#895=AXIS2_PLACEMENT_3D('',#1318,#1062,#1063);
#896=AXIS2_PLACEMENT_3D('',#1319,#1064,#1065);
#897=AXIS2_PLACEMENT_3D('',#1321,#1067,#1068);
#898=AXIS2_PLACEMENT_3D('',#1323,#1070,#1071);
#899=AXIS2_PLACEMENT_3D('',#1326,#1073,#1074);
#900=AXIS2_PLACEMENT_3D('',#1327,#1075,#1076);
#901=AXIS2_PLACEMENT_3D('',#1329,#1078,#1079);
#902=AXIS2_PLACEMENT_3D('',#1331,#1080,#1081);
#903=AXIS2_PLACEMENT_3D('',#1337,#1084,#1085);
#904=AXIS2_PLACEMENT_3D('',#1341,#1087,#1088);
#905=AXIS2_PLACEMENT_3D('',#1346,#1091,#1092);
#906=AXIS2_PLACEMENT_3D('',#1348,#1093,#1094);
#907=AXIS2_PLACEMENT_3D('',#1350,#1095,#1096);
#908=AXIS2_PLACEMENT_3D('',#1351,#1097,#1098);
#909=AXIS2_PLACEMENT_3D('',#1353,#1099,#1100);
#910=AXIS2_PLACEMENT_3D('',#1355,#1102,#1103);
#911=AXIS2_PLACEMENT_3D('',#1362,#1107,#1108);
#912=AXIS2_PLACEMENT_3D('',#1366,#1110,#1111);
#913=AXIS2_PLACEMENT_3D('',#1371,#1114,#1115);
#914=AXIS2_PLACEMENT_3D('',#1373,#1116,#1117);
#915=AXIS2_PLACEMENT_3D('',#1375,#1118,#1119);
#916=AXIS2_PLACEMENT_3D('',#1376,#1120,#1121);
#917=AXIS2_PLACEMENT_3D('',#1377,#1122,#1123);
#918=AXIS2_PLACEMENT_3D('',#1379,#1125,#1126);
#919=AXIS2_PLACEMENT_3D('',#1382,#1127,#1128);
#920=AXIS2_PLACEMENT_3D('',#1383,#1129,#1130);
#921=AXIS2_PLACEMENT_3D('',#1385,#1132,#1133);
#922=AXIS2_PLACEMENT_3D('',#1387,#1135,#1136);
#923=AXIS2_PLACEMENT_3D('',#1389,#1138,#1139);
#924=AXIS2_PLACEMENT_3D('',#1391,#1141,#1142);
#925=AXIS2_PLACEMENT_3D('',#1393,#1144,#1145);
#926=AXIS2_PLACEMENT_3D('',#1395,#1147,#1148);
#927=AXIS2_PLACEMENT_3D('',#1397,#1150,#1151);
#928=AXIS2_PLACEMENT_3D('',#1398,#1152,#1153);
#929=AXIS2_PLACEMENT_3D('',#1400,#1155,#1156);
#930=AXIS2_PLACEMENT_3D('',#1402,#1158,#1159);
#931=AXIS2_PLACEMENT_3D('',#1405,#1161,#1162);
#932=AXIS2_PLACEMENT_3D('',#1406,#1163,#1164);
#933=AXIS2_PLACEMENT_3D('',#1408,#1165,#1166);
#934=AXIS2_PLACEMENT_3D('',#1409,#1167,#1168);
#935=AXIS2_PLACEMENT_3D('',#1411,#1169,#1170);
#936=AXIS2_PLACEMENT_3D('',#1413,#1172,#1173);
#937=DIRECTION('axis',(0.,0.,1.));
#938=DIRECTION('refdir',(1.,0.,0.));
#939=DIRECTION('center_axis',(1.,-2.96059473233375E-16,0.));
#940=DIRECTION('ref_axis',(2.96059473233375E-16,1.,0.));
#941=DIRECTION('',(-2.96059473233375E-16,-1.,0.));
#942=DIRECTION('',(0.,0.,1.));
#943=DIRECTION('',(2.96059473233375E-16,1.,0.));
#944=DIRECTION('',(0.,0.,1.));
#945=DIRECTION('',(0.,0.,1.));
#946=DIRECTION('',(0.,1.,0.));
#947=DIRECTION('',(0.,0.,-1.));
#948=DIRECTION('',(0.,1.,0.));
#949=DIRECTION('center_axis',(0.,0.,-1.));
#950=DIRECTION('ref_axis',(6.12323399573677E-17,1.,0.));
#951=DIRECTION('',(-1.,1.20024110770287E-16,0.));
#952=DIRECTION('',(0.,-1.,0.));
#953=DIRECTION('',(1.,0.,0.));
#954=DIRECTION('center_axis',(0.,0.,-1.));
#955=DIRECTION('ref_axis',(6.12323399573677E-17,1.,0.));
#956=DIRECTION('',(1.,0.,0.));
#957=DIRECTION('',(0.,-1.,0.));
#958=DIRECTION('',(-1.,1.20024110770287E-16,0.));
#959=DIRECTION('center_axis',(-1.20024110770287E-16,-1.,0.));
#960=DIRECTION('ref_axis',(-1.,1.20024110770287E-16,0.));
#961=DIRECTION('',(0.,0.,-1.));
#962=DIRECTION('center_axis',(0.,1.,0.));
#963=DIRECTION('ref_axis',(1.,0.,0.));
#964=DIRECTION('',(0.,0.,-1.));
#965=DIRECTION('center_axis',(0.,0.,1.));
#966=DIRECTION('ref_axis',(-1.,1.22464679914735E-16,0.));
#967=DIRECTION('',(-1.,0.,0.));
#968=DIRECTION('center_axis',(0.,0.,1.));
#969=DIRECTION('ref_axis',(1.,0.,0.));
#970=DIRECTION('',(0.,1.,0.));
#971=DIRECTION('',(1.,-1.11022302462516E-16,0.));
#972=DIRECTION('center_axis',(0.,0.,-1.));
#973=DIRECTION('ref_axis',(-0.998364081586056,-0.0571765738640485,0.));
#974=DIRECTION('',(0.,1.,0.));
#975=DIRECTION('center_axis',(0.,0.,-1.));
#976=DIRECTION('ref_axis',(0.,-1.,0.));
#977=DIRECTION('',(-1.,1.11022302462516E-16,0.));
#978=DIRECTION('',(0.,1.,0.));
#979=DIRECTION('center_axis',(0.,0.,1.));
#980=DIRECTION('ref_axis',(0.,-1.,0.));
#981=DIRECTION('',(1.,0.,0.));
#982=DIRECTION('center_axis',(0.,0.,1.));
#983=DIRECTION('ref_axis',(-1.,1.22464679914735E-16,0.));
#984=DIRECTION('center_axis',(0.,0.,1.));
#985=DIRECTION('ref_axis',(-1.,1.22464679914735E-16,0.));
#986=DIRECTION('center_axis',(-1.54465812121761E-16,-1.,0.));
#987=DIRECTION('ref_axis',(1.,-1.54465812121761E-16,0.));
#988=DIRECTION('',(1.,-1.54465812121761E-16,0.));
#989=DIRECTION('',(0.,0.,1.));
#990=DIRECTION('',(1.,0.,0.));
#991=DIRECTION('',(0.,0.,1.));
#992=DIRECTION('',(1.,-1.54465812121761E-16,0.));
#993=DIRECTION('',(0.,0.,1.));
#994=DIRECTION('',(1.,0.,0.));
#995=DIRECTION('',(0.,0.,1.));
#996=DIRECTION('',(1.,0.,0.));
#997=DIRECTION('',(0.,0.,1.));
#998=DIRECTION('center_axis',(0.,0.,1.));
#999=DIRECTION('ref_axis',(-1.,1.22464679914735E-16,0.));
#1000=DIRECTION('',(-1.,1.54465812121761E-16,0.));
#1001=DIRECTION('',(0.,-1.,0.));
#1002=DIRECTION('center_axis',(1.54465812121761E-16,1.,0.));
#1003=DIRECTION('ref_axis',(-1.,1.54465812121761E-16,0.));
#1004=DIRECTION('',(0.,0.,1.));
#1005=DIRECTION('',(-1.,0.,0.));
#1006=DIRECTION('',(0.,0.,1.));
#1007=DIRECTION('',(-1.,0.,0.));
#1008=DIRECTION('',(0.,0.,1.));
#1009=DIRECTION('',(-1.,1.54465812121761E-16,0.));
#1010=DIRECTION('',(0.,0.,1.));
#1011=DIRECTION('',(-1.,0.,0.));
#1012=DIRECTION('',(0.,0.,1.));
#1013=DIRECTION('center_axis',(1.,0.,0.));
#1014=DIRECTION('ref_axis',(0.,-1.,0.));
#1015=DIRECTION('center_axis',(0.,0.,1.));
#1016=DIRECTION('ref_axis',(1.,-1.22464679914735E-16,0.));
#1017=DIRECTION('center_axis',(0.,0.,1.));
#1018=DIRECTION('ref_axis',(1.,0.,0.));
#1019=DIRECTION('',(0.,0.,1.));
#1020=DIRECTION('center_axis',(1.,0.,0.));
#1021=DIRECTION('ref_axis',(0.,1.,0.));
#1022=DIRECTION('',(0.,1.,0.));
#1023=DIRECTION('',(0.,0.,1.));
#1024=DIRECTION('center_axis',(-1.11022302462516E-16,-1.,0.));
#1025=DIRECTION('ref_axis',(1.,-1.11022302462516E-16,0.));
#1026=DIRECTION('',(1.,-1.11022302462516E-16,0.));
#1027=DIRECTION('',(0.,0.,1.));
#1028=DIRECTION('center_axis',(0.,0.,-1.));
#1029=DIRECTION('ref_axis',(-0.998364081586056,-0.0571765738640485,0.));
#1030=DIRECTION('center_axis',(0.,0.,-1.));
#1031=DIRECTION('ref_axis',(-0.998364081586056,-0.0571765738640485,0.));
#1032=DIRECTION('',(0.,0.,1.));
#1033=DIRECTION('center_axis',(1.,0.,0.));
#1034=DIRECTION('ref_axis',(0.,1.,0.));
#1035=DIRECTION('',(0.,1.,0.));
#1036=DIRECTION('',(0.,0.,1.));
#1037=DIRECTION('center_axis',(0.,0.,-1.));
#1038=DIRECTION('ref_axis',(-1.22464679914735E-16,-1.,0.));
#1039=DIRECTION('center_axis',(0.,0.,-1.));
#1040=DIRECTION('ref_axis',(0.,-1.,0.));
#1041=DIRECTION('',(0.,0.,1.));
#1042=DIRECTION('center_axis',(1.11022302462516E-16,1.,0.));
#1043=DIRECTION('ref_axis',(-1.,1.11022302462516E-16,0.));
#1044=DIRECTION('',(-1.,1.11022302462516E-16,0.));
#1045=DIRECTION('',(0.,0.,1.));
#1046=DIRECTION('center_axis',(1.,0.,0.));
#1047=DIRECTION('ref_axis',(0.,1.,0.));
#1048=DIRECTION('',(0.,1.,0.));
#1049=DIRECTION('',(0.,0.,1.));
#1050=DIRECTION('center_axis',(0.,0.,1.));
#1051=DIRECTION('ref_axis',(-1.22464679914735E-16,-1.,0.));
#1052=DIRECTION('center_axis',(0.,0.,1.));
#1053=DIRECTION('ref_axis',(0.,-1.,0.));
#1054=DIRECTION('center_axis',(0.,0.,1.));
#1055=DIRECTION('ref_axis',(-1.,1.22464679914735E-16,0.));
#1056=DIRECTION('',(0.,0.,1.));
#1057=DIRECTION('center_axis',(0.,0.,1.));
#1058=DIRECTION('ref_axis',(-1.,1.22464679914735E-16,0.));
#1059=DIRECTION('center_axis',(0.,0.,1.));
#1060=DIRECTION('ref_axis',(-1.,1.22464679914735E-16,0.));
#1061=DIRECTION('',(0.,0.,1.));
#1062=DIRECTION('center_axis',(0.,0.,1.));
#1063=DIRECTION('ref_axis',(-1.,1.22464679914735E-16,0.));
#1064=DIRECTION('center_axis',(0.,0.,1.));
#1065=DIRECTION('ref_axis',(-1.,1.22464679914735E-16,0.));
#1066=DIRECTION('',(-2.96059473233375E-16,-1.,0.));
#1067=DIRECTION('center_axis',(1.,-2.96059473233375E-16,0.));
#1068=DIRECTION('ref_axis',(2.96059473233375E-16,1.,0.));
#1069=DIRECTION('',(2.96059473233375E-16,1.,0.));
#1070=DIRECTION('center_axis',(0.,0.,1.));
#1071=DIRECTION('ref_axis',(-1.,1.22464679914735E-16,0.));
#1072=DIRECTION('',(0.,-1.,0.));
#1073=DIRECTION('center_axis',(0.,0.,1.));
#1074=DIRECTION('ref_axis',(-1.,1.22464679914735E-16,0.));
#1075=DIRECTION('center_axis',(-1.,0.,0.));
#1076=DIRECTION('ref_axis',(0.,-1.,0.));
#1077=DIRECTION('',(0.,1.,0.));
#1078=DIRECTION('center_axis',(0.,0.,1.));
#1079=DIRECTION('ref_axis',(-1.,1.22464679914735E-16,0.));
#1080=DIRECTION('center_axis',(0.,0.,1.));
#1081=DIRECTION('ref_axis',(0.,1.,0.));
#1082=DIRECTION('',(0.,-1.,0.));
#1083=DIRECTION('',(1.,-1.11022302462516E-16,0.));
#1084=DIRECTION('center_axis',(0.,0.,-1.));
#1085=DIRECTION('ref_axis',(0.,1.,0.));
#1086=DIRECTION('',(0.,-1.,0.));
#1087=DIRECTION('center_axis',(0.,0.,-1.));
#1088=DIRECTION('ref_axis',(1.,-2.42861286636753E-16,0.));
#1089=DIRECTION('',(-1.,1.11022302462516E-16,0.));
#1090=DIRECTION('',(0.,-1.,0.));
#1091=DIRECTION('center_axis',(0.,0.,1.));
#1092=DIRECTION('ref_axis',(-1.,0.,0.));
#1093=DIRECTION('center_axis',(0.,0.,1.));
#1094=DIRECTION('ref_axis',(-1.,1.22464679914735E-16,0.));
#1095=DIRECTION('center_axis',(0.,0.,1.));
#1096=DIRECTION('ref_axis',(-1.,1.22464679914735E-16,0.));
#1097=DIRECTION('center_axis',(0.,0.,1.));
#1098=DIRECTION('ref_axis',(-1.,1.22464679914735E-16,0.));
#1099=DIRECTION('center_axis',(0.,0.,1.));
#1100=DIRECTION('ref_axis',(-1.,0.,0.));
#1101=DIRECTION('',(0.,0.,1.));
#1102=DIRECTION('center_axis',(0.,0.,1.));
#1103=DIRECTION('ref_axis',(-1.,1.22464679914735E-16,0.));
#1104=DIRECTION('',(0.,1.,0.));
#1105=DIRECTION('',(0.,-1.,0.));
#1106=DIRECTION('',(-1.,1.11022302462516E-16,0.));
#1107=DIRECTION('center_axis',(0.,0.,-1.));
#1108=DIRECTION('ref_axis',(1.,-2.42861286636753E-16,0.));
#1109=DIRECTION('',(0.,-1.,0.));
#1110=DIRECTION('center_axis',(0.,0.,-1.));
#1111=DIRECTION('ref_axis',(0.,1.,0.));
#1112=DIRECTION('',(1.,-1.11022302462516E-16,0.));
#1113=DIRECTION('',(0.,-1.,0.));
#1114=DIRECTION('center_axis',(0.,0.,1.));
#1115=DIRECTION('ref_axis',(0.,1.,0.));
#1116=DIRECTION('center_axis',(0.,0.,1.));
#1117=DIRECTION('ref_axis',(-1.,1.22464679914735E-16,0.));
#1118=DIRECTION('center_axis',(0.,0.,1.));
#1119=DIRECTION('ref_axis',(-1.,1.22464679914735E-16,0.));
#1120=DIRECTION('center_axis',(-1.,0.,0.));
#1121=DIRECTION('ref_axis',(0.,-1.,0.));
#1122=DIRECTION('center_axis',(0.,0.,1.));
#1123=DIRECTION('ref_axis',(1.22464679914735E-16,1.,0.));
#1124=DIRECTION('',(0.,0.,1.));
#1125=DIRECTION('center_axis',(0.,0.,1.));
#1126=DIRECTION('ref_axis',(-1.,1.22464679914735E-16,0.));
#1127=DIRECTION('center_axis',(0.,0.,1.));
#1128=DIRECTION('ref_axis',(-1.,1.22464679914735E-16,0.));
#1129=DIRECTION('center_axis',(0.,0.,1.));
#1130=DIRECTION('ref_axis',(-1.,1.22464679914735E-16,0.));
#1131=DIRECTION('',(0.,0.,-1.));
#1132=DIRECTION('center_axis',(-1.,0.,0.));
#1133=DIRECTION('ref_axis',(0.,-1.,0.));
#1134=DIRECTION('',(0.,0.,1.));
#1135=DIRECTION('center_axis',(-1.11022302462516E-16,-1.,0.));
#1136=DIRECTION('ref_axis',(1.,-1.11022302462516E-16,0.));
#1137=DIRECTION('',(0.,0.,1.));
#1138=DIRECTION('center_axis',(0.,0.,-1.));
#1139=DIRECTION('ref_axis',(1.22464679914735E-16,1.,0.));
#1140=DIRECTION('',(0.,0.,1.));
#1141=DIRECTION('center_axis',(-1.,0.,0.));
#1142=DIRECTION('ref_axis',(0.,-1.,0.));
#1143=DIRECTION('',(0.,0.,1.));
#1144=DIRECTION('center_axis',(0.,0.,-1.));
#1145=DIRECTION('ref_axis',(1.,-2.43895323233112E-16,0.));
#1146=DIRECTION('',(0.,0.,1.));
#1147=DIRECTION('center_axis',(1.11022302462516E-16,1.,0.));
#1148=DIRECTION('ref_axis',(-1.,1.11022302462516E-16,0.));
#1149=DIRECTION('',(0.,0.,1.));
#1150=DIRECTION('center_axis',(-1.,0.,0.));
#1151=DIRECTION('ref_axis',(0.,-1.,0.));
#1152=DIRECTION('center_axis',(0.,0.,1.));
#1153=DIRECTION('ref_axis',(-1.,1.22464679914735E-16,0.));
#1154=DIRECTION('',(0.,0.,1.));
#1155=DIRECTION('center_axis',(0.,0.,1.));
#1156=DIRECTION('ref_axis',(-1.,1.22464679914735E-16,0.));
#1157=DIRECTION('',(0.,0.,1.));
#1158=DIRECTION('center_axis',(0.,0.,-1.));
#1159=DIRECTION('ref_axis',(1.,-1.22464679914735E-16,0.));
#1160=DIRECTION('',(0.447213595499958,-1.0953573965284E-16,0.894427190999916));
#1161=DIRECTION('center_axis',(0.,0.,1.));
#1162=DIRECTION('ref_axis',(-1.,1.22464679914735E-16,0.));
#1163=DIRECTION('center_axis',(0.,0.,1.));
#1164=DIRECTION('ref_axis',(-1.,1.22464679914735E-16,0.));
#1165=DIRECTION('center_axis',(0.,0.,1.));
#1166=DIRECTION('ref_axis',(-1.,1.22464679914735E-16,0.));
#1167=DIRECTION('center_axis',(0.,0.,1.));
#1168=DIRECTION('ref_axis',(-1.,1.22464679914735E-16,0.));
#1169=DIRECTION('center_axis',(0.,0.,1.));
#1170=DIRECTION('ref_axis',(-1.,1.22464679914735E-16,0.));
#1171=DIRECTION('',(0.,0.,-1.));
#1172=DIRECTION('center_axis',(0.,0.,1.));
#1173=DIRECTION('ref_axis',(-1.,1.22464679914735E-16,0.));
#1174=CARTESIAN_POINT('',(0.,0.,0.));
#1175=CARTESIAN_POINT('Origin',(11.5,-6.,0.));
#1176=CARTESIAN_POINT('',(11.5,-6.,21.85));
#1177=CARTESIAN_POINT('',(11.5,6.,21.85));
#1178=CARTESIAN_POINT('',(11.5,6.,21.85));
#1179=CARTESIAN_POINT('',(11.5,-6.,0.));
#1180=CARTESIAN_POINT('',(11.5,-6.,0.));
#1181=CARTESIAN_POINT('',(11.5,6.,0.));
#1182=CARTESIAN_POINT('',(11.5,-6.,0.));
#1183=CARTESIAN_POINT('',(11.5,6.,0.));
#1184=CARTESIAN_POINT('',(11.5,2.75,5.5));
#1185=CARTESIAN_POINT('',(11.5,2.75,8.5));
#1186=CARTESIAN_POINT('',(11.5,2.75,5.5));
#1187=CARTESIAN_POINT('',(11.5,-2.75,5.5));
#1188=CARTESIAN_POINT('',(11.5,-2.75,5.5));
#1189=CARTESIAN_POINT('',(11.5,-2.75,8.5));
#1190=CARTESIAN_POINT('',(11.5,-2.75,8.5));
#1191=CARTESIAN_POINT('',(11.5,-2.75,8.5));
#1192=CARTESIAN_POINT('Origin',(0.,0.,8.5));
#1193=CARTESIAN_POINT('',(15.2,-2.75,8.5));
#1194=CARTESIAN_POINT('',(15.2,-2.75,8.5));
#1195=CARTESIAN_POINT('',(15.2,2.75,8.5));
#1196=CARTESIAN_POINT('',(15.2,2.75,8.5));
#1197=CARTESIAN_POINT('',(11.5,2.75,8.5));
#1198=CARTESIAN_POINT('Origin',(0.,0.,5.5));
#1199=CARTESIAN_POINT('',(15.2,2.75,5.5));
#1200=CARTESIAN_POINT('',(11.5,2.75,5.5));
#1201=CARTESIAN_POINT('',(15.2,-2.75,5.5));
#1202=CARTESIAN_POINT('',(15.2,2.75,5.5));
#1203=CARTESIAN_POINT('',(15.2,-2.75,5.5));
#1204=CARTESIAN_POINT('Origin',(15.2,-2.75,8.5));
#1205=CARTESIAN_POINT('',(15.2,-2.75,8.5));
#1206=CARTESIAN_POINT('Origin',(11.5,2.75,8.5));
#1207=CARTESIAN_POINT('',(15.2,2.75,8.5));
#1208=CARTESIAN_POINT('Origin',(0.,0.,21.85));
#1209=CARTESIAN_POINT('',(15.,6.,21.85));
#1210=CARTESIAN_POINT('',(15.,6.,21.85));
#1211=CARTESIAN_POINT('',(16.,5.,21.85));
#1212=CARTESIAN_POINT('Origin',(15.,5.,21.85));
#1213=CARTESIAN_POINT('',(16.,1.38722377727376,21.85));
#1214=CARTESIAN_POINT('',(16.,1.38722377727376,21.85));
#1215=CARTESIAN_POINT('',(14.,1.38722377727376,21.85));
#1216=CARTESIAN_POINT('',(14.,1.38722377727376,21.85));
#1217=CARTESIAN_POINT('',(12.8019631020967,0.118611888636902,21.85));
#1218=CARTESIAN_POINT('Origin',(14.,0.18722377727376,21.85));
#1219=CARTESIAN_POINT('',(12.8019631020967,0.0186118886369017,21.85));
#1220=CARTESIAN_POINT('',(12.8019631020967,0.0186118886369017,21.85));
#1221=CARTESIAN_POINT('',(14.,-1.25,21.85));
#1222=CARTESIAN_POINT('Origin',(14.,-0.0500000000000018,21.85));
#1223=CARTESIAN_POINT('',(16.,-1.25,21.85));
#1224=CARTESIAN_POINT('',(16.,-1.25,21.85));
#1225=CARTESIAN_POINT('',(16.,-5.,21.85));
#1226=CARTESIAN_POINT('',(16.,-5.,21.85));
#1227=CARTESIAN_POINT('',(15.,-6.,21.85));
#1228=CARTESIAN_POINT('Origin',(15.,-5.,21.85));
#1229=CARTESIAN_POINT('',(11.5,-6.,21.85));
#1230=CARTESIAN_POINT('',(15.,3.5,21.85));
#1231=CARTESIAN_POINT('Origin',(13.75,3.5,21.85));
#1232=CARTESIAN_POINT('',(15.,-3.5,21.85));
#1233=CARTESIAN_POINT('Origin',(13.75,-3.5,21.85));
#1234=CARTESIAN_POINT('Origin',(-11.5,-6.,0.));
#1235=CARTESIAN_POINT('',(-11.5,-6.,0.));
#1236=CARTESIAN_POINT('',(-11.5,-6.,0.));
#1237=CARTESIAN_POINT('',(15.,-6.,23.));
#1238=CARTESIAN_POINT('',(15.,-6.,21.85));
#1239=CARTESIAN_POINT('',(11.5,-6.,23.));
#1240=CARTESIAN_POINT('',(11.5,-6.,23.));
#1241=CARTESIAN_POINT('',(11.5,-6.,28.));
#1242=CARTESIAN_POINT('',(11.5,-6.,23.));
#1243=CARTESIAN_POINT('',(-11.5,-6.,28.));
#1244=CARTESIAN_POINT('',(-11.5,-6.,28.));
#1245=CARTESIAN_POINT('',(-11.5,-6.,23.));
#1246=CARTESIAN_POINT('',(-11.5,-6.,23.));
#1247=CARTESIAN_POINT('',(-15.,-6.,23.));
#1248=CARTESIAN_POINT('',(-15.,-6.,23.));
#1249=CARTESIAN_POINT('',(-15.,-6.,21.85));
#1250=CARTESIAN_POINT('',(-15.,-6.,21.85));
#1251=CARTESIAN_POINT('',(-11.5,-6.,21.85));
#1252=CARTESIAN_POINT('',(-15.,-6.,21.85));
#1253=CARTESIAN_POINT('',(-11.5,-6.,0.));
#1254=CARTESIAN_POINT('Origin',(0.,0.,0.));
#1255=CARTESIAN_POINT('',(-11.5,6.,0.));
#1256=CARTESIAN_POINT('',(11.5,6.,0.));
#1257=CARTESIAN_POINT('',(-11.5,6.,0.));
#1258=CARTESIAN_POINT('Origin',(11.5,6.,0.));
#1259=CARTESIAN_POINT('',(-11.5,6.,21.85));
#1260=CARTESIAN_POINT('',(-11.5,6.,0.));
#1261=CARTESIAN_POINT('',(-15.,6.,21.85));
#1262=CARTESIAN_POINT('',(-11.5,6.,21.85));
#1263=CARTESIAN_POINT('',(-15.,6.,23.));
#1264=CARTESIAN_POINT('',(-15.,6.,21.85));
#1265=CARTESIAN_POINT('',(-11.5,6.,23.));
#1266=CARTESIAN_POINT('',(-11.5,6.,23.));
#1267=CARTESIAN_POINT('',(-11.5,6.,28.));
#1268=CARTESIAN_POINT('',(-11.5,6.,23.));
#1269=CARTESIAN_POINT('',(11.5,6.,28.));
#1270=CARTESIAN_POINT('',(11.5,6.,28.));
#1271=CARTESIAN_POINT('',(11.5,6.,23.));
#1272=CARTESIAN_POINT('',(11.5,6.,23.));
#1273=CARTESIAN_POINT('',(15.,6.,23.));
#1274=CARTESIAN_POINT('',(15.,6.,23.));
#1275=CARTESIAN_POINT('',(15.,6.,21.85));
#1276=CARTESIAN_POINT('Origin',(15.2,2.75,8.5));
#1277=CARTESIAN_POINT('Origin',(15.,5.,21.85));
#1278=CARTESIAN_POINT('',(16.,5.,23.));
#1279=CARTESIAN_POINT('Origin',(15.,5.,23.));
#1280=CARTESIAN_POINT('',(16.,5.,21.85));
#1281=CARTESIAN_POINT('Origin',(16.,1.38722377727376,21.85));
#1282=CARTESIAN_POINT('',(16.,1.38722377727376,23.));
#1283=CARTESIAN_POINT('',(16.,1.38722377727376,23.));
#1284=CARTESIAN_POINT('',(16.,1.38722377727376,21.85));
#1285=CARTESIAN_POINT('Origin',(14.,1.38722377727376,21.85));
#1286=CARTESIAN_POINT('',(14.,1.38722377727376,23.));
#1287=CARTESIAN_POINT('',(14.,1.38722377727376,23.));
#1288=CARTESIAN_POINT('',(14.,1.38722377727376,21.85));
#1289=CARTESIAN_POINT('Origin',(14.,0.18722377727376,21.85));
#1290=CARTESIAN_POINT('',(12.8019631020967,0.118611888636902,23.));
#1291=CARTESIAN_POINT('Origin',(14.,0.18722377727376,23.));
#1292=CARTESIAN_POINT('',(12.8019631020967,0.118611888636902,21.85));
#1293=CARTESIAN_POINT('Origin',(12.8019631020967,0.0186118886369017,21.85));
#1294=CARTESIAN_POINT('',(12.8019631020967,0.0186118886369017,23.));
#1295=CARTESIAN_POINT('',(12.8019631020967,0.0186118886369017,23.));
#1296=CARTESIAN_POINT('',(12.8019631020967,0.0186118886369015,21.85));
#1297=CARTESIAN_POINT('Origin',(14.,-0.0500000000000018,21.85));
#1298=CARTESIAN_POINT('',(14.,-1.25,23.));
#1299=CARTESIAN_POINT('Origin',(14.,-0.0500000000000018,23.));
#1300=CARTESIAN_POINT('',(14.,-1.25,21.85));
#1301=CARTESIAN_POINT('Origin',(16.,-1.25,21.85));
#1302=CARTESIAN_POINT('',(16.,-1.25,23.));
#1303=CARTESIAN_POINT('',(16.,-1.25,23.));
#1304=CARTESIAN_POINT('',(16.,-1.25,21.85));
#1305=CARTESIAN_POINT('Origin',(16.,-5.,21.85));
#1306=CARTESIAN_POINT('',(16.,-5.,23.));
#1307=CARTESIAN_POINT('',(16.,-5.,23.));
#1308=CARTESIAN_POINT('',(16.,-5.,21.85));
#1309=CARTESIAN_POINT('Origin',(15.,-5.,21.85));
#1310=CARTESIAN_POINT('Origin',(15.,-5.,23.));
#1311=CARTESIAN_POINT('Origin',(13.75,3.5,21.85));
#1312=CARTESIAN_POINT('',(15.,3.5,23.));
#1313=CARTESIAN_POINT('',(15.,3.5,21.85));
#1314=CARTESIAN_POINT('Origin',(13.75,3.5,23.));
#1315=CARTESIAN_POINT('Origin',(13.75,-3.5,21.85));
#1316=CARTESIAN_POINT('',(15.,-3.5,23.));
#1317=CARTESIAN_POINT('',(15.,-3.5,21.85));
#1318=CARTESIAN_POINT('Origin',(13.75,-3.5,23.));
#1319=CARTESIAN_POINT('Origin',(0.,0.,23.));
#1320=CARTESIAN_POINT('',(11.5,6.,23.));
#1321=CARTESIAN_POINT('Origin',(11.5,-6.,0.));
#1322=CARTESIAN_POINT('',(11.5,-6.,28.));
#1323=CARTESIAN_POINT('Origin',(0.,0.,28.));
#1324=CARTESIAN_POINT('',(-11.5,6.,28.));
#1325=CARTESIAN_POINT('',(10.25,1.53390340211714E-16,28.));
#1326=CARTESIAN_POINT('Origin',(6.,1.53390340211713E-16,28.));
#1327=CARTESIAN_POINT('Origin',(-11.5,6.,0.));
#1328=CARTESIAN_POINT('',(-11.5,-6.,23.));
#1329=CARTESIAN_POINT('Origin',(0.,0.,23.));
#1330=CARTESIAN_POINT('',(-16.,5.,23.));
#1331=CARTESIAN_POINT('Origin',(-15.,5.,23.));
#1332=CARTESIAN_POINT('',(-16.,1.25,23.));
#1333=CARTESIAN_POINT('',(-16.,5.,23.));
#1334=CARTESIAN_POINT('',(-14.,1.25,23.));
#1335=CARTESIAN_POINT('',(-16.,1.25,23.));
#1336=CARTESIAN_POINT('',(-12.8,0.0500000000000013,23.));
#1337=CARTESIAN_POINT('Origin',(-14.,0.0500000000000016,23.));
#1338=CARTESIAN_POINT('',(-12.8,-0.0499999999999986,23.));
#1339=CARTESIAN_POINT('',(-12.8,0.0500000000000014,23.));
#1340=CARTESIAN_POINT('',(-14.,-1.25,23.));
#1341=CARTESIAN_POINT('Origin',(-14.,-0.0499999999999984,23.));
#1342=CARTESIAN_POINT('',(-16.,-1.25,23.));
#1343=CARTESIAN_POINT('',(-14.,-1.25,23.));
#1344=CARTESIAN_POINT('',(-16.,-5.,23.));
#1345=CARTESIAN_POINT('',(-16.,-1.25,23.));
#1346=CARTESIAN_POINT('Origin',(-15.,-5.,23.));
#1347=CARTESIAN_POINT('',(-12.5,3.5,23.));
#1348=CARTESIAN_POINT('Origin',(-13.75,3.5,23.));
#1349=CARTESIAN_POINT('',(-12.5,-3.5,23.));
#1350=CARTESIAN_POINT('Origin',(-13.75,-3.5,23.));
#1351=CARTESIAN_POINT('Origin',(-15.,-5.,21.85));
#1352=CARTESIAN_POINT('',(-16.,-5.,21.85));
#1353=CARTESIAN_POINT('Origin',(-15.,-5.,21.85));
#1354=CARTESIAN_POINT('',(-16.,-5.,21.85));
#1355=CARTESIAN_POINT('Origin',(0.,0.,21.85));
#1356=CARTESIAN_POINT('',(-11.5,-6.,21.85));
#1357=CARTESIAN_POINT('',(-16.,-1.25,21.85));
#1358=CARTESIAN_POINT('',(-16.,-1.25,21.85));
#1359=CARTESIAN_POINT('',(-14.,-1.25,21.85));
#1360=CARTESIAN_POINT('',(-14.,-1.25,21.85));
#1361=CARTESIAN_POINT('',(-12.8,-0.0499999999999986,21.85));
#1362=CARTESIAN_POINT('Origin',(-14.,-0.0499999999999984,21.85));
#1363=CARTESIAN_POINT('',(-12.8,0.0500000000000013,21.85));
#1364=CARTESIAN_POINT('',(-12.8,0.0500000000000014,21.85));
#1365=CARTESIAN_POINT('',(-14.,1.25,21.85));
#1366=CARTESIAN_POINT('Origin',(-14.,0.0500000000000016,21.85));
#1367=CARTESIAN_POINT('',(-16.,1.25,21.85));
#1368=CARTESIAN_POINT('',(-16.,1.25,21.85));
#1369=CARTESIAN_POINT('',(-16.,5.,21.85));
#1370=CARTESIAN_POINT('',(-16.,5.,21.85));
#1371=CARTESIAN_POINT('Origin',(-15.,5.,21.85));
#1372=CARTESIAN_POINT('',(-12.5,3.5,21.85));
#1373=CARTESIAN_POINT('Origin',(-13.75,3.5,21.85));
#1374=CARTESIAN_POINT('',(-12.5,-3.5,21.85));
#1375=CARTESIAN_POINT('Origin',(-13.75,-3.5,21.85));
#1376=CARTESIAN_POINT('Origin',(-11.5,6.,0.));
#1377=CARTESIAN_POINT('Origin',(-15.,5.,21.85));
#1378=CARTESIAN_POINT('',(-16.,5.,21.85));
#1379=CARTESIAN_POINT('Origin',(6.,1.53390340211713E-16,28.));
#1380=CARTESIAN_POINT('',(1.75,1.19434011948696E-15,28.5));
#1381=CARTESIAN_POINT('',(10.25,1.53390340211714E-16,28.5));
#1382=CARTESIAN_POINT('Origin',(6.,1.53390340211713E-16,28.5));
#1383=CARTESIAN_POINT('Origin',(6.,1.53390340211713E-16,28.5));
#1384=CARTESIAN_POINT('',(10.25,1.53390340211714E-16,28.));
#1385=CARTESIAN_POINT('Origin',(-16.,5.,21.85));
#1386=CARTESIAN_POINT('',(-16.,1.25,21.85));
#1387=CARTESIAN_POINT('Origin',(-16.,1.25,21.85));
#1388=CARTESIAN_POINT('',(-14.,1.25,21.85));
#1389=CARTESIAN_POINT('Origin',(-14.,0.0500000000000016,21.85));
#1390=CARTESIAN_POINT('',(-12.8,0.0500000000000015,21.85));
#1391=CARTESIAN_POINT('Origin',(-12.8,0.0500000000000014,21.85));
#1392=CARTESIAN_POINT('',(-12.8,-0.0499999999999986,21.85));
#1393=CARTESIAN_POINT('Origin',(-14.,-0.0499999999999984,21.85));
#1394=CARTESIAN_POINT('',(-14.,-1.25,21.85));
#1395=CARTESIAN_POINT('Origin',(-14.,-1.25,21.85));
#1396=CARTESIAN_POINT('',(-16.,-1.25,21.85));
#1397=CARTESIAN_POINT('Origin',(-16.,-1.25,21.85));
#1398=CARTESIAN_POINT('Origin',(-13.75,3.5,21.85));
#1399=CARTESIAN_POINT('',(-12.5,3.5,21.85));
#1400=CARTESIAN_POINT('Origin',(-13.75,-3.5,21.85));
#1401=CARTESIAN_POINT('',(-12.5,-3.5,21.85));
#1402=CARTESIAN_POINT('Origin',(6.,1.53390340211713E-16,28.75));
#1403=CARTESIAN_POINT('',(2.,6.43249059870654E-16,29.));
#1404=CARTESIAN_POINT('',(1.875,1.16372394950828E-15,28.75));
#1405=CARTESIAN_POINT('Origin',(6.,1.53390340211713E-16,29.));
#1406=CARTESIAN_POINT('Origin',(0.,0.,29.));
#1407=CARTESIAN_POINT('',(8.5,1.53390340211714E-16,29.));
#1408=CARTESIAN_POINT('Origin',(6.,1.53390340211713E-16,29.));
#1409=CARTESIAN_POINT('Origin',(6.,1.53390340211713E-16,29.));
#1410=CARTESIAN_POINT('',(8.5,1.53390340211714E-16,32.3));
#1411=CARTESIAN_POINT('Origin',(6.,1.53390340211713E-16,32.3));
#1412=CARTESIAN_POINT('',(8.5,1.53390340211714E-16,29.));
#1413=CARTESIAN_POINT('Origin',(0.,0.,32.3));
#1414=UNCERTAINTY_MEASURE_WITH_UNIT(LENGTH_MEASURE(0.01),#1418,
'DISTANCE_ACCURACY_VALUE',
'Maximum model space distance between geometric entities at asserted c
onnectivities');
#1415=UNCERTAINTY_MEASURE_WITH_UNIT(LENGTH_MEASURE(0.01),#1418,
'DISTANCE_ACCURACY_VALUE',
'Maximum model space distance between geometric entities at asserted c
onnectivities');
#1416=(
GEOMETRIC_REPRESENTATION_CONTEXT(3)
GLOBAL_UNCERTAINTY_ASSIGNED_CONTEXT((#1414))
GLOBAL_UNIT_ASSIGNED_CONTEXT((#1418,#1420,#1421))
REPRESENTATION_CONTEXT('','3D')
);
#1417=(
GEOMETRIC_REPRESENTATION_CONTEXT(3)
GLOBAL_UNCERTAINTY_ASSIGNED_CONTEXT((#1415))
GLOBAL_UNIT_ASSIGNED_CONTEXT((#1418,#1420,#1421))
REPRESENTATION_CONTEXT('','3D')
);
#1418=(
LENGTH_UNIT()
NAMED_UNIT(*)
SI_UNIT(.MILLI.,.METRE.)
);
#1419=(
LENGTH_UNIT()
NAMED_UNIT(*)
SI_UNIT(.CENTI.,.METRE.)
);
#1420=(
NAMED_UNIT(*)
PLANE_ANGLE_UNIT()
SI_UNIT($,.RADIAN.)
);
#1421=(
NAMED_UNIT(*)
SI_UNIT($,.STERADIAN.)
SOLID_ANGLE_UNIT()
);
#1422=SHAPE_DEFINITION_REPRESENTATION(#1423,#1424);
#1423=PRODUCT_DEFINITION_SHAPE('',$,#1426);
#1424=SHAPE_REPRESENTATION('',(#862),#1416);
#1425=PRODUCT_DEFINITION_CONTEXT('part definition',#1430,'design');
#1426=PRODUCT_DEFINITION('\X2\0421043504400432043E043F044004380432043E0434\X0\',
'\X2\0421043504400432043E043F044004380432043E0434\X0\',#1427,#1425);
#1427=PRODUCT_DEFINITION_FORMATION('ANYUNSPECIFIED',$,#1432);
#1428=PRODUCT_RELATED_PRODUCT_CATEGORY('\X2\0421043504400432043E043F044004380432043E0434\X0\',
'\X2\0421043504400432043E043F044004380432043E0434\X0\',(#1432));
#1429=APPLICATION_PROTOCOL_DEFINITION('international standard',
'automotive_design',2009,#1430);
#1430=APPLICATION_CONTEXT(
'Core Data for Automotive Mechanical Design Process');
#1431=PRODUCT_CONTEXT('part definition',#1430,'mechanical');
#1432=PRODUCT('\X2\0421043504400432043E043F044004380432043E0434\X0\',
'\X2\0421043504400432043E043F044004380432043E0434\X0\','NONE',(#1431));
#1433=PRESENTATION_STYLE_ASSIGNMENT((#1435));
#1434=PRESENTATION_STYLE_ASSIGNMENT((#1436));
#1435=SURFACE_STYLE_USAGE(.BOTH.,#1441);
#1436=SURFACE_STYLE_USAGE(.BOTH.,#1442);
#1437=SURFACE_STYLE_RENDERING_WITH_PROPERTIES($,#1449,(#1439));
#1438=SURFACE_STYLE_RENDERING_WITH_PROPERTIES($,#1450,(#1440));
#1439=SURFACE_STYLE_TRANSPARENT(0.);
#1440=SURFACE_STYLE_TRANSPARENT(0.);
#1441=SURFACE_SIDE_STYLE('',(#1443,#1437));
#1442=SURFACE_SIDE_STYLE('',(#1444,#1438));
#1443=SURFACE_STYLE_FILL_AREA(#1445);
#1444=SURFACE_STYLE_FILL_AREA(#1446);
#1445=FILL_AREA_STYLE('',(#1447));
#1446=FILL_AREA_STYLE('',(#1448));
#1447=FILL_AREA_STYLE_COLOUR('',#1449);
#1448=FILL_AREA_STYLE_COLOUR('',#1450);
#1449=COLOUR_RGB('',0.749019607843137,0.749019607843137,0.749019607843137);
#1450=COLOUR_RGB('',0.705882352941177,0.705882352941177,0.705882352941177);
ENDSEC;
END-ISO-10303-21;
