M48
;Layer_Color=9474304
;FILE_FORMAT=4:3
METRIC,LZ
;TYPE=PLATED
T01F00S00C0.300
T02F00S00C0.762
T03F00S00C0.800
T04F00S00C1.000
T05F00S00C2.000
T06F00S00C3.200
T07F00S00C4.550
%
T01
X0023622Y0012827
X0100838
X0101092Y0011049
X0112395
X01143Y0012827
X011532Y000787
X0111756Y0005084
X011049Y000508
X0121285Y0011049
X0122047Y0012827
X0124206Y0031242
X0121539Y0036449
X0120015Y0037973
X0151257Y0025908
X0151384Y0022352
X0152527Y0014097
X0132969Y004191
X0131445Y0043434
X0130683Y0044323
X0129921Y0045085
X0128651Y0046355
X0121666
X012192Y0045339
X0122165Y0044323
X0122428Y0043307
X0122301Y004191
X011762Y0058819
X0017399Y0043688
T02
X0027559Y003186
X0037959
X0042298
X0052698
X0057037
X0067437
Y004826
X0057037
X0052698
X0042298
X0037959
X0027559
T03
X0056007Y0014887
Y0018387
X0073914Y0018034
Y0014534
X0011684Y0053876
Y0057376
T04
X0003815Y0012568
Y0015108
X000381Y0017653
X0003815Y0020188
X000381Y002794
Y003048
X0003805Y0033025
X0012002Y003298
Y003048
Y002798
X0012192Y0019105
Y0016605
Y0014105
X0021122Y0005715
X0023622
X0026122
X0030861Y0011241
X0033401
X0035946Y0011246
X0038481Y0011241
X0038561Y0004826
X0036061
X0035946Y0023246
X0038481Y0023241
X0033401
X0030861
X0041021
X0043561
X0046101
X0048641
Y0011241
X0046101
X0043561
X0041021
X0041061Y0004826
X0043561
X0085464
X0087964
X0090464
X0092964
X0093218Y0011495
X0095758
X0098298
X0090678
X0088138
X0085603Y00115
X0083058Y0011495
X0080518
Y0023495
X0083058
X0085603Y00235
X0088138Y0023495
X0090678
X0093218
X0095758
X0098298
X010541Y0022352
X010795
Y0024892
Y0027432
Y0029972
Y0032512
X010541
Y0029972
X0105423Y0027418
X010541Y0024892
Y0019812
X010795
Y0017272
X010541
Y0014732
X010795
Y0035052
Y0037592
X010541
Y0035052
X013843
Y0037592
X014097
Y0035052
Y0032512
X013843
Y0029972
X014097
Y0027432
X013843
Y0024892
Y0022352
X014097
Y0024892
Y0019812
Y0017272
Y0014732
X013843
Y0017272
Y0019812
X0138425Y0007112
X0140965
Y0004572
Y0002032
X0138425
Y0004572
X0145542Y0039243
X0148082
X0150622
Y0041783
Y0044323
Y0046863
Y0049403
Y0051943
X0148082
Y0049403
Y0046863
Y0044323
Y0041783
X0145542
Y0044323
Y0046863
Y0049403
Y0051943
X014097Y0052832
X013843
Y0050292
Y0047752
Y0045212
Y0042672
Y0040132
X014097
Y0042672
Y0045212
Y0047752
Y0050292
X0140081Y0060452
Y0062992
Y0065532
Y0068072
Y0070612
X011557Y0052832
Y0050292
X011303
X011049
X010795
Y0052832
X011049
X011303
X010541
Y0050292
Y0047752
Y0045212
Y0042672
Y0040132
X010795
Y0042672
Y0045212
Y0047752
X0073025Y0055499
Y0058039
Y0060579
Y0063119
X0064521Y0072522
X0061976Y0072517
X0059436
X0047879Y0072644
X0045339
X0042794Y0072639
X0033269Y0071506
Y0068966
X0033274Y0066421
X0033269Y0063886
Y0061346
Y0058806
Y0056266
Y0053726
X0021269
Y0056266
Y0058806
Y0061346
Y0063886
X0021274Y0066421
X0021269Y0068966
Y0071506
X0015494Y0070191
Y0067691
Y0065191
Y0062691
X0011811Y0046402
Y0043902
Y0041402
X0003815Y004127
Y004381
X000381Y0046355
T05
X0094096Y0048263
X0093599Y0070263
T06
X0008006Y0008006
X0145834
Y0068006
X0008006
T07
X0060745Y0005715
X0067945
M30
