M48
;Layer_Color=9474304
;FILE_FORMAT=4:3
METRIC,LZ
;TYPE=PLATED
T01F00S00C0.300
T02F00S00C0.762
T03F00S00C0.800
T04F00S00C1.000
T05F00S00C2.000
T06F00S00C3.200
T07F00S00C4.550
%
T01
X00129Y00046
X0013733
X0014566
X0015399
X00175Y0005
X002
X00225
X0025
Y00075
X00225
X002
Y001
X00175
Y00075
X0015
X00224Y00103
X0023067Y0010318
X00239
X0024733
X0027432Y0020447
X0018669Y0026835
X0017653Y0027432
X0023Y0033
X0024Y0034
Y0036
X0023Y0035
X0022Y0036
Y0034
X0023Y0037
X0024Y0038
X0022
X00484Y00059
X0049233
X0050066
X0050899
X00775Y00075
Y001
X0075
X008Y00075
Y0005
X00825
X00975
X01
X01025
Y00075
X01
X00975
X0101092Y0011049
X0101346Y0012827
X0112395Y0011049
X01143Y0012827
X0109982Y0008255
X0107569Y0005842
X0115Y00025
X01175Y0005
X012Y00025
X0125
X013
X01325Y0005
Y001
X0135
Y00125
X014
Y001
X01375
X0145Y00175
Y002
X0150114Y0016383
X0151384Y0022352
X015Y0028
Y0034
Y0036
X0130626Y002547
X0122047Y0012827
X0121285Y0011049
X01225Y0005
X01275
X0128397Y0045212
X0127806Y0046101
X0127451Y0048203
X0126746Y0052832
X012827Y005334
X0131Y006
X0133
Y0062
X0146Y0061
X0148
Y0059
X015
Y0056
X0131064Y0043942
X0131445Y0042672
X0122809
X0122428Y0043942
X012192Y0045212
X0121793Y0046101
X012192Y0047498
X0119065Y0045527
X0118364Y0044831
X0116078Y0059436
X0108712Y0065532
X0107442Y0067564
X0079199Y00714
X0078366
X0077533
X00767
X0061849Y0067564
X0064135Y0064643
X0061Y0059
X006Y0058
X0059Y0059
X0058Y0058
X0057Y0059
X0056Y0058
X0055Y0059
X0054Y0058
X0053Y0059
Y0057
X0055
X0057
X0059
X0061
Y0048
X0062Y0047
X0063Y0048
X0066Y0042
X0067Y0041
X0065
X0047Y0047
X0048Y0048
X0046
Y0057
Y0059
X0045Y0058
X0044Y0059
Y0057
X0043Y0058
X0042Y0059
Y0057
X004
Y0059
X0041Y0058
X0026
X0025Y0059
Y0057
X0026Y0056
X0024
Y0058
Y006
X0026
X0025Y0061
X0026Y0062
X0024
X0025Y0069
X0027
X0029
X0028Y007
X0026
X0025Y0071
X0027
Y0073
X0028Y0072
X0029Y0073
Y0071
X0026Y0072
X0025Y0073
X001Y00625
X00075
X0005
X0004933Y00596
X00041
X0005766
X0006599
X00075Y00575
Y0055
X0005
X00025
Y00525
Y00575
Y006
X0005Y00575
X0017653Y0043688
X0032Y0047
X0033Y0048
X0031
T02
X0027559Y003186
X0037959
X0042298
X0052698
X0057037
X0067437
Y004826
X0057037
X0052698
X0042298
X0037959
X0027559
T03
X0056007Y0014887
Y0018387
X0073914Y0018034
Y0014534
X0011684Y0053876
Y0057376
T04
X0003815Y0012568
Y0015108
X000381Y0017653
X0003815Y0020188
X000381Y002794
Y003048
X0003805Y0033025
X0012002Y003298
Y003048
Y002798
X00121Y00193
Y00168
Y00143
X0030861Y0011241
X0033401
X0035946Y0011246
X0038481Y0011241
X0038561Y0004826
X0036061
X0035946Y0023246
X0038481Y0023241
X0033401
X0030861
X0041021
X0043561
X0046101
X0048641
Y0011241
X0046101
X0043561
X0041021
X0041061Y0004826
X0043561
X007738Y0032
X007992
X0082465
X0085
X008754Y0032005
X009008Y0032
X0090678Y0023495
X0093218
X0095758
X0098298
X010541Y0022352
X010795
Y0024892
Y0027432
Y0029972
Y0032512
X010541
Y0029972
X0105423Y0027418
X010541Y0024892
Y0019812
X010795
Y0017272
X010541
Y0014732
X010795
X0098298Y0011495
X0095758
X0093218
X0090678
X0088138
X0085603Y00115
X0083058Y0011495
X0080518
X0085464Y0004826
X0087964
X0090464
X0092964
X0088138Y0023495
X0085603Y00235
X0083058Y0023495
X0080518
X010541Y0035052
X010795
Y0037592
X010541
X013843
X014097
Y0035052
X013843
Y0032512
Y0029972
Y0027432
X014097
Y0029972
Y0032512
Y0024892
X013843
Y0022352
X014097
Y0019812
Y0017272
Y0014732
X013843
Y0017272
Y0019812
X0138425Y0007112
Y0004572
X0140965
Y0002032
X0138425
X0140965Y0007112
X0145542Y0039243
X0148082
X0150622
Y0041783
Y0044323
Y0046863
Y0049403
Y0051943
X0148082
Y0049403
Y0046863
Y0044323
Y0041783
X0145542
Y0044323
Y0046863
Y0049403
Y0051943
X014097Y0052832
X013843
Y0050292
Y0047752
Y0045212
Y0042672
Y0040132
X014097
Y0042672
Y0045212
Y0047752
Y0050292
X0139573Y0061849
Y0064389
Y0066929
Y0069469
Y0072009
X011557Y0052832
Y0050292
X011303
X011049
X010795
Y0052832
X011049
X011303
X010541
Y0050292
Y0047752
Y0045212
Y0042672
Y0040132
X010795
Y0042672
Y0045212
Y0047752
X009008Y004395
X008754
X0085
X0082465Y0043955
X007992Y004395
X007738
X0073025Y0055499
Y0058039
Y0060579
Y0063119
X0058126Y006604
X0055626
X0046569
X0044069
X0042794Y0072136
X0045339Y0072141
X0047879
X0059436Y0072517
X0061976
X0064521Y0072522
X0033269Y0071506
Y0068966
X0033274Y0066421
X0033269Y0063886
Y0061346
Y0058806
Y0056266
Y0053726
X0021269
Y0056266
Y0058806
Y0061346
Y0063886
X0021274Y0066421
X0021269Y0068966
Y0071506
X0015494Y0070191
Y0067691
Y0065191
Y0062691
X0011811Y0046402
Y0043902
Y0041402
X0003815Y004127
Y004381
X000381Y0046355
T05
X0095599Y0048263
Y0070263
T06
X0008006Y0008006
X0064006Y0018006
X0145834Y0008006
Y0068006
X0008006
T07
X0060745Y0005715
X0067945
M30
