G04*
G04 #@! TF.GenerationSoftware,Altium Limited,Altium Designer Agile,26.2.0 (28)*
G04*
G04 Layer_Color=8388736*
%FSLAX43Y43*%
%MOMM*%
G71*
G04*
G04 #@! TF.SameCoordinates,18216BFA-5D26-47D2-858F-60D51CB191BB*
G04*
G04*
G04 #@! TF.FilePolarity,Negative*
G04*
G01*
G75*
%ADD15R,1.500X1.250*%
%ADD16R,1.250X1.500*%
G04:AMPARAMS|DCode=17|XSize=3.3mm|YSize=2.1mm|CornerRadius=0.55mm|HoleSize=0mm|Usage=FLASHONLY|Rotation=270.000|XOffset=0mm|YOffset=0mm|HoleType=Round|Shape=RoundedRectangle|*
%AMROUNDEDRECTD17*
21,1,3.300,1.000,0,0,270.0*
21,1,2.200,2.100,0,0,270.0*
1,1,1.100,-0.500,-1.100*
1,1,1.100,-0.500,1.100*
1,1,1.100,0.500,1.100*
1,1,1.100,0.500,-1.100*
%
%ADD17ROUNDEDRECTD17*%
%ADD18C,1.700*%
%ADD19C,2.000*%
%ADD20R,2.000X2.000*%
%ADD21C,2.103*%
%ADD22R,1.608X1.608*%
%ADD23C,6.100*%
%ADD24R,6.100X6.100*%
%ADD25R,2.000X2.000*%
%ADD26C,1.608*%
%ADD27R,1.700X1.700*%
%ADD28C,3.300*%
%ADD29R,1.700X1.700*%
D15*
X96139Y30972D02*
D03*
X99949Y28845D02*
D03*
Y30845D02*
D03*
X96139Y28972D02*
D03*
D16*
X149463Y26035D02*
D03*
X149590Y14351D02*
D03*
X149463Y30480D02*
D03*
X147590Y14351D02*
D03*
X147463Y26035D02*
D03*
X149603Y18796D02*
D03*
X147463Y30480D02*
D03*
X147603Y18796D02*
D03*
D17*
X52698Y48260D02*
D03*
Y31860D02*
D03*
X42298D02*
D03*
Y48260D02*
D03*
X27559D02*
D03*
Y31860D02*
D03*
X57037Y48260D02*
D03*
Y31860D02*
D03*
X37959D02*
D03*
X67437D02*
D03*
Y48260D02*
D03*
X37959D02*
D03*
D18*
X58126Y66040D02*
D03*
X46569D02*
D03*
X73914Y14534D02*
D03*
X11684Y57376D02*
D03*
X56007Y14887D02*
D03*
X11684Y53876D02*
D03*
X73914Y18034D02*
D03*
X56007Y18387D02*
D03*
X38561Y4826D02*
D03*
X41061D02*
D03*
X43561D02*
D03*
X15494Y67691D02*
D03*
Y62691D02*
D03*
Y65191D02*
D03*
X92964Y4826D02*
D03*
X90464D02*
D03*
X87964D02*
D03*
D19*
X150622Y51943D02*
D03*
Y41783D02*
D03*
Y46863D02*
D03*
Y49403D02*
D03*
Y44323D02*
D03*
X21269Y56266D02*
D03*
Y71506D02*
D03*
X95758Y11495D02*
D03*
X80518D02*
D03*
X30861Y11241D02*
D03*
X46101D02*
D03*
X140965Y4572D02*
D03*
X64521Y72522D02*
D03*
X3805Y33025D02*
D03*
X3815Y20188D02*
D03*
X42794Y72136D02*
D03*
X3810Y46355D02*
D03*
X85000Y32000D02*
D03*
Y43950D02*
D03*
X21269Y53726D02*
D03*
X48641Y11241D02*
D03*
X98298Y11495D02*
D03*
X12100Y16800D02*
D03*
Y14300D02*
D03*
X90080Y32000D02*
D03*
X87540Y32005D02*
D03*
X79920Y43950D02*
D03*
X87540D02*
D03*
X90080D02*
D03*
X77380Y32000D02*
D03*
X79920D02*
D03*
X82465Y43955D02*
D03*
Y32000D02*
D03*
X140970Y37592D02*
D03*
X138430D02*
D03*
X11811Y41402D02*
D03*
X12002Y27980D02*
D03*
X148082Y51943D02*
D03*
Y49403D02*
D03*
Y44323D02*
D03*
Y46863D02*
D03*
X61976Y72517D02*
D03*
X148082Y41783D02*
D03*
Y39243D02*
D03*
X95758Y23495D02*
D03*
X93218D02*
D03*
X90678D02*
D03*
X83058Y11495D02*
D03*
X45339Y72141D02*
D03*
X33269Y58806D02*
D03*
X21269Y68966D02*
D03*
X33269Y61346D02*
D03*
Y56266D02*
D03*
X46101Y23241D02*
D03*
X43561D02*
D03*
X41021D02*
D03*
X33401Y11241D02*
D03*
X3815Y15108D02*
D03*
X88138Y11495D02*
D03*
X85603Y11500D02*
D03*
X90678Y11495D02*
D03*
X93218D02*
D03*
X88138Y23495D02*
D03*
X85603Y23500D02*
D03*
X98298Y23495D02*
D03*
X83058D02*
D03*
X3815Y43810D02*
D03*
X139573Y66929D02*
D03*
Y64389D02*
D03*
X3810Y17653D02*
D03*
Y30480D02*
D03*
X138430Y29972D02*
D03*
X11811Y43902D02*
D03*
X12002Y30480D02*
D03*
X38481Y11241D02*
D03*
X35946Y11246D02*
D03*
X41021Y11241D02*
D03*
X43561D02*
D03*
X38481Y23241D02*
D03*
X35946Y23246D02*
D03*
X48641Y23241D02*
D03*
X33401D02*
D03*
X33269Y53726D02*
D03*
X33274Y66421D02*
D03*
X33269Y63886D02*
D03*
X21269Y58806D02*
D03*
Y61346D02*
D03*
X21274Y66421D02*
D03*
X21269Y63886D02*
D03*
X33269Y68966D02*
D03*
X140965Y2032D02*
D03*
X138425D02*
D03*
X138430Y52832D02*
D03*
Y45212D02*
D03*
X140970Y52832D02*
D03*
Y45212D02*
D03*
Y29972D02*
D03*
X138430Y22352D02*
D03*
X140970D02*
D03*
Y14732D02*
D03*
X138430Y17272D02*
D03*
X107950Y50292D02*
D03*
X113030D02*
D03*
Y52832D02*
D03*
X107950Y32512D02*
D03*
Y24892D02*
D03*
Y17272D02*
D03*
X105410Y32512D02*
D03*
Y24892D02*
D03*
Y17272D02*
D03*
X107950Y35052D02*
D03*
X105410Y50292D02*
D03*
Y42672D02*
D03*
Y35052D02*
D03*
Y37592D02*
D03*
X107950Y42672D02*
D03*
X145542Y49403D02*
D03*
Y46863D02*
D03*
Y41783D02*
D03*
Y39243D02*
D03*
Y51943D02*
D03*
Y44323D02*
D03*
D20*
X150622Y39243D02*
D03*
X139573Y61849D02*
D03*
X3815Y12568D02*
D03*
Y41270D02*
D03*
X3810Y27940D02*
D03*
X33269Y71506D02*
D03*
X138430Y14732D02*
D03*
D21*
X138425Y4572D02*
D03*
X12100Y19300D02*
D03*
X139573Y72009D02*
D03*
X11811Y46402D02*
D03*
X12002Y32980D02*
D03*
X139573Y69469D02*
D03*
X140970Y27432D02*
D03*
X138430D02*
D03*
X138425Y7112D02*
D03*
X140965D02*
D03*
X138430Y50292D02*
D03*
Y47752D02*
D03*
Y42672D02*
D03*
Y40132D02*
D03*
X140970Y50292D02*
D03*
Y47752D02*
D03*
Y42672D02*
D03*
X138430Y35052D02*
D03*
Y32512D02*
D03*
X140970Y35052D02*
D03*
Y32512D02*
D03*
X138430Y24892D02*
D03*
X140970D02*
D03*
Y19812D02*
D03*
Y17272D02*
D03*
X138430Y19812D02*
D03*
X140970Y40132D02*
D03*
X107950Y52832D02*
D03*
X105423Y27418D02*
D03*
X115570Y50292D02*
D03*
X110490D02*
D03*
Y52832D02*
D03*
X115570D02*
D03*
X107950Y27432D02*
D03*
Y29972D02*
D03*
Y22352D02*
D03*
Y19812D02*
D03*
X105410Y29972D02*
D03*
Y19812D02*
D03*
Y22352D02*
D03*
Y14732D02*
D03*
X107950Y40132D02*
D03*
Y37592D02*
D03*
X105410Y47752D02*
D03*
Y45212D02*
D03*
Y40132D02*
D03*
Y52832D02*
D03*
X107950Y47752D02*
D03*
Y45212D02*
D03*
Y14732D02*
D03*
D22*
X73025Y55499D02*
D03*
D23*
X60745Y5715D02*
D03*
X64006Y18006D02*
D03*
X8006Y68006D02*
D03*
Y8006D02*
D03*
X145834D02*
D03*
Y68006D02*
D03*
D24*
X67945Y5715D02*
D03*
D25*
X77380Y43950D02*
D03*
X80518Y23495D02*
D03*
X47879Y72141D02*
D03*
X59436Y72517D02*
D03*
X30861Y23241D02*
D03*
D26*
X73025Y58039D02*
D03*
Y60579D02*
D03*
Y63119D02*
D03*
D27*
X36061Y4826D02*
D03*
X55626Y66040D02*
D03*
X44069D02*
D03*
X85464Y4826D02*
D03*
D28*
X95599Y48263D02*
D03*
Y70263D02*
D03*
D29*
X15494Y70191D02*
D03*
M02*
