G04*
G04 #@! TF.GenerationSoftware,Altium Limited,Altium Designer Agile,26.2.0 (28)*
G04*
G04 Layer_Physical_Order=2*
G04 Layer_Color=16711680*
%FSLAX43Y43*%
%MOMM*%
G71*
G04*
G04 #@! TF.SameCoordinates,18216BFA-5D26-47D2-858F-60D51CB191BB*
G04*
G04*
G04 #@! TF.FilePolarity,Positive*
G04*
G01*
G75*
%ADD10C,0.600*%
%ADD33C,0.240*%
%ADD34C,1.000*%
%ADD37C,0.250*%
G04:AMPARAMS|DCode=38|XSize=3.2mm|YSize=2mm|CornerRadius=0.5mm|HoleSize=0mm|Usage=FLASHONLY|Rotation=270.000|XOffset=0mm|YOffset=0mm|HoleType=Round|Shape=RoundedRectangle|*
%AMROUNDEDRECTD38*
21,1,3.200,1.000,0,0,270.0*
21,1,2.200,2.000,0,0,270.0*
1,1,1.000,-0.500,-1.100*
1,1,1.000,-0.500,1.100*
1,1,1.000,0.500,1.100*
1,1,1.000,0.500,-1.100*
%
%ADD38ROUNDEDRECTD38*%
%ADD39C,1.600*%
%ADD40C,1.900*%
%ADD41R,1.900X1.900*%
%ADD42R,1.508X1.508*%
%ADD43C,6.000*%
%ADD44R,6.000X6.000*%
%ADD45R,1.900X1.900*%
%ADD46C,1.508*%
%ADD47R,1.600X1.600*%
%ADD48C,3.200*%
%ADD49R,1.600X1.600*%
%ADD50C,0.600*%
G36*
X60385Y71876D02*
X60390Y71842D01*
X60398Y71808D01*
X60410Y71774D01*
X60425Y71740D01*
X60444Y71706D01*
X60466Y71672D01*
X60492Y71638D01*
X60520Y71604D01*
X60553Y71570D01*
X60383Y71400D01*
X60349Y71433D01*
X60315Y71461D01*
X60281Y71487D01*
X60247Y71509D01*
X60213Y71528D01*
X60179Y71543D01*
X60145Y71555D01*
X60111Y71563D01*
X60077Y71568D01*
X60044Y71570D01*
X60383Y71909D01*
X60385Y71876D01*
D02*
G37*
G36*
X139474Y68524D02*
X139333Y68536D01*
X139083Y68543D01*
X138972Y68537D01*
X138872Y68525D01*
X138782Y68506D01*
X138701Y68482D01*
X138631Y68452D01*
X138570Y68416D01*
X138520Y68373D01*
X138366Y68559D01*
X138404Y68604D01*
X138438Y68660D01*
X138471Y68729D01*
X138500Y68810D01*
X138528Y68903D01*
X138552Y69008D01*
X138594Y69254D01*
X138626Y69549D01*
X139474Y68524D01*
D02*
G37*
G36*
X107675Y67757D02*
X107694Y67742D01*
X107715Y67728D01*
X107737Y67716D01*
X107761Y67706D01*
X107785Y67698D01*
X107811Y67692D01*
X107839Y67688D01*
X107867Y67685D01*
X107897Y67684D01*
Y67444D01*
X107867Y67443D01*
X107839Y67440D01*
X107811Y67436D01*
X107785Y67430D01*
X107761Y67422D01*
X107737Y67412D01*
X107715Y67400D01*
X107694Y67386D01*
X107675Y67371D01*
X107656Y67354D01*
Y67774D01*
X107675Y67757D01*
D02*
G37*
G36*
X61635Y67354D02*
X61616Y67371D01*
X61597Y67386D01*
X61576Y67400D01*
X61554Y67412D01*
X61530Y67422D01*
X61506Y67430D01*
X61480Y67436D01*
X61452Y67440D01*
X61424Y67443D01*
X61394Y67444D01*
Y67684D01*
X61424Y67685D01*
X61452Y67688D01*
X61480Y67692D01*
X61506Y67698D01*
X61530Y67706D01*
X61554Y67716D01*
X61576Y67728D01*
X61597Y67742D01*
X61616Y67757D01*
X61635Y67774D01*
Y67354D01*
D02*
G37*
G36*
X56593Y66837D02*
X56560Y66803D01*
X56532Y66769D01*
X56506Y66735D01*
X56484Y66701D01*
X56465Y66667D01*
X56450Y66633D01*
X56438Y66599D01*
X56430Y66565D01*
X56425Y66531D01*
X56423Y66498D01*
X56084Y66837D01*
X56117Y66839D01*
X56151Y66844D01*
X56185Y66852D01*
X56219Y66864D01*
X56253Y66879D01*
X56287Y66898D01*
X56321Y66920D01*
X56355Y66946D01*
X56389Y66974D01*
X56423Y67007D01*
X56593Y66837D01*
D02*
G37*
G36*
X138895Y66264D02*
X138790Y66368D01*
X138505Y66613D01*
X138419Y66673D01*
X138338Y66722D01*
X138262Y66760D01*
X138190Y66787D01*
X138123Y66804D01*
X138061Y66809D01*
Y67049D01*
X138123Y67054D01*
X138190Y67071D01*
X138262Y67098D01*
X138338Y67136D01*
X138419Y67185D01*
X138505Y67245D01*
X138595Y67316D01*
X138790Y67490D01*
X138895Y67594D01*
Y66264D01*
D02*
G37*
G36*
X108945Y65725D02*
X108964Y65710D01*
X108985Y65696D01*
X109007Y65684D01*
X109031Y65674D01*
X109055Y65666D01*
X109081Y65660D01*
X109109Y65656D01*
X109137Y65653D01*
X109167Y65652D01*
Y65412D01*
X109137Y65411D01*
X109109Y65408D01*
X109081Y65404D01*
X109055Y65398D01*
X109031Y65390D01*
X109007Y65380D01*
X108985Y65368D01*
X108964Y65354D01*
X108945Y65339D01*
X108926Y65322D01*
Y65742D01*
X108945Y65725D01*
D02*
G37*
G36*
X44868Y65549D02*
X44873Y65515D01*
X44881Y65481D01*
X44893Y65447D01*
X44908Y65413D01*
X44927Y65379D01*
X44949Y65345D01*
X44975Y65311D01*
X45003Y65277D01*
X45036Y65243D01*
X44866Y65073D01*
X44832Y65106D01*
X44798Y65134D01*
X44764Y65160D01*
X44730Y65182D01*
X44696Y65201D01*
X44662Y65216D01*
X44628Y65228D01*
X44594Y65236D01*
X44560Y65241D01*
X44527Y65243D01*
X44866Y65582D01*
X44868Y65549D01*
D02*
G37*
G36*
X63921Y64433D02*
X63902Y64450D01*
X63883Y64465D01*
X63862Y64479D01*
X63840Y64491D01*
X63816Y64501D01*
X63792Y64509D01*
X63766Y64515D01*
X63738Y64519D01*
X63710Y64522D01*
X63680Y64523D01*
Y64763D01*
X63710Y64764D01*
X63738Y64767D01*
X63766Y64771D01*
X63792Y64777D01*
X63816Y64785D01*
X63840Y64795D01*
X63862Y64807D01*
X63883Y64821D01*
X63902Y64836D01*
X63921Y64853D01*
Y64433D01*
D02*
G37*
G36*
X140524Y64232D02*
X140552Y63857D01*
X140570Y63754D01*
X140593Y63662D01*
X140620Y63581D01*
X140651Y63511D01*
X140687Y63452D01*
X140727Y63404D01*
X140558Y63235D01*
X140510Y63275D01*
X140451Y63311D01*
X140381Y63342D01*
X140300Y63369D01*
X140208Y63392D01*
X140105Y63410D01*
X139991Y63424D01*
X139730Y63438D01*
X139583Y63439D01*
X140523Y64380D01*
X140524Y64232D01*
D02*
G37*
G36*
X73642Y63569D02*
X73791Y63439D01*
X73861Y63386D01*
X73928Y63341D01*
X73992Y63304D01*
X74054Y63276D01*
X74113Y63255D01*
X74169Y63243D01*
X74222Y63239D01*
Y62999D01*
X74169Y62995D01*
X74113Y62983D01*
X74054Y62962D01*
X73992Y62934D01*
X73928Y62897D01*
X73861Y62852D01*
X73791Y62799D01*
X73642Y62669D01*
X73563Y62591D01*
Y63647D01*
X73642Y63569D01*
D02*
G37*
G36*
X138311Y65848D02*
X138398Y65762D01*
X138420Y65746D01*
X138480Y65629D01*
X138291Y65441D01*
X138111Y65171D01*
X137986Y64870D01*
X137923Y64552D01*
Y64226D01*
X137986Y63908D01*
X138111Y63607D01*
X138291Y63337D01*
X138405Y63224D01*
X138353Y63099D01*
X138323D01*
Y62399D01*
X139573D01*
Y61299D01*
X138323D01*
Y61016D01*
X138198Y60965D01*
X137225Y61938D01*
Y65062D01*
X138150Y65987D01*
X138311Y65848D01*
D02*
G37*
G36*
X73642Y61029D02*
X73791Y60899D01*
X73861Y60846D01*
X73928Y60801D01*
X73992Y60764D01*
X74054Y60736D01*
X74113Y60715D01*
X74169Y60703D01*
X74222Y60699D01*
Y60459D01*
X74169Y60455D01*
X74113Y60443D01*
X74054Y60422D01*
X73992Y60394D01*
X73928Y60357D01*
X73861Y60312D01*
X73791Y60259D01*
X73642Y60129D01*
X73563Y60051D01*
Y61107D01*
X73642Y61029D01*
D02*
G37*
G36*
X116379Y59408D02*
X116382Y59383D01*
X116387Y59359D01*
X116394Y59335D01*
X116404Y59312D01*
X116416Y59288D01*
X116430Y59265D01*
X116446Y59243D01*
X116464Y59221D01*
X116485Y59199D01*
X116315Y59029D01*
X116293Y59050D01*
X116271Y59068D01*
X116249Y59084D01*
X116226Y59098D01*
X116202Y59110D01*
X116179Y59120D01*
X116155Y59127D01*
X116131Y59132D01*
X116106Y59135D01*
X116081Y59136D01*
X116378Y59433D01*
X116379Y59408D01*
D02*
G37*
G36*
X128055Y53726D02*
X128077Y53708D01*
X128099Y53692D01*
X128122Y53678D01*
X128146Y53666D01*
X128169Y53656D01*
X128193Y53649D01*
X128217Y53644D01*
X128242Y53641D01*
X128267Y53640D01*
X127970Y53343D01*
X127969Y53368D01*
X127966Y53393D01*
X127961Y53417D01*
X127954Y53441D01*
X127944Y53464D01*
X127932Y53488D01*
X127918Y53511D01*
X127902Y53533D01*
X127884Y53555D01*
X127863Y53577D01*
X128033Y53747D01*
X128055Y53726D01*
D02*
G37*
G36*
X126531Y53218D02*
X126553Y53200D01*
X126575Y53184D01*
X126598Y53170D01*
X126622Y53158D01*
X126645Y53148D01*
X126669Y53141D01*
X126693Y53136D01*
X126718Y53133D01*
X126743Y53132D01*
X126446Y52835D01*
X126445Y52860D01*
X126442Y52885D01*
X126437Y52909D01*
X126430Y52933D01*
X126420Y52956D01*
X126408Y52980D01*
X126394Y53003D01*
X126378Y53025D01*
X126360Y53047D01*
X126339Y53069D01*
X126509Y53239D01*
X126531Y53218D01*
D02*
G37*
G36*
X127448Y47903D02*
X127424Y47902D01*
X127400Y47899D01*
X127377Y47893D01*
X127354Y47886D01*
X127331Y47876D01*
X127308Y47864D01*
X127286Y47850D01*
X127263Y47834D01*
X127241Y47815D01*
X127219Y47794D01*
X127042Y47971D01*
X127063Y47993D01*
X127082Y48015D01*
X127098Y48038D01*
X127112Y48060D01*
X127124Y48083D01*
X127134Y48106D01*
X127141Y48129D01*
X127147Y48152D01*
X127150Y48176D01*
X127151Y48200D01*
X127448Y47903D01*
D02*
G37*
G36*
X53241Y46649D02*
X53190Y46617D01*
X53145Y46578D01*
X53106Y46530D01*
X53073Y46473D01*
X53046Y46408D01*
X53025Y46334D01*
X53010Y46251D01*
X53001Y46160D01*
X52998Y46061D01*
X52398D01*
X52395Y46160D01*
X52386Y46251D01*
X52371Y46334D01*
X52350Y46408D01*
X52323Y46473D01*
X52290Y46530D01*
X52251Y46578D01*
X52206Y46617D01*
X52155Y46649D01*
X52098Y46671D01*
X53298D01*
X53241Y46649D01*
D02*
G37*
G36*
X38502D02*
X38451Y46617D01*
X38406Y46578D01*
X38367Y46530D01*
X38334Y46473D01*
X38307Y46408D01*
X38286Y46334D01*
X38271Y46251D01*
X38262Y46160D01*
X38259Y46061D01*
X37659D01*
X37656Y46160D01*
X37647Y46251D01*
X37632Y46334D01*
X37611Y46408D01*
X37584Y46473D01*
X37551Y46530D01*
X37512Y46578D01*
X37467Y46617D01*
X37416Y46649D01*
X37359Y46671D01*
X38559D01*
X38502Y46649D01*
D02*
G37*
G36*
X127592Y45891D02*
X127573Y45908D01*
X127554Y45923D01*
X127533Y45937D01*
X127511Y45949D01*
X127487Y45958D01*
X127463Y45967D01*
X127437Y45973D01*
X127409Y45977D01*
X127381Y45980D01*
X127351Y45981D01*
Y46221D01*
X127381Y46222D01*
X127409Y46225D01*
X127437Y46229D01*
X127463Y46235D01*
X127487Y46243D01*
X127511Y46253D01*
X127533Y46265D01*
X127554Y46279D01*
X127573Y46294D01*
X127592Y46311D01*
Y45891D01*
D02*
G37*
G36*
X122026Y46294D02*
X122045Y46279D01*
X122066Y46265D01*
X122088Y46253D01*
X122112Y46243D01*
X122136Y46235D01*
X122162Y46229D01*
X122190Y46225D01*
X122218Y46222D01*
X122248Y46221D01*
Y45981D01*
X122218Y45980D01*
X122190Y45977D01*
X122162Y45973D01*
X122136Y45967D01*
X122112Y45958D01*
X122088Y45949D01*
X122066Y45937D01*
X122045Y45923D01*
X122026Y45908D01*
X122007Y45891D01*
Y46311D01*
X122026Y46294D01*
D02*
G37*
G36*
X12742Y46196D02*
X12750Y46185D01*
X12764Y46169D01*
X12878Y46048D01*
X13025Y45900D01*
X12600Y45476D01*
X12564Y45512D01*
X12451Y45612D01*
X12431Y45626D01*
X12413Y45637D01*
X12399Y45643D01*
X12389Y45644D01*
X12381Y45642D01*
X12740Y46202D01*
X12742Y46196D01*
D02*
G37*
G36*
X119306Y45345D02*
X119295Y45323D01*
X119285Y45300D01*
X119276Y45276D01*
X119269Y45251D01*
X119263Y45226D01*
X119259Y45199D01*
X119254Y45143D01*
X119253Y45113D01*
X119013Y45051D01*
X119012Y45082D01*
X119009Y45110D01*
X119004Y45137D01*
X118996Y45161D01*
X118987Y45184D01*
X118976Y45205D01*
X118962Y45224D01*
X118946Y45242D01*
X118929Y45257D01*
X118909Y45271D01*
X119318Y45366D01*
X119306Y45345D01*
D02*
G37*
G36*
X128183Y45002D02*
X128164Y45019D01*
X128145Y45034D01*
X128124Y45048D01*
X128102Y45060D01*
X128078Y45069D01*
X128054Y45078D01*
X128028Y45084D01*
X128000Y45088D01*
X127972Y45091D01*
X127942Y45092D01*
Y45332D01*
X127972Y45333D01*
X128000Y45336D01*
X128028Y45340D01*
X128054Y45346D01*
X128078Y45354D01*
X128102Y45364D01*
X128124Y45376D01*
X128145Y45390D01*
X128164Y45405D01*
X128183Y45422D01*
Y45002D01*
D02*
G37*
G36*
X122153Y45405D02*
X122172Y45390D01*
X122193Y45376D01*
X122215Y45364D01*
X122239Y45354D01*
X122263Y45346D01*
X122289Y45340D01*
X122317Y45336D01*
X122345Y45333D01*
X122375Y45332D01*
Y45092D01*
X122345Y45091D01*
X122317Y45088D01*
X122289Y45084D01*
X122263Y45078D01*
X122239Y45069D01*
X122215Y45060D01*
X122193Y45048D01*
X122172Y45034D01*
X122153Y45019D01*
X122134Y45002D01*
Y45422D01*
X122153Y45405D01*
D02*
G37*
G36*
X118557Y44598D02*
X118542Y44579D01*
X118528Y44558D01*
X118516Y44536D01*
X118507Y44512D01*
X118498Y44488D01*
X118492Y44462D01*
X118488Y44434D01*
X118485Y44406D01*
X118484Y44376D01*
X118244D01*
X118243Y44406D01*
X118240Y44434D01*
X118236Y44462D01*
X118230Y44488D01*
X118221Y44512D01*
X118212Y44536D01*
X118200Y44558D01*
X118186Y44579D01*
X118171Y44598D01*
X118154Y44617D01*
X118574D01*
X118557Y44598D01*
D02*
G37*
G36*
X130850Y43732D02*
X130831Y43749D01*
X130812Y43764D01*
X130791Y43778D01*
X130769Y43790D01*
X130745Y43799D01*
X130721Y43808D01*
X130695Y43814D01*
X130667Y43818D01*
X130639Y43821D01*
X130609Y43822D01*
Y44062D01*
X130639Y44063D01*
X130667Y44066D01*
X130695Y44070D01*
X130721Y44076D01*
X130745Y44084D01*
X130769Y44094D01*
X130791Y44106D01*
X130812Y44120D01*
X130831Y44135D01*
X130850Y44152D01*
Y43732D01*
D02*
G37*
G36*
X122661Y44135D02*
X122680Y44120D01*
X122701Y44106D01*
X122723Y44094D01*
X122747Y44084D01*
X122771Y44076D01*
X122797Y44070D01*
X122825Y44066D01*
X122853Y44063D01*
X122883Y44062D01*
Y43822D01*
X122853Y43821D01*
X122825Y43818D01*
X122797Y43814D01*
X122771Y43808D01*
X122747Y43799D01*
X122723Y43790D01*
X122701Y43778D01*
X122680Y43764D01*
X122661Y43749D01*
X122642Y43732D01*
Y44152D01*
X122661Y44135D01*
D02*
G37*
G36*
X131231Y42462D02*
X131212Y42479D01*
X131193Y42494D01*
X131172Y42508D01*
X131150Y42520D01*
X131126Y42529D01*
X131102Y42538D01*
X131076Y42544D01*
X131048Y42548D01*
X131020Y42551D01*
X130990Y42552D01*
Y42792D01*
X131020Y42793D01*
X131048Y42796D01*
X131076Y42800D01*
X131102Y42806D01*
X131126Y42814D01*
X131150Y42824D01*
X131172Y42836D01*
X131193Y42850D01*
X131212Y42865D01*
X131231Y42882D01*
Y42462D01*
D02*
G37*
G36*
X123042Y42865D02*
X123061Y42850D01*
X123082Y42836D01*
X123104Y42824D01*
X123128Y42814D01*
X123152Y42806D01*
X123178Y42800D01*
X123206Y42796D01*
X123234Y42793D01*
X123264Y42792D01*
Y42552D01*
X123234Y42551D01*
X123206Y42548D01*
X123178Y42544D01*
X123152Y42538D01*
X123128Y42529D01*
X123104Y42520D01*
X123082Y42508D01*
X123061Y42494D01*
X123042Y42479D01*
X123023Y42462D01*
Y42882D01*
X123042Y42865D01*
D02*
G37*
G36*
X4932Y42217D02*
X4899Y42183D01*
X4871Y42149D01*
X4845Y42115D01*
X4823Y42081D01*
X4804Y42047D01*
X4789Y42013D01*
X4777Y41979D01*
X4769Y41945D01*
X4764Y41911D01*
X4762Y41878D01*
X4423Y42217D01*
X4457Y42219D01*
X4490Y42224D01*
X4524Y42232D01*
X4558Y42244D01*
X4592Y42259D01*
X4626Y42278D01*
X4660Y42300D01*
X4694Y42326D01*
X4728Y42354D01*
X4762Y42387D01*
X4932Y42217D01*
D02*
G37*
G36*
X13030Y42292D02*
X12971Y42228D01*
X12919Y42159D01*
X12874Y42088D01*
X12836Y42012D01*
X12806Y41932D01*
X12782Y41849D01*
X12765Y41762D01*
X12756Y41672D01*
X12753Y41577D01*
X12758Y41479D01*
X11753Y42350D01*
X11854Y42359D01*
X11952Y42374D01*
X12044Y42394D01*
X12133Y42419D01*
X12217Y42450D01*
X12297Y42486D01*
X12373Y42527D01*
X12444Y42574D01*
X12511Y42627D01*
X12574Y42684D01*
X13030Y42292D01*
D02*
G37*
G36*
X11791Y40452D02*
X11691Y40451D01*
X11595Y40444D01*
X11504Y40430D01*
X11416Y40410D01*
X11332Y40383D01*
X11252Y40350D01*
X11176Y40311D01*
X11105Y40265D01*
X11037Y40213D01*
X10973Y40154D01*
X10554Y40583D01*
X10612Y40647D01*
X10664Y40714D01*
X10710Y40786D01*
X10750Y40862D01*
X10784Y40942D01*
X10812Y41026D01*
X10833Y41114D01*
X10849Y41206D01*
X10858Y41302D01*
X10861Y41403D01*
X11791Y40452D01*
D02*
G37*
G36*
X137493Y41246D02*
X137552Y41210D01*
X137622Y41179D01*
X137703Y41152D01*
X137795Y41129D01*
X137898Y41111D01*
X138012Y41097D01*
X138273Y41083D01*
X138421Y41082D01*
X137480Y40141D01*
X137479Y40289D01*
X137451Y40664D01*
X137433Y40767D01*
X137410Y40859D01*
X137383Y40940D01*
X137352Y41010D01*
X137316Y41069D01*
X137276Y41117D01*
X137445Y41286D01*
X137493Y41246D01*
D02*
G37*
G36*
X140960Y39182D02*
X140813Y39181D01*
X140438Y39153D01*
X140335Y39135D01*
X140243Y39112D01*
X140162Y39085D01*
X140092Y39054D01*
X140033Y39018D01*
X139985Y38978D01*
X139816Y39147D01*
X139856Y39195D01*
X139892Y39254D01*
X139923Y39324D01*
X139950Y39405D01*
X139973Y39497D01*
X139991Y39600D01*
X140005Y39714D01*
X140019Y39975D01*
X140020Y40123D01*
X140960Y39182D01*
D02*
G37*
G36*
X140568Y75661D02*
X141713Y75479D01*
X142840Y75209D01*
X143942Y74851D01*
X145012Y74407D01*
X146044Y73881D01*
X147032Y73276D01*
X147970Y72595D01*
X148851Y71842D01*
X149670Y71023D01*
X150423Y70142D01*
X151104Y69205D01*
X151709Y68217D01*
X152235Y67184D01*
X152678Y66114D01*
X153037Y65012D01*
X153307Y63885D01*
X153488Y62741D01*
X153579Y61586D01*
Y61006D01*
Y15006D01*
Y14427D01*
X153488Y13272D01*
X153307Y12127D01*
X153037Y11001D01*
X152678Y9899D01*
X152235Y8828D01*
X151709Y7796D01*
X151104Y6808D01*
X150423Y5871D01*
X149670Y4990D01*
X148851Y4170D01*
X147970Y3418D01*
X147032Y2737D01*
X146044Y2131D01*
X145012Y1605D01*
X143942Y1162D01*
X142840Y804D01*
X142032Y610D01*
X141981Y726D01*
X142017Y750D01*
X142247Y980D01*
X142427Y1250D01*
X142552Y1551D01*
X142615Y1869D01*
Y2195D01*
X142552Y2513D01*
X142427Y2814D01*
X142247Y3084D01*
X142017Y3314D01*
X141794Y3463D01*
X141784Y3481D01*
X141771Y3589D01*
X141777Y3617D01*
X141965Y3804D01*
X142091Y4022D01*
X140965D01*
Y5122D01*
X142091D01*
X141965Y5340D01*
X141777Y5527D01*
X141771Y5555D01*
X141784Y5663D01*
X141794Y5681D01*
X142017Y5830D01*
X142247Y6060D01*
X142409Y6303D01*
X142542Y6317D01*
X142670Y6067D01*
X143012Y5596D01*
X143424Y5184D01*
X143895Y4842D01*
X144414Y4577D01*
X144968Y4397D01*
X145543Y4306D01*
X146125D01*
X146700Y4397D01*
X147254Y4577D01*
X147773Y4842D01*
X148244Y5184D01*
X148656Y5596D01*
X148999Y6067D01*
X149263Y6586D01*
X149443Y7140D01*
X149534Y7715D01*
Y8298D01*
X149443Y8873D01*
X149263Y9427D01*
X148999Y9946D01*
X148656Y10417D01*
X148244Y10829D01*
X147773Y11171D01*
X147254Y11435D01*
X146700Y11615D01*
X146125Y11706D01*
X145543D01*
X144968Y11615D01*
X144414Y11435D01*
X143895Y11171D01*
X143424Y10829D01*
X143012Y10417D01*
X142670Y9946D01*
X142405Y9427D01*
X142225Y8873D01*
X142155Y8432D01*
X142022Y8389D01*
X142017Y8394D01*
X141747Y8574D01*
X141446Y8699D01*
X141128Y8762D01*
X140803D01*
X140484Y8699D01*
X140183Y8574D01*
X139913Y8394D01*
X139829Y8309D01*
X139798Y8287D01*
X139742Y8233D01*
X139705Y8202D01*
X139695Y8195D01*
X139685Y8202D01*
X139648Y8233D01*
X139592Y8287D01*
X139561Y8309D01*
X139477Y8394D01*
X139207Y8574D01*
X138906Y8699D01*
X138588Y8762D01*
X138263D01*
X137944Y8699D01*
X137643Y8574D01*
X137373Y8394D01*
X137143Y8164D01*
X137120Y8130D01*
X137114Y8123D01*
X137071Y8070D01*
X137048Y8045D01*
X137028Y8028D01*
X137012Y8016D01*
X136999Y8008D01*
X136987Y8003D01*
X136976Y7999D01*
X136962Y7995D01*
X136950Y7994D01*
X122484D01*
X122436Y8109D01*
X131649Y17322D01*
X131649Y17322D01*
X131780Y17493D01*
X131863Y17693D01*
X131891Y17907D01*
X131891Y17907D01*
Y23748D01*
X132007Y23796D01*
X136575Y19227D01*
X136746Y19096D01*
X136946Y19013D01*
X136983Y19008D01*
X137148Y18760D01*
X137367Y18542D01*
X137148Y18324D01*
X136968Y18054D01*
X136843Y17753D01*
X136780Y17435D01*
Y17109D01*
X136843Y16791D01*
X136961Y16507D01*
X136921Y16402D01*
X136910Y16382D01*
X136780D01*
Y13082D01*
X140080D01*
Y13212D01*
X140100Y13223D01*
X140205Y13263D01*
X140489Y13145D01*
X140807Y13082D01*
X141133D01*
X141451Y13145D01*
X141752Y13270D01*
X142022Y13450D01*
X142252Y13680D01*
X142432Y13950D01*
X142557Y14251D01*
X142620Y14569D01*
Y14895D01*
X142557Y15213D01*
X142432Y15514D01*
X142252Y15784D01*
X142033Y16002D01*
X142252Y16220D01*
X142432Y16490D01*
X142557Y16791D01*
X142620Y17109D01*
Y17435D01*
X142557Y17753D01*
X142432Y18054D01*
X142252Y18324D01*
X142033Y18542D01*
X142252Y18760D01*
X142432Y19030D01*
X142557Y19331D01*
X142620Y19649D01*
Y19975D01*
X142557Y20293D01*
X142432Y20594D01*
X142252Y20864D01*
X142063Y21052D01*
X142123Y21169D01*
X142145Y21185D01*
X142237Y21276D01*
X142401Y21423D01*
X142459Y21468D01*
X142510Y21504D01*
X142544Y21525D01*
X150817D01*
X150998Y21420D01*
X151252Y21352D01*
X151516D01*
X151770Y21420D01*
X151998Y21552D01*
X152184Y21738D01*
X152316Y21966D01*
X152384Y22220D01*
Y22484D01*
X152316Y22738D01*
X152184Y22966D01*
X151998Y23152D01*
X151770Y23284D01*
X151516Y23352D01*
X151252D01*
X150998Y23284D01*
X150817Y23179D01*
X142544D01*
X142510Y23200D01*
X142472Y23227D01*
X142232Y23433D01*
X142145Y23519D01*
X142123Y23535D01*
X142063Y23652D01*
X142252Y23840D01*
X142432Y24110D01*
X142557Y24411D01*
X142620Y24729D01*
Y25055D01*
X142583Y25238D01*
X142663Y25335D01*
X143510D01*
X143724Y25363D01*
X143924Y25446D01*
X144095Y25577D01*
X144476Y25958D01*
X144607Y26129D01*
X144690Y26329D01*
X144718Y26543D01*
Y37663D01*
X144843Y37747D01*
X145061Y37656D01*
X145379Y37593D01*
X145705D01*
X146023Y37656D01*
X146324Y37781D01*
X146594Y37961D01*
X146812Y38180D01*
X147030Y37961D01*
X147300Y37781D01*
X147601Y37656D01*
X147919Y37593D01*
X148245D01*
X148563Y37656D01*
X148864Y37781D01*
X149134Y37961D01*
X149247Y38075D01*
X149372Y38023D01*
Y37993D01*
X150072D01*
Y39243D01*
X150622D01*
Y39793D01*
X151872D01*
Y40493D01*
X151120D01*
X151104Y40618D01*
X151104Y40618D01*
X151390Y40783D01*
X151622Y41015D01*
X151748Y41233D01*
X150622D01*
Y42333D01*
X151748D01*
X151622Y42551D01*
X151390Y42783D01*
X151104Y42948D01*
X150953Y42988D01*
Y43118D01*
X151104Y43158D01*
X151390Y43323D01*
X151622Y43555D01*
X151748Y43773D01*
X150622D01*
Y44873D01*
X151748D01*
X151622Y45091D01*
X151390Y45323D01*
X151104Y45488D01*
X150953Y45528D01*
Y45658D01*
X151104Y45698D01*
X151390Y45863D01*
X151622Y46095D01*
X151748Y46313D01*
X150622D01*
Y47413D01*
X151748D01*
X151622Y47631D01*
X151390Y47863D01*
X151104Y48028D01*
X150953Y48068D01*
Y48198D01*
X151104Y48238D01*
X151390Y48403D01*
X151622Y48635D01*
X151748Y48853D01*
X150622D01*
Y49953D01*
X151748D01*
X151622Y50171D01*
X151390Y50403D01*
X151104Y50568D01*
X150953Y50608D01*
Y50738D01*
X151104Y50778D01*
X151390Y50943D01*
X151622Y51175D01*
X151748Y51393D01*
X150622D01*
Y51943D01*
X150072D01*
Y53069D01*
X149854Y52943D01*
X149667Y52755D01*
X149639Y52749D01*
X149531Y52762D01*
X149513Y52772D01*
X149364Y52995D01*
X149134Y53225D01*
X148864Y53405D01*
X148563Y53530D01*
X148245Y53593D01*
X147919D01*
X147601Y53530D01*
X147300Y53405D01*
X147030Y53225D01*
X146812Y53006D01*
X146594Y53225D01*
X146324Y53405D01*
X146023Y53530D01*
X145705Y53593D01*
X145379D01*
X145061Y53530D01*
X144843Y53439D01*
X144718Y53523D01*
Y60071D01*
X144690Y60285D01*
X144607Y60485D01*
X144476Y60656D01*
X141271Y63861D01*
X141261Y63900D01*
X141253Y63946D01*
X141230Y64261D01*
X141229Y64383D01*
X141223Y64427D01*
Y64552D01*
X141160Y64870D01*
X141035Y65171D01*
X140855Y65441D01*
X140636Y65659D01*
X140855Y65877D01*
X141035Y66147D01*
X141160Y66448D01*
X141223Y66766D01*
Y67092D01*
X141160Y67410D01*
X141035Y67711D01*
X140855Y67981D01*
X140636Y68199D01*
X140855Y68417D01*
X141035Y68687D01*
X141160Y68988D01*
X141223Y69306D01*
Y69632D01*
X141160Y69950D01*
X141035Y70251D01*
X140855Y70521D01*
X140636Y70739D01*
X140855Y70957D01*
X141035Y71227D01*
X141160Y71528D01*
X141223Y71846D01*
Y72172D01*
X141160Y72490D01*
X141035Y72791D01*
X140855Y73061D01*
X140625Y73291D01*
X140355Y73471D01*
X140054Y73596D01*
X139736Y73659D01*
X139410D01*
X139092Y73596D01*
X138791Y73471D01*
X138521Y73291D01*
X138291Y73061D01*
X138111Y72791D01*
X137986Y72490D01*
X137923Y72172D01*
Y71846D01*
X137986Y71528D01*
X138111Y71227D01*
X138291Y70957D01*
X138510Y70739D01*
X138291Y70521D01*
X138111Y70251D01*
X137986Y69950D01*
X137923Y69632D01*
Y69612D01*
X137895Y69352D01*
X137860Y69148D01*
X137845Y69083D01*
X137829Y69031D01*
X137824Y69017D01*
X135051Y66244D01*
X134920Y66073D01*
X134837Y65873D01*
X134809Y65659D01*
Y61341D01*
X134837Y61127D01*
X134920Y60927D01*
X135051Y60756D01*
X136829Y58978D01*
X136829Y58978D01*
X137000Y58847D01*
X137200Y58764D01*
X137414Y58736D01*
X142048D01*
Y54247D01*
X141923Y54180D01*
X141752Y54294D01*
X141451Y54419D01*
X141133Y54482D01*
X140807D01*
X140489Y54419D01*
X140188Y54294D01*
X139918Y54114D01*
X139700Y53895D01*
X139482Y54114D01*
X139212Y54294D01*
X138911Y54419D01*
X138593Y54482D01*
X138267D01*
X137949Y54419D01*
X137648Y54294D01*
X137378Y54114D01*
X137148Y53884D01*
X136968Y53614D01*
X136843Y53313D01*
X136780Y52995D01*
Y52669D01*
X136843Y52351D01*
X136968Y52050D01*
X137148Y51780D01*
X137367Y51562D01*
X137148Y51344D01*
X136968Y51074D01*
X136843Y50773D01*
X136780Y50455D01*
Y50129D01*
X136843Y49811D01*
X136968Y49510D01*
X137148Y49240D01*
X137367Y49022D01*
X137148Y48804D01*
X136968Y48534D01*
X136843Y48233D01*
X136780Y47915D01*
Y47589D01*
X136843Y47271D01*
X136968Y46970D01*
X137148Y46700D01*
X137367Y46482D01*
X137148Y46264D01*
X136968Y45994D01*
X136843Y45693D01*
X136780Y45375D01*
Y45049D01*
X136843Y44731D01*
X136968Y44430D01*
X137148Y44160D01*
X137367Y43942D01*
X137148Y43724D01*
X136968Y43454D01*
X136843Y43153D01*
X136825Y43062D01*
X136706Y43026D01*
X127530Y52202D01*
X127546Y52218D01*
X127650Y52399D01*
X127796Y52459D01*
X127884Y52408D01*
X128138Y52340D01*
X128402D01*
X128656Y52408D01*
X128884Y52540D01*
X129070Y52726D01*
X129202Y52954D01*
X129270Y53208D01*
Y53472D01*
X129202Y53726D01*
X129070Y53954D01*
X128884Y54140D01*
X128656Y54272D01*
X128454Y54326D01*
X114631Y68149D01*
X114460Y68280D01*
X114260Y68363D01*
X114046Y68391D01*
X108009D01*
X107828Y68496D01*
X107574Y68564D01*
X107310D01*
X107056Y68496D01*
X106828Y68364D01*
X106642Y68178D01*
X106510Y67950D01*
X106442Y67696D01*
Y67432D01*
X106510Y67178D01*
X106642Y66950D01*
X106828Y66764D01*
X107056Y66632D01*
X107310Y66564D01*
X107574D01*
X107828Y66632D01*
X108009Y66737D01*
X113703D01*
X113956Y66484D01*
X113904Y66359D01*
X109279D01*
X109098Y66464D01*
X108844Y66532D01*
X108580D01*
X108326Y66464D01*
X108098Y66332D01*
X107912Y66146D01*
X107780Y65918D01*
X107712Y65664D01*
Y65400D01*
X107780Y65146D01*
X107912Y64918D01*
X108098Y64732D01*
X108326Y64600D01*
X108580Y64532D01*
X108844D01*
X109098Y64600D01*
X109279Y64705D01*
X113703D01*
X114347Y64062D01*
X114299Y63946D01*
X74293D01*
X74270Y63962D01*
X74237Y63986D01*
X74123Y64086D01*
X74059Y64149D01*
X74025Y64176D01*
X73918Y64282D01*
X73586Y64474D01*
X73216Y64573D01*
X72834D01*
X72464Y64474D01*
X72132Y64282D01*
X71862Y64012D01*
X71670Y63680D01*
X71571Y63310D01*
Y62928D01*
X71670Y62558D01*
X71862Y62226D01*
X72132Y61956D01*
X72208Y61911D01*
Y61786D01*
X72132Y61742D01*
X71862Y61472D01*
X71836Y61427D01*
X71712Y61411D01*
X62330Y70793D01*
X62366Y70912D01*
X62457Y70930D01*
X62758Y71055D01*
X63028Y71235D01*
X63258Y71465D01*
X63411Y71695D01*
X63431Y71705D01*
X63527Y71719D01*
X63564Y71712D01*
X63754Y71522D01*
X63971Y71396D01*
Y72522D01*
Y73648D01*
X63754Y73522D01*
X63561Y73329D01*
X63532Y73322D01*
X63432Y73333D01*
X63408Y73344D01*
X63258Y73569D01*
X63028Y73799D01*
X62758Y73979D01*
X62457Y74104D01*
X62139Y74167D01*
X61813D01*
X61495Y74104D01*
X61211Y73986D01*
X61106Y74026D01*
X61086Y74037D01*
Y74167D01*
X57786D01*
Y70867D01*
X59916D01*
X62130Y68653D01*
X62065Y68541D01*
X61981Y68564D01*
X61717D01*
X61463Y68496D01*
X61282Y68391D01*
X57150D01*
X56936Y68363D01*
X56736Y68280D01*
X56565Y68149D01*
X55956Y67540D01*
X54126D01*
Y65470D01*
X47635D01*
X47573Y65578D01*
X47594Y65615D01*
X47601Y65640D01*
X46569D01*
Y66040D01*
X46169D01*
Y67072D01*
X46144Y67065D01*
X45894Y66920D01*
X45694Y66721D01*
X45662Y66723D01*
X45569Y66748D01*
Y67540D01*
X42569D01*
Y64540D01*
X44399D01*
X44881Y64058D01*
X44881Y64058D01*
X45052Y63927D01*
X45252Y63844D01*
X45466Y63816D01*
X63568D01*
X63749Y63711D01*
X64003Y63643D01*
X64267D01*
X64521Y63711D01*
X64749Y63843D01*
X64935Y64029D01*
X65067Y64257D01*
X65135Y64511D01*
Y64775D01*
X65067Y65029D01*
X64935Y65257D01*
X64749Y65443D01*
X64521Y65575D01*
X64267Y65643D01*
X64003D01*
X63749Y65575D01*
X63568Y65470D01*
X59192D01*
X59130Y65578D01*
X59151Y65615D01*
X59158Y65640D01*
X58126D01*
Y66440D01*
X59158D01*
X59151Y66465D01*
X59066Y66612D01*
X59138Y66737D01*
X61282D01*
X61463Y66632D01*
X61717Y66564D01*
X61981D01*
X62235Y66632D01*
X62463Y66764D01*
X62649Y66950D01*
X62781Y67178D01*
X62849Y67432D01*
Y67696D01*
X62826Y67780D01*
X62938Y67845D01*
X71858Y58925D01*
X71670Y58600D01*
X71571Y58230D01*
Y57848D01*
X71670Y57478D01*
X71862Y57146D01*
X72132Y56876D01*
X72464Y56684D01*
X72834Y56585D01*
X73216D01*
X73586Y56684D01*
X73918Y56876D01*
X74188Y57146D01*
X74380Y57478D01*
X74479Y57848D01*
Y58230D01*
X74463Y58289D01*
X74539Y58388D01*
X101873D01*
X102678Y57583D01*
Y52449D01*
X102562Y52401D01*
X101928Y53036D01*
X101756Y53167D01*
X101557Y53250D01*
X101343Y53278D01*
X34961D01*
X34881Y53375D01*
X34919Y53564D01*
Y53889D01*
X34856Y54207D01*
X34731Y54508D01*
X34551Y54778D01*
X34332Y54996D01*
X34551Y55214D01*
X34731Y55484D01*
X34856Y55785D01*
X34919Y56104D01*
Y56429D01*
X34856Y56747D01*
X34731Y57048D01*
X34551Y57318D01*
X34332Y57536D01*
X34551Y57754D01*
X34731Y58024D01*
X34856Y58325D01*
X34919Y58644D01*
Y58969D01*
X34856Y59287D01*
X34731Y59588D01*
X34551Y59858D01*
X34332Y60076D01*
X34551Y60294D01*
X34731Y60564D01*
X34856Y60865D01*
X34919Y61184D01*
Y61509D01*
X34856Y61827D01*
X34731Y62128D01*
X34551Y62398D01*
X34332Y62616D01*
X34551Y62834D01*
X34731Y63104D01*
X34856Y63405D01*
X34919Y63724D01*
Y64049D01*
X34856Y64367D01*
X34731Y64668D01*
X34551Y64938D01*
X34337Y65151D01*
X34556Y65369D01*
X34736Y65639D01*
X34861Y65940D01*
X34924Y66258D01*
Y66584D01*
X34861Y66902D01*
X34736Y67203D01*
X34556Y67473D01*
X34332Y67696D01*
X34551Y67914D01*
X34731Y68184D01*
X34856Y68485D01*
X34919Y68804D01*
Y69129D01*
X34856Y69447D01*
X34738Y69731D01*
X34778Y69836D01*
X34789Y69856D01*
X34919D01*
Y73156D01*
X31619D01*
Y69856D01*
X31749D01*
X31760Y69836D01*
X31800Y69731D01*
X31682Y69447D01*
X31619Y69129D01*
Y68804D01*
X31682Y68485D01*
X31807Y68184D01*
X31987Y67914D01*
X32211Y67691D01*
X31992Y67473D01*
X31812Y67203D01*
X31687Y66902D01*
X31624Y66584D01*
Y66258D01*
X31687Y65940D01*
X31812Y65639D01*
X31992Y65369D01*
X32206Y65156D01*
X31987Y64938D01*
X31807Y64668D01*
X31682Y64367D01*
X31619Y64049D01*
Y63724D01*
X31682Y63405D01*
X31807Y63104D01*
X31987Y62834D01*
X32206Y62616D01*
X31987Y62398D01*
X31807Y62128D01*
X31682Y61827D01*
X31619Y61509D01*
Y61184D01*
X31682Y60865D01*
X31807Y60564D01*
X31987Y60294D01*
X32206Y60076D01*
X31987Y59858D01*
X31807Y59588D01*
X31682Y59287D01*
X31619Y58969D01*
Y58644D01*
X31682Y58325D01*
X31807Y58024D01*
X31987Y57754D01*
X32206Y57536D01*
X31987Y57318D01*
X31807Y57048D01*
X31682Y56747D01*
X31619Y56429D01*
Y56104D01*
X31682Y55785D01*
X31807Y55484D01*
X31987Y55214D01*
X32206Y54996D01*
X31987Y54778D01*
X31807Y54508D01*
X31682Y54207D01*
X31619Y53889D01*
Y53564D01*
X31657Y53375D01*
X31577Y53278D01*
X22961D01*
X22881Y53375D01*
X22919Y53564D01*
Y53889D01*
X22856Y54207D01*
X22731Y54508D01*
X22551Y54778D01*
X22321Y55008D01*
X22098Y55157D01*
X22088Y55175D01*
X22075Y55283D01*
X22081Y55311D01*
X22269Y55499D01*
X22395Y55716D01*
X21269D01*
X20143D01*
X20269Y55499D01*
X20457Y55311D01*
X20463Y55283D01*
X20450Y55175D01*
X20440Y55157D01*
X20217Y55008D01*
X19987Y54778D01*
X19807Y54508D01*
X19682Y54207D01*
X19619Y53889D01*
Y53564D01*
X19657Y53375D01*
X19577Y53278D01*
X13172D01*
X13103Y53382D01*
X13126Y53438D01*
X13184Y53728D01*
Y54024D01*
X13126Y54314D01*
X13013Y54587D01*
X12849Y54832D01*
X12640Y55041D01*
X12395Y55205D01*
X12122Y55318D01*
X11832Y55376D01*
X11536D01*
X11246Y55318D01*
X10973Y55205D01*
X10728Y55041D01*
X10519Y54832D01*
X10355Y54587D01*
X10242Y54314D01*
X10184Y54024D01*
Y53728D01*
X10242Y53438D01*
X10265Y53382D01*
X10196Y53278D01*
X5856D01*
X5642Y53250D01*
X5442Y53167D01*
X5271Y53036D01*
X4990Y52755D01*
X4858Y52583D01*
X4776Y52384D01*
X4747Y52170D01*
Y47349D01*
X4632Y47301D01*
X4578Y47355D01*
X4360Y47481D01*
Y46355D01*
X3810D01*
Y45805D01*
X2684D01*
X2810Y45587D01*
X3003Y45395D01*
X3010Y45366D01*
X2999Y45266D01*
X2988Y45242D01*
X2763Y45092D01*
X2533Y44862D01*
X2353Y44592D01*
X2228Y44291D01*
X2165Y43972D01*
Y43647D01*
X2228Y43329D01*
X2346Y43045D01*
X2306Y42940D01*
X2295Y42920D01*
X2165D01*
Y39620D01*
X5465D01*
Y41750D01*
X6159Y42445D01*
X6291Y42616D01*
X6373Y42815D01*
X6401Y43029D01*
Y51624D01*
X101000D01*
X102170Y50454D01*
Y36961D01*
X102054Y36913D01*
X100027Y38940D01*
X99818Y39100D01*
X99575Y39201D01*
X99314Y39236D01*
X53707D01*
Y46072D01*
X53803Y46112D01*
X54054Y46304D01*
X54246Y46555D01*
X54367Y46847D01*
X54408Y47160D01*
Y49360D01*
X54367Y49673D01*
X54246Y49965D01*
X54054Y50216D01*
X53803Y50408D01*
X53511Y50529D01*
X53198Y50570D01*
X52198D01*
X51885Y50529D01*
X51593Y50408D01*
X51342Y50216D01*
X51150Y49965D01*
X51029Y49673D01*
X50988Y49360D01*
Y47160D01*
X51029Y46847D01*
X51150Y46555D01*
X51342Y46304D01*
X51593Y46112D01*
X51689Y46072D01*
Y38227D01*
X51724Y37966D01*
X51825Y37723D01*
X51985Y37514D01*
X52194Y37354D01*
X52437Y37253D01*
X52698Y37218D01*
X98896D01*
X101353Y34761D01*
Y14153D01*
X101238Y14105D01*
X96756Y18587D01*
X96584Y18718D01*
X96385Y18801D01*
X96171Y18829D01*
X88893D01*
X85949Y21774D01*
X85985Y21894D01*
X86084Y21913D01*
X86385Y22038D01*
X86655Y22218D01*
X86868Y22432D01*
X87086Y22213D01*
X87356Y22033D01*
X87657Y21908D01*
X87975Y21845D01*
X88301D01*
X88619Y21908D01*
X88920Y22033D01*
X89190Y22213D01*
X89408Y22432D01*
X89626Y22213D01*
X89896Y22033D01*
X90197Y21908D01*
X90515Y21845D01*
X90841D01*
X91159Y21908D01*
X91460Y22033D01*
X91730Y22213D01*
X91948Y22432D01*
X92166Y22213D01*
X92436Y22033D01*
X92737Y21908D01*
X93055Y21845D01*
X93381D01*
X93699Y21908D01*
X94000Y22033D01*
X94270Y22213D01*
X94488Y22432D01*
X94706Y22213D01*
X94976Y22033D01*
X95277Y21908D01*
X95595Y21845D01*
X95921D01*
X96239Y21908D01*
X96540Y22033D01*
X96810Y22213D01*
X97028Y22432D01*
X97246Y22213D01*
X97516Y22033D01*
X97817Y21908D01*
X98135Y21845D01*
X98461D01*
X98779Y21908D01*
X99080Y22033D01*
X99350Y22213D01*
X99580Y22443D01*
X99760Y22713D01*
X99885Y23014D01*
X99948Y23332D01*
Y23658D01*
X99885Y23976D01*
X99760Y24277D01*
X99580Y24547D01*
X99350Y24777D01*
X99080Y24957D01*
X98779Y25082D01*
X98461Y25145D01*
X98135D01*
X97817Y25082D01*
X97516Y24957D01*
X97246Y24777D01*
X97028Y24558D01*
X96810Y24777D01*
X96540Y24957D01*
X96239Y25082D01*
X95921Y25145D01*
X95801D01*
X95763Y25151D01*
X95686Y25152D01*
X95638Y25157D01*
X95597Y25163D01*
X95563Y25171D01*
X95533Y25181D01*
X95509Y25191D01*
X95487Y25202D01*
X95468Y25215D01*
X95454Y25226D01*
X93931Y26748D01*
X93722Y26909D01*
X93479Y27009D01*
X93218Y27044D01*
X87940D01*
X87892Y27159D01*
X89993Y29260D01*
X90124Y29431D01*
X90207Y29631D01*
X90235Y29845D01*
Y30350D01*
X90243D01*
X90561Y30413D01*
X90862Y30538D01*
X91132Y30718D01*
X91362Y30948D01*
X91542Y31218D01*
X91667Y31519D01*
X91730Y31837D01*
Y32163D01*
X91667Y32481D01*
X91542Y32782D01*
X91362Y33052D01*
X91132Y33282D01*
X90862Y33462D01*
X90561Y33587D01*
X90243Y33650D01*
X89917D01*
X89599Y33587D01*
X89298Y33462D01*
X89028Y33282D01*
X88813Y33066D01*
X88592Y33287D01*
X88322Y33467D01*
X88021Y33592D01*
X87703Y33655D01*
X87377D01*
X87059Y33592D01*
X86758Y33467D01*
X86488Y33287D01*
X86258Y33057D01*
X86107Y32831D01*
X86092Y32822D01*
X85985Y32807D01*
X85954Y32814D01*
X85768Y33000D01*
X85550Y33126D01*
Y32000D01*
Y30874D01*
X85768Y31000D01*
X85890Y31123D01*
X85958Y31132D01*
X86050Y31113D01*
X86068Y31088D01*
X86041Y30884D01*
Y30193D01*
X84130Y28282D01*
X18181D01*
X18039Y28364D01*
X17785Y28432D01*
X17521D01*
X17519Y28434D01*
Y31815D01*
X17519Y31822D01*
X17526Y31883D01*
X17536Y31940D01*
X17551Y31992D01*
X17569Y32041D01*
X17591Y32089D01*
X17618Y32136D01*
X17650Y32184D01*
X17688Y32232D01*
X17693Y32237D01*
X19763Y34307D01*
X19763Y34307D01*
X19924Y34516D01*
X20024Y34759D01*
X20059Y35020D01*
X20059Y35020D01*
Y44679D01*
X37959D01*
X38220Y44714D01*
X38463Y44814D01*
X38672Y44975D01*
X38833Y45184D01*
X38933Y45427D01*
X38968Y45688D01*
X38964Y45718D01*
X38968Y45748D01*
Y46072D01*
X39064Y46112D01*
X39315Y46304D01*
X39507Y46555D01*
X39628Y46847D01*
X39669Y47160D01*
Y49360D01*
X39628Y49673D01*
X39507Y49965D01*
X39315Y50216D01*
X39064Y50408D01*
X38772Y50529D01*
X38459Y50570D01*
X37459D01*
X37146Y50529D01*
X36854Y50408D01*
X36603Y50216D01*
X36411Y49965D01*
X36290Y49673D01*
X36249Y49360D01*
Y47160D01*
X36290Y46847D01*
X36309Y46801D01*
X36240Y46697D01*
X28861D01*
X28785Y46822D01*
X28838Y46951D01*
X28866Y47160D01*
Y47710D01*
X27559D01*
X26252D01*
Y47160D01*
X26280Y46951D01*
X26333Y46822D01*
X26257Y46697D01*
X13435D01*
X13398Y46883D01*
X13273Y47184D01*
X13093Y47454D01*
X12863Y47684D01*
X12593Y47864D01*
X12292Y47989D01*
X11974Y48052D01*
X11648D01*
X11330Y47989D01*
X11029Y47864D01*
X10759Y47684D01*
X10529Y47454D01*
X10349Y47184D01*
X10224Y46883D01*
X10161Y46565D01*
Y46239D01*
X10224Y45921D01*
X10349Y45620D01*
X10529Y45350D01*
X10728Y45152D01*
X10529Y44954D01*
X10349Y44684D01*
X10224Y44383D01*
X10161Y44065D01*
Y43739D01*
X10224Y43421D01*
X10349Y43120D01*
X10529Y42850D01*
X10728Y42652D01*
X10529Y42454D01*
X10349Y42184D01*
X10224Y41883D01*
X10161Y41565D01*
Y41460D01*
X10155Y41425D01*
X10153Y41347D01*
X10148Y41298D01*
X10141Y41256D01*
X10132Y41220D01*
X10122Y41190D01*
X10112Y41165D01*
X10100Y41142D01*
X10087Y41122D01*
X10076Y41108D01*
X8431Y39463D01*
X8271Y39254D01*
X8170Y39011D01*
X8135Y38750D01*
Y30099D01*
X8170Y29838D01*
X8271Y29595D01*
X8431Y29386D01*
X10301Y27516D01*
X10458Y27395D01*
X10539Y27198D01*
X10720Y26928D01*
X10950Y26698D01*
X11220Y26518D01*
X11520Y26393D01*
X11839Y26330D01*
X12164D01*
X12483Y26393D01*
X12783Y26518D01*
X13053Y26698D01*
X13283Y26928D01*
X13464Y27198D01*
X13588Y27499D01*
X13651Y27817D01*
Y28143D01*
X13588Y28461D01*
X13464Y28762D01*
X13283Y29032D01*
X13085Y29230D01*
X13283Y29428D01*
X13464Y29698D01*
X13588Y29999D01*
X13651Y30317D01*
Y30643D01*
X13588Y30961D01*
X13464Y31262D01*
X13397Y31361D01*
X13456Y31471D01*
X15501D01*
Y26035D01*
Y24128D01*
X12404Y21031D01*
X12390Y21020D01*
X12371Y21007D01*
X12349Y20996D01*
X12325Y20986D01*
X12295Y20976D01*
X12261Y20968D01*
X12220Y20962D01*
X12172Y20957D01*
X12095Y20956D01*
X12057Y20950D01*
X11937D01*
X11619Y20887D01*
X11318Y20762D01*
X11048Y20582D01*
X10818Y20352D01*
X10638Y20082D01*
X10513Y19781D01*
X10450Y19463D01*
Y19137D01*
X10513Y18819D01*
X10638Y18518D01*
X10818Y18248D01*
X11017Y18050D01*
X10818Y17852D01*
X10638Y17582D01*
X10513Y17281D01*
X10450Y16963D01*
Y16637D01*
X10513Y16319D01*
X10638Y16018D01*
X10818Y15748D01*
X11017Y15550D01*
X10818Y15352D01*
X10638Y15082D01*
X10513Y14781D01*
X10450Y14463D01*
Y14137D01*
X10513Y13819D01*
X10638Y13518D01*
X10818Y13248D01*
X11048Y13018D01*
X11318Y12838D01*
X11619Y12713D01*
X11937Y12650D01*
X12263D01*
X12581Y12713D01*
X12882Y12838D01*
X13152Y13018D01*
X13382Y13248D01*
X13562Y13518D01*
X13687Y13819D01*
X13750Y14137D01*
Y14463D01*
X13687Y14781D01*
X13562Y15082D01*
X13382Y15352D01*
X13183Y15550D01*
X13382Y15748D01*
X13562Y16018D01*
X13687Y16319D01*
X13750Y16637D01*
Y16963D01*
X13687Y17281D01*
X13562Y17582D01*
X13382Y17852D01*
X13183Y18050D01*
X13382Y18248D01*
X13562Y18518D01*
X13687Y18819D01*
X13750Y19137D01*
Y19257D01*
X13756Y19295D01*
X13757Y19372D01*
X13762Y19420D01*
X13768Y19461D01*
X13776Y19495D01*
X13786Y19525D01*
X13796Y19549D01*
X13807Y19571D01*
X13820Y19590D01*
X13831Y19604D01*
X16497Y22271D01*
X28471Y10296D01*
X28538Y10136D01*
X28698Y9927D01*
X30073Y8552D01*
X30073Y8552D01*
X30282Y8392D01*
X30525Y8291D01*
X30786Y8257D01*
X30786Y8257D01*
X31426D01*
X31687Y8291D01*
X31930Y8392D01*
X32139Y8552D01*
X33188Y9601D01*
X33238Y9591D01*
X33564D01*
X33882Y9654D01*
X34183Y9779D01*
X34453Y9959D01*
X34676Y10183D01*
X34894Y9964D01*
X35164Y9784D01*
X35465Y9659D01*
X35784Y9596D01*
X36109D01*
X36427Y9659D01*
X36728Y9784D01*
X36998Y9964D01*
X37211Y10178D01*
X37429Y9959D01*
X37699Y9779D01*
X38000Y9654D01*
X38318Y9591D01*
X38644D01*
X38962Y9654D01*
X39263Y9779D01*
X39533Y9959D01*
X39751Y10178D01*
X39969Y9959D01*
X40239Y9779D01*
X40540Y9654D01*
X40858Y9591D01*
X41184D01*
X41502Y9654D01*
X41803Y9779D01*
X42073Y9959D01*
X42291Y10178D01*
X42509Y9959D01*
X42779Y9779D01*
X43080Y9654D01*
X43398Y9591D01*
X43724D01*
X44042Y9654D01*
X44343Y9779D01*
X44613Y9959D01*
X44843Y10189D01*
X44992Y10412D01*
X45010Y10422D01*
X45118Y10435D01*
X45146Y10429D01*
X45333Y10241D01*
X45551Y10115D01*
Y11241D01*
X46651D01*
Y10115D01*
X46869Y10241D01*
X47056Y10429D01*
X47084Y10435D01*
X47192Y10422D01*
X47210Y10412D01*
X47359Y10189D01*
X47589Y9959D01*
X47859Y9779D01*
X48160Y9654D01*
X48478Y9591D01*
X48804D01*
X49122Y9654D01*
X49423Y9779D01*
X49693Y9959D01*
X49923Y10189D01*
X50103Y10459D01*
X50228Y10760D01*
X50291Y11079D01*
Y11404D01*
X50253Y11592D01*
X50333Y11689D01*
X69945D01*
X79425Y2209D01*
X79425Y2209D01*
X79596Y2078D01*
X79796Y1995D01*
X80010Y1967D01*
X80010Y1967D01*
X104521D01*
X104735Y1995D01*
X104935Y2078D01*
X105106Y2209D01*
X107753Y4856D01*
X107955Y4910D01*
X108183Y5042D01*
X108369Y5228D01*
X108501Y5456D01*
X108569Y5710D01*
Y5974D01*
X108571Y5976D01*
X137044D01*
X137067Y5974D01*
X137099Y5968D01*
X137134Y5958D01*
X137171Y5945D01*
X137212Y5928D01*
X137256Y5906D01*
X137303Y5878D01*
X137354Y5845D01*
X137373Y5831D01*
X137373Y5830D01*
X137375Y5829D01*
X137422Y5794D01*
X137451Y5778D01*
X137596Y5681D01*
X137606Y5663D01*
X137619Y5555D01*
X137613Y5527D01*
X137425Y5340D01*
X137299Y5122D01*
X138425D01*
Y4022D01*
X137299D01*
X137425Y3804D01*
X137613Y3617D01*
X137619Y3589D01*
X137606Y3481D01*
X137596Y3463D01*
X137373Y3314D01*
X137143Y3084D01*
X136963Y2814D01*
X136838Y2513D01*
X136775Y2195D01*
Y1869D01*
X136838Y1551D01*
X136963Y1250D01*
X137143Y980D01*
X137373Y750D01*
X137643Y570D01*
X137944Y445D01*
X138237Y387D01*
X138225Y262D01*
X14417D01*
X13272Y352D01*
X12127Y533D01*
X11001Y804D01*
X9899Y1162D01*
X8828Y1605D01*
X7796Y2131D01*
X6808Y2737D01*
X5871Y3418D01*
X4990Y4170D01*
X4170Y4990D01*
X3418Y5871D01*
X2737Y6808D01*
X2131Y7796D01*
X1605Y8828D01*
X1162Y9899D01*
X804Y11001D01*
X533Y12127D01*
X352Y13272D01*
X261Y14427D01*
X261Y15006D01*
Y61006D01*
Y61586D01*
X352Y62741D01*
X533Y63885D01*
X804Y65012D01*
X1162Y66114D01*
X1605Y67184D01*
X2131Y68217D01*
X2737Y69205D01*
X3418Y70142D01*
X4170Y71023D01*
X4990Y71842D01*
X5871Y72595D01*
X6808Y73276D01*
X7796Y73881D01*
X8828Y74407D01*
X9899Y74851D01*
X11001Y75209D01*
X12127Y75479D01*
X13272Y75661D01*
X14427Y75751D01*
X139413D01*
X140568Y75661D01*
D02*
G37*
G36*
X137847Y36842D02*
X137721Y36938D01*
X137298Y37219D01*
X137211Y37265D01*
X137132Y37300D01*
X137061Y37325D01*
X136998Y37340D01*
X136943Y37345D01*
X136910Y37585D01*
X136977Y37591D01*
X137046Y37608D01*
X137117Y37637D01*
X137189Y37677D01*
X137264Y37729D01*
X137341Y37792D01*
X137420Y37867D01*
X137501Y37953D01*
X137669Y38160D01*
X137847Y36842D01*
D02*
G37*
G36*
X140960Y36642D02*
X140813Y36641D01*
X140438Y36613D01*
X140335Y36595D01*
X140243Y36572D01*
X140162Y36545D01*
X140092Y36514D01*
X140033Y36478D01*
X139985Y36438D01*
X139816Y36607D01*
X139856Y36655D01*
X139892Y36714D01*
X139923Y36784D01*
X139950Y36865D01*
X139973Y36957D01*
X139991Y37060D01*
X140005Y37174D01*
X140019Y37435D01*
X140020Y37583D01*
X140960Y36642D01*
D02*
G37*
G36*
X12951Y33111D02*
X12981Y33041D01*
X13018Y32980D01*
X13064Y32927D01*
X13117Y32882D01*
X13178Y32845D01*
X13247Y32817D01*
X13324Y32796D01*
X13408Y32784D01*
X13500Y32780D01*
X13084Y32180D01*
X12995Y32179D01*
X12657Y32153D01*
X12578Y32141D01*
X12352Y32092D01*
X12280Y32072D01*
X12928Y33188D01*
X12951Y33111D01*
D02*
G37*
G36*
X17234Y32780D02*
X17154Y32693D01*
X17082Y32603D01*
X17018Y32510D01*
X16963Y32412D01*
X16916Y32312D01*
X16878Y32208D01*
X16848Y32100D01*
X16827Y31989D01*
X16814Y31874D01*
X16810Y31756D01*
X16210Y31580D01*
X16204Y31694D01*
X16186Y31796D01*
X16156Y31886D01*
X16114Y31964D01*
X16060Y32030D01*
X15994Y32084D01*
X15916Y32126D01*
X15826Y32156D01*
X15724Y32174D01*
X15610Y32180D01*
X15786Y32780D01*
X15904Y32784D01*
X16019Y32797D01*
X16130Y32818D01*
X16238Y32848D01*
X16342Y32886D01*
X16442Y32933D01*
X16540Y32988D01*
X16633Y33052D01*
X16723Y33124D01*
X16810Y33204D01*
X17234Y32780D01*
D02*
G37*
G36*
X139381Y29815D02*
X139409Y29440D01*
X139427Y29337D01*
X139450Y29245D01*
X139477Y29164D01*
X139508Y29094D01*
X139544Y29035D01*
X139584Y28987D01*
X139415Y28818D01*
X139367Y28858D01*
X139308Y28894D01*
X139238Y28925D01*
X139157Y28952D01*
X139065Y28975D01*
X138962Y28993D01*
X138848Y29007D01*
X138587Y29021D01*
X138439Y29022D01*
X139380Y29962D01*
X139381Y29815D01*
D02*
G37*
G36*
X142124Y28417D02*
X142084Y28369D01*
X142048Y28310D01*
X142017Y28240D01*
X141990Y28159D01*
X141967Y28067D01*
X141949Y27964D01*
X141935Y27850D01*
X141921Y27589D01*
X141920Y27441D01*
X140980Y28382D01*
X141127Y28383D01*
X141502Y28411D01*
X141605Y28429D01*
X141697Y28452D01*
X141778Y28479D01*
X141848Y28510D01*
X141907Y28546D01*
X141955Y28586D01*
X142124Y28417D01*
D02*
G37*
G36*
X137493Y28546D02*
X137552Y28510D01*
X137622Y28479D01*
X137703Y28452D01*
X137795Y28429D01*
X137898Y28411D01*
X138012Y28397D01*
X138273Y28383D01*
X138421Y28382D01*
X137480Y27441D01*
X137479Y27589D01*
X137451Y27964D01*
X137433Y28067D01*
X137410Y28159D01*
X137383Y28240D01*
X137352Y28310D01*
X137316Y28369D01*
X137276Y28417D01*
X137445Y28586D01*
X137493Y28546D01*
D02*
G37*
G36*
X17870Y27642D02*
X17891Y27628D01*
X17912Y27616D01*
X17935Y27605D01*
X17959Y27596D01*
X17985Y27588D01*
X18011Y27582D01*
X18038Y27578D01*
X18067Y27576D01*
X18097Y27575D01*
X18117Y27335D01*
X18087Y27334D01*
X18058Y27331D01*
X18031Y27326D01*
X18006Y27320D01*
X17982Y27311D01*
X17959Y27300D01*
X17938Y27288D01*
X17918Y27274D01*
X17900Y27257D01*
X17883Y27239D01*
X17851Y27658D01*
X17870Y27642D01*
D02*
G37*
G36*
X18924Y26997D02*
X18941Y26980D01*
X18960Y26966D01*
X18981Y26953D01*
X19003Y26942D01*
X19027Y26933D01*
X19052Y26926D01*
X19079Y26921D01*
X19108Y26918D01*
X19138Y26917D01*
X19104Y26677D01*
X19074Y26676D01*
X19046Y26674D01*
X19018Y26670D01*
X18992Y26665D01*
X18966Y26658D01*
X18942Y26649D01*
X18919Y26639D01*
X18896Y26627D01*
X18875Y26614D01*
X18855Y26600D01*
X18908Y27016D01*
X18924Y26997D01*
D02*
G37*
G36*
X91578Y25735D02*
X91464Y25729D01*
X91362Y25711D01*
X91272Y25681D01*
X91194Y25639D01*
X91128Y25585D01*
X91074Y25519D01*
X91032Y25441D01*
X91002Y25351D01*
X90984Y25249D01*
X90978Y25135D01*
X90378D01*
X90372Y25249D01*
X90354Y25351D01*
X90324Y25441D01*
X90282Y25519D01*
X90228Y25585D01*
X90162Y25639D01*
X90084Y25681D01*
X89994Y25711D01*
X89892Y25729D01*
X89778Y25735D01*
X90678Y26335D01*
X91578Y25735D01*
D02*
G37*
G36*
X79386D02*
X79272Y25729D01*
X79170Y25711D01*
X79080Y25681D01*
X79002Y25639D01*
X78936Y25585D01*
X78882Y25519D01*
X78840Y25441D01*
X78810Y25351D01*
X78792Y25249D01*
X78786Y25135D01*
X78186D01*
X78180Y25249D01*
X78162Y25351D01*
X78132Y25441D01*
X78090Y25519D01*
X78036Y25585D01*
X77970Y25639D01*
X77892Y25681D01*
X77802Y25711D01*
X77700Y25729D01*
X77586Y25735D01*
X78486Y26335D01*
X79386Y25735D01*
D02*
G37*
G36*
X47001D02*
X46887Y25729D01*
X46785Y25711D01*
X46695Y25681D01*
X46617Y25639D01*
X46551Y25585D01*
X46497Y25519D01*
X46455Y25441D01*
X46425Y25351D01*
X46407Y25249D01*
X46401Y25135D01*
X45801D01*
X45795Y25249D01*
X45777Y25351D01*
X45747Y25441D01*
X45705Y25519D01*
X45651Y25585D01*
X45585Y25639D01*
X45507Y25681D01*
X45417Y25711D01*
X45315Y25729D01*
X45201Y25735D01*
X46101Y26335D01*
X47001Y25735D01*
D02*
G37*
G36*
X44461D02*
X44347Y25729D01*
X44245Y25711D01*
X44155Y25681D01*
X44077Y25639D01*
X44011Y25585D01*
X43957Y25519D01*
X43915Y25441D01*
X43885Y25351D01*
X43867Y25249D01*
X43861Y25135D01*
X43261D01*
X43255Y25249D01*
X43237Y25351D01*
X43207Y25441D01*
X43165Y25519D01*
X43111Y25585D01*
X43045Y25639D01*
X42967Y25681D01*
X42877Y25711D01*
X42775Y25729D01*
X42661Y25735D01*
X43561Y26335D01*
X44461Y25735D01*
D02*
G37*
G36*
X41921D02*
X41807Y25729D01*
X41705Y25711D01*
X41615Y25681D01*
X41537Y25639D01*
X41471Y25585D01*
X41417Y25519D01*
X41375Y25441D01*
X41345Y25351D01*
X41327Y25249D01*
X41321Y25135D01*
X40721D01*
X40715Y25249D01*
X40697Y25351D01*
X40667Y25441D01*
X40625Y25519D01*
X40571Y25585D01*
X40505Y25639D01*
X40427Y25681D01*
X40337Y25711D01*
X40235Y25729D01*
X40121Y25735D01*
X41021Y26335D01*
X41921Y25735D01*
D02*
G37*
G36*
X16816Y26821D02*
X16834Y26719D01*
X16864Y26629D01*
X16906Y26551D01*
X16960Y26485D01*
X17026Y26431D01*
X17104Y26389D01*
X17194Y26359D01*
X17296Y26341D01*
X17410Y26335D01*
Y25735D01*
X17296Y25729D01*
X17194Y25711D01*
X17104Y25681D01*
X17026Y25639D01*
X16960Y25585D01*
X16906Y25519D01*
X16864Y25441D01*
X16834Y25351D01*
X16816Y25249D01*
X16810Y25135D01*
X16210Y26035D01*
X16810Y26935D01*
X16816Y26821D01*
D02*
G37*
G36*
X130920Y25402D02*
X130920Y25378D01*
X130923Y25354D01*
X130929Y25330D01*
X130936Y25307D01*
X130947Y25284D01*
X130960Y25261D01*
X130975Y25239D01*
X130993Y25216D01*
X131014Y25194D01*
X130819Y25050D01*
X130798Y25070D01*
X130776Y25089D01*
X130754Y25106D01*
X130731Y25121D01*
X130708Y25134D01*
X130685Y25145D01*
X130661Y25154D01*
X130637Y25162D01*
X130613Y25168D01*
X130589Y25172D01*
X130923Y25427D01*
X130920Y25402D01*
D02*
G37*
G36*
X93942Y24886D02*
X93862Y24961D01*
X93790Y25015D01*
X93726Y25049D01*
X93671Y25062D01*
X93624Y25055D01*
X93586Y25027D01*
X93556Y24979D01*
X93535Y24910D01*
X93526Y24847D01*
X93533Y24795D01*
X93551Y24712D01*
X93576Y24631D01*
X93609Y24551D01*
X93649Y24472D01*
X93697Y24395D01*
X93752Y24320D01*
X93814Y24246D01*
X93883Y24173D01*
X92553D01*
X92622Y24246D01*
X92684Y24320D01*
X92739Y24395D01*
X92787Y24472D01*
X92827Y24551D01*
X92860Y24631D01*
X92885Y24712D01*
X92903Y24795D01*
X92914Y24880D01*
X92918Y24966D01*
X93156D01*
X92918Y25135D01*
X92912Y25249D01*
X92894Y25351D01*
X92864Y25441D01*
X92822Y25519D01*
X92768Y25585D01*
X92702Y25639D01*
X92624Y25681D01*
X92534Y25711D01*
X92432Y25729D01*
X92318Y25735D01*
X93218Y26035D01*
X93942Y24886D01*
D02*
G37*
G36*
X77477Y18542D02*
X77512Y18281D01*
X77613Y18038D01*
X77773Y17829D01*
X82049Y13552D01*
Y12934D01*
X82047Y12917D01*
X82042Y12894D01*
X82035Y12871D01*
X82025Y12846D01*
X82011Y12819D01*
X81992Y12788D01*
X81968Y12755D01*
X81937Y12718D01*
X81883Y12662D01*
X81861Y12631D01*
X81776Y12547D01*
X81627Y12324D01*
X81609Y12314D01*
X81501Y12301D01*
X81473Y12307D01*
X81286Y12495D01*
X81068Y12621D01*
Y11495D01*
Y10369D01*
X81286Y10495D01*
X81473Y10683D01*
X81501Y10689D01*
X81609Y10676D01*
X81627Y10666D01*
X81776Y10443D01*
X82006Y10213D01*
X82276Y10033D01*
X82577Y9908D01*
X82895Y9845D01*
X83221D01*
X83539Y9908D01*
X83840Y10033D01*
X84110Y10213D01*
X84213Y10316D01*
X84323Y10250D01*
Y6446D01*
X84316Y6329D01*
X84315Y6326D01*
X83964D01*
Y5646D01*
X83961Y5623D01*
X83964Y5600D01*
Y3621D01*
X80353D01*
X70873Y13101D01*
X70701Y13232D01*
X70502Y13315D01*
X70288Y13343D01*
X35706D01*
X28418Y20631D01*
X28364Y20833D01*
X28232Y21061D01*
X28046Y21247D01*
X27818Y21379D01*
X27564Y21447D01*
X27300D01*
X27046Y21379D01*
X26818Y21247D01*
X26632Y21061D01*
X26500Y20833D01*
X26432Y20579D01*
Y20315D01*
X26500Y20061D01*
X26632Y19833D01*
X26818Y19647D01*
X27046Y19515D01*
X27248Y19461D01*
X33729Y12980D01*
X33670Y12870D01*
X33564Y12891D01*
X33238D01*
X32920Y12828D01*
X32619Y12703D01*
X32349Y12523D01*
X32119Y12293D01*
X31970Y12070D01*
X31952Y12060D01*
X31844Y12047D01*
X31816Y12054D01*
X31629Y12241D01*
X31411Y12367D01*
Y11241D01*
X30311D01*
Y12367D01*
X30093Y12241D01*
X29861Y12009D01*
X29821Y11940D01*
X29697Y11923D01*
X17519Y24102D01*
Y25026D01*
X40012D01*
Y24680D01*
X40010Y24663D01*
X40005Y24640D01*
X39998Y24617D01*
X39988Y24592D01*
X39974Y24565D01*
X39955Y24534D01*
X39931Y24501D01*
X39900Y24464D01*
X39846Y24408D01*
X39837Y24395D01*
X39704Y24351D01*
X39533Y24523D01*
X39263Y24703D01*
X38962Y24828D01*
X38644Y24891D01*
X38318D01*
X38000Y24828D01*
X37699Y24703D01*
X37429Y24523D01*
X37216Y24310D01*
X36998Y24528D01*
X36728Y24708D01*
X36427Y24833D01*
X36109Y24896D01*
X35784D01*
X35465Y24833D01*
X35164Y24708D01*
X34894Y24528D01*
X34671Y24304D01*
X34453Y24523D01*
X34183Y24703D01*
X33882Y24828D01*
X33564Y24891D01*
X33238D01*
X32920Y24828D01*
X32636Y24710D01*
X32531Y24750D01*
X32511Y24761D01*
Y24891D01*
X29211D01*
Y21591D01*
X32511D01*
Y21721D01*
X32531Y21732D01*
X32636Y21772D01*
X32920Y21654D01*
X33238Y21591D01*
X33564D01*
X33882Y21654D01*
X34183Y21779D01*
X34453Y21959D01*
X34676Y22183D01*
X34894Y21964D01*
X35164Y21784D01*
X35465Y21659D01*
X35784Y21596D01*
X36109D01*
X36427Y21659D01*
X36728Y21784D01*
X36998Y21964D01*
X37211Y22178D01*
X37429Y21959D01*
X37699Y21779D01*
X38000Y21654D01*
X38318Y21591D01*
X38644D01*
X38962Y21654D01*
X39263Y21779D01*
X39533Y21959D01*
X39751Y22178D01*
X39969Y21959D01*
X40239Y21779D01*
X40540Y21654D01*
X40858Y21591D01*
X41184D01*
X41502Y21654D01*
X41803Y21779D01*
X42073Y21959D01*
X42291Y22178D01*
X42509Y21959D01*
X42779Y21779D01*
X43080Y21654D01*
X43398Y21591D01*
X43724D01*
X44042Y21654D01*
X44343Y21779D01*
X44613Y21959D01*
X44831Y22178D01*
X45049Y21959D01*
X45319Y21779D01*
X45620Y21654D01*
X45938Y21591D01*
X46264D01*
X46582Y21654D01*
X46883Y21779D01*
X47153Y21959D01*
X47371Y22178D01*
X47589Y21959D01*
X47859Y21779D01*
X48160Y21654D01*
X48478Y21591D01*
X48804D01*
X49122Y21654D01*
X49423Y21779D01*
X49693Y21959D01*
X49923Y22189D01*
X50103Y22459D01*
X50228Y22760D01*
X50291Y23078D01*
Y23404D01*
X50228Y23722D01*
X50103Y24023D01*
X49923Y24293D01*
X49693Y24523D01*
X49423Y24703D01*
X49122Y24828D01*
X48804Y24891D01*
X48478D01*
X48160Y24828D01*
X47859Y24703D01*
X47589Y24523D01*
X47418Y24351D01*
X47285Y24395D01*
X47276Y24408D01*
X47222Y24464D01*
X47191Y24501D01*
X47167Y24534D01*
X47148Y24565D01*
X47134Y24592D01*
X47124Y24617D01*
X47117Y24640D01*
X47112Y24663D01*
X47110Y24680D01*
Y25026D01*
X77477D01*
Y18542D01*
D02*
G37*
G36*
X90982Y24880D02*
X90993Y24795D01*
X91011Y24712D01*
X91036Y24631D01*
X91069Y24551D01*
X91109Y24472D01*
X91157Y24395D01*
X91212Y24320D01*
X91274Y24246D01*
X91343Y24173D01*
X90013D01*
X90082Y24246D01*
X90144Y24320D01*
X90199Y24395D01*
X90247Y24472D01*
X90287Y24551D01*
X90320Y24631D01*
X90345Y24712D01*
X90363Y24795D01*
X90374Y24880D01*
X90378Y24966D01*
X90978D01*
X90982Y24880D01*
D02*
G37*
G36*
X46405Y24626D02*
X46416Y24541D01*
X46434Y24458D01*
X46459Y24377D01*
X46492Y24297D01*
X46532Y24218D01*
X46580Y24141D01*
X46635Y24066D01*
X46697Y23992D01*
X46766Y23919D01*
X45436D01*
X45505Y23992D01*
X45567Y24066D01*
X45622Y24141D01*
X45670Y24218D01*
X45710Y24297D01*
X45743Y24377D01*
X45768Y24458D01*
X45786Y24541D01*
X45797Y24626D01*
X45801Y24712D01*
X46401D01*
X46405Y24626D01*
D02*
G37*
G36*
X43865D02*
X43876Y24541D01*
X43894Y24458D01*
X43919Y24377D01*
X43952Y24297D01*
X43992Y24218D01*
X44040Y24141D01*
X44095Y24066D01*
X44157Y23992D01*
X44226Y23919D01*
X42896D01*
X42965Y23992D01*
X43027Y24066D01*
X43082Y24141D01*
X43130Y24218D01*
X43170Y24297D01*
X43203Y24377D01*
X43228Y24458D01*
X43246Y24541D01*
X43257Y24626D01*
X43261Y24712D01*
X43861D01*
X43865Y24626D01*
D02*
G37*
G36*
X41325D02*
X41336Y24541D01*
X41354Y24458D01*
X41379Y24377D01*
X41412Y24297D01*
X41452Y24218D01*
X41500Y24141D01*
X41555Y24066D01*
X41617Y23992D01*
X41686Y23919D01*
X40356D01*
X40425Y23992D01*
X40487Y24066D01*
X40542Y24141D01*
X40590Y24218D01*
X40630Y24297D01*
X40663Y24377D01*
X40688Y24458D01*
X40706Y24541D01*
X40717Y24626D01*
X40721Y24712D01*
X41321D01*
X41325Y24626D01*
D02*
G37*
G36*
X94993Y24689D02*
X95061Y24637D01*
X95133Y24591D01*
X95208Y24551D01*
X95288Y24518D01*
X95372Y24491D01*
X95460Y24470D01*
X95552Y24455D01*
X95648Y24447D01*
X95748Y24445D01*
X94808Y23504D01*
X94806Y23605D01*
X94798Y23701D01*
X94783Y23793D01*
X94762Y23881D01*
X94735Y23965D01*
X94702Y24045D01*
X94662Y24120D01*
X94616Y24192D01*
X94564Y24260D01*
X94505Y24323D01*
X94930Y24748D01*
X94993Y24689D01*
D02*
G37*
G36*
X81467Y22854D02*
X81472Y22820D01*
X81480Y22786D01*
X81492Y22752D01*
X81507Y22718D01*
X81526Y22684D01*
X81548Y22650D01*
X81574Y22616D01*
X81602Y22582D01*
X81635Y22548D01*
X81465Y22378D01*
X81431Y22411D01*
X81397Y22439D01*
X81363Y22465D01*
X81329Y22487D01*
X81295Y22506D01*
X81261Y22521D01*
X81227Y22533D01*
X81193Y22541D01*
X81159Y22546D01*
X81126Y22548D01*
X81465Y22887D01*
X81467Y22854D01*
D02*
G37*
G36*
X84009Y23338D02*
X84037Y22963D01*
X84055Y22860D01*
X84078Y22768D01*
X84105Y22687D01*
X84136Y22617D01*
X84172Y22558D01*
X84212Y22510D01*
X84043Y22341D01*
X83995Y22381D01*
X83936Y22417D01*
X83866Y22448D01*
X83785Y22475D01*
X83693Y22498D01*
X83590Y22516D01*
X83476Y22530D01*
X83215Y22544D01*
X83067Y22545D01*
X84008Y23486D01*
X84009Y23338D01*
D02*
G37*
G36*
X151170Y22142D02*
X151151Y22159D01*
X151132Y22174D01*
X151111Y22188D01*
X151089Y22200D01*
X151065Y22209D01*
X151041Y22218D01*
X151015Y22224D01*
X150987Y22228D01*
X150959Y22231D01*
X150929Y22232D01*
Y22472D01*
X150959Y22473D01*
X150987Y22476D01*
X151015Y22480D01*
X151041Y22486D01*
X151065Y22494D01*
X151089Y22504D01*
X151111Y22516D01*
X151132Y22530D01*
X151151Y22545D01*
X151170Y22562D01*
Y22142D01*
D02*
G37*
G36*
X141753Y22913D02*
X142038Y22668D01*
X142124Y22608D01*
X142205Y22559D01*
X142281Y22521D01*
X142353Y22494D01*
X142420Y22477D01*
X142482Y22472D01*
Y22232D01*
X142420Y22227D01*
X142353Y22210D01*
X142281Y22183D01*
X142205Y22145D01*
X142124Y22096D01*
X142038Y22036D01*
X141948Y21965D01*
X141753Y21791D01*
X141648Y21687D01*
Y23017D01*
X141753Y22913D01*
D02*
G37*
G36*
X27733Y20419D02*
X27736Y20394D01*
X27741Y20370D01*
X27748Y20346D01*
X27758Y20323D01*
X27770Y20299D01*
X27784Y20276D01*
X27800Y20254D01*
X27818Y20232D01*
X27839Y20210D01*
X27669Y20040D01*
X27647Y20061D01*
X27625Y20079D01*
X27603Y20095D01*
X27580Y20109D01*
X27556Y20121D01*
X27533Y20131D01*
X27509Y20138D01*
X27485Y20143D01*
X27460Y20146D01*
X27435Y20147D01*
X27732Y20444D01*
X27733Y20419D01*
D02*
G37*
G36*
X137556Y19439D02*
X137533Y19487D01*
X137506Y19530D01*
X137475Y19568D01*
X137441Y19601D01*
X137403Y19629D01*
X137362Y19651D01*
X137317Y19669D01*
X137268Y19682D01*
X137216Y19689D01*
X137160Y19692D01*
Y19932D01*
X137216Y19935D01*
X137268Y19942D01*
X137317Y19955D01*
X137362Y19973D01*
X137403Y19995D01*
X137441Y20023D01*
X137475Y20056D01*
X137506Y20094D01*
X137533Y20137D01*
X137556Y20185D01*
Y19439D01*
D02*
G37*
G36*
X13353Y20128D02*
X13294Y20065D01*
X13242Y19997D01*
X13196Y19925D01*
X13156Y19850D01*
X13123Y19770D01*
X13096Y19686D01*
X13075Y19598D01*
X13060Y19506D01*
X13052Y19410D01*
X13050Y19309D01*
X12109Y20250D01*
X12210Y20252D01*
X12306Y20260D01*
X12398Y20275D01*
X12486Y20296D01*
X12570Y20323D01*
X12650Y20356D01*
X12725Y20396D01*
X12797Y20442D01*
X12865Y20494D01*
X12928Y20553D01*
X13353Y20128D01*
D02*
G37*
G36*
X107013Y15846D02*
X107072Y15810D01*
X107142Y15779D01*
X107223Y15752D01*
X107315Y15729D01*
X107418Y15711D01*
X107532Y15697D01*
X107793Y15683D01*
X107940Y15682D01*
X107000Y14741D01*
X106999Y14889D01*
X106971Y15264D01*
X106953Y15367D01*
X106930Y15459D01*
X106903Y15540D01*
X106872Y15610D01*
X106836Y15669D01*
X106796Y15717D01*
X106965Y15886D01*
X107013Y15846D01*
D02*
G37*
G36*
X104732Y14067D02*
X104627Y14171D01*
X104342Y14416D01*
X104256Y14476D01*
X104175Y14525D01*
X104099Y14563D01*
X104027Y14590D01*
X103960Y14607D01*
X103898Y14612D01*
Y14852D01*
X103960Y14857D01*
X104027Y14874D01*
X104099Y14901D01*
X104175Y14939D01*
X104256Y14988D01*
X104342Y15048D01*
X104432Y15119D01*
X104627Y15293D01*
X104732Y15397D01*
Y14067D01*
D02*
G37*
G36*
X101131Y13213D02*
X101153Y13195D01*
X101175Y13179D01*
X101198Y13165D01*
X101222Y13153D01*
X101245Y13143D01*
X101269Y13136D01*
X101293Y13131D01*
X101318Y13128D01*
X101343Y13127D01*
X101046Y12830D01*
X101045Y12855D01*
X101042Y12880D01*
X101037Y12904D01*
X101030Y12928D01*
X101020Y12951D01*
X101008Y12975D01*
X100994Y12998D01*
X100978Y13020D01*
X100960Y13042D01*
X100939Y13064D01*
X101109Y13234D01*
X101131Y13213D01*
D02*
G37*
G36*
X121833Y12617D02*
X121814Y12634D01*
X121795Y12649D01*
X121774Y12663D01*
X121752Y12675D01*
X121728Y12684D01*
X121704Y12693D01*
X121678Y12699D01*
X121650Y12703D01*
X121622Y12706D01*
X121592Y12707D01*
Y12947D01*
X121622Y12948D01*
X121650Y12951D01*
X121678Y12955D01*
X121704Y12961D01*
X121728Y12969D01*
X121752Y12979D01*
X121774Y12991D01*
X121795Y13005D01*
X121814Y13020D01*
X121833Y13037D01*
Y12617D01*
D02*
G37*
G36*
X114533Y13020D02*
X114552Y13005D01*
X114573Y12991D01*
X114595Y12979D01*
X114619Y12969D01*
X114643Y12961D01*
X114669Y12955D01*
X114697Y12951D01*
X114725Y12948D01*
X114755Y12947D01*
Y12707D01*
X114725Y12706D01*
X114697Y12703D01*
X114669Y12699D01*
X114643Y12693D01*
X114619Y12684D01*
X114595Y12675D01*
X114573Y12663D01*
X114552Y12649D01*
X114533Y12634D01*
X114514Y12617D01*
Y13037D01*
X114533Y13020D01*
D02*
G37*
G36*
X86571Y16272D02*
X86742Y16141D01*
X86942Y16058D01*
X87156Y16030D01*
X94941D01*
X97774Y13197D01*
X97743Y13051D01*
X97516Y12957D01*
X97246Y12777D01*
X97016Y12547D01*
X96867Y12324D01*
X96849Y12314D01*
X96741Y12301D01*
X96713Y12307D01*
X96526Y12495D01*
X96308Y12621D01*
Y11495D01*
Y10369D01*
X96526Y10495D01*
X96713Y10683D01*
X96741Y10689D01*
X96849Y10676D01*
X96867Y10666D01*
X97016Y10443D01*
X97246Y10213D01*
X97516Y10033D01*
X97817Y9908D01*
X98135Y9845D01*
X98461D01*
X98779Y9908D01*
X99080Y10033D01*
X99350Y10213D01*
X99580Y10443D01*
X99760Y10713D01*
X99854Y10940D01*
X100000Y10971D01*
X100106Y10865D01*
X100160Y10663D01*
X100292Y10435D01*
X100478Y10249D01*
X100706Y10117D01*
X100960Y10049D01*
X101224D01*
X101271Y10062D01*
X101375Y9992D01*
X101388Y9899D01*
X101489Y9656D01*
X101649Y9447D01*
X104824Y6272D01*
X105033Y6111D01*
X105276Y6011D01*
X105537Y5976D01*
X106370D01*
X106418Y5861D01*
X104178Y3621D01*
X94057D01*
X94005Y3746D01*
X94129Y3870D01*
X94293Y4115D01*
X94406Y4388D01*
X94464Y4678D01*
Y4974D01*
X94406Y5264D01*
X94307Y5503D01*
X94301Y5684D01*
Y10147D01*
X94303Y10197D01*
X94308Y10240D01*
X94310Y10254D01*
X94500Y10443D01*
X94649Y10666D01*
X94667Y10676D01*
X94775Y10689D01*
X94803Y10683D01*
X94990Y10495D01*
X95208Y10369D01*
Y11495D01*
Y12621D01*
X94990Y12495D01*
X94803Y12307D01*
X94775Y12301D01*
X94667Y12314D01*
X94649Y12324D01*
X94500Y12547D01*
X94270Y12777D01*
X94000Y12957D01*
X93699Y13082D01*
X93381Y13145D01*
X93055D01*
X92737Y13082D01*
X92436Y12957D01*
X92166Y12777D01*
X91948Y12558D01*
X91730Y12777D01*
X91460Y12957D01*
X91159Y13082D01*
X90841Y13145D01*
X90515D01*
X90197Y13082D01*
X89896Y12957D01*
X89626Y12777D01*
X89408Y12558D01*
X89190Y12777D01*
X88920Y12957D01*
X88619Y13082D01*
X88301Y13145D01*
X87975D01*
X87657Y13082D01*
X87356Y12957D01*
X87086Y12777D01*
X86873Y12564D01*
X86655Y12782D01*
X86385Y12962D01*
X86084Y13087D01*
X85766Y13150D01*
X85441D01*
X85122Y13087D01*
X84821Y12962D01*
X84551Y12782D01*
X84375Y12606D01*
X84242Y12649D01*
X84233Y12662D01*
X84179Y12718D01*
X84148Y12755D01*
X84124Y12788D01*
X84105Y12819D01*
X84091Y12846D01*
X84081Y12871D01*
X84074Y12894D01*
X84069Y12917D01*
X84067Y12934D01*
Y13970D01*
X84032Y14231D01*
X83932Y14474D01*
X83771Y14683D01*
X83771Y14683D01*
X79495Y18960D01*
Y21845D01*
X80998D01*
X86571Y16272D01*
D02*
G37*
G36*
X83362Y12880D02*
X83373Y12795D01*
X83391Y12712D01*
X83416Y12631D01*
X83449Y12551D01*
X83489Y12472D01*
X83537Y12395D01*
X83592Y12320D01*
X83654Y12246D01*
X83723Y12173D01*
X82393D01*
X82462Y12246D01*
X82524Y12320D01*
X82579Y12395D01*
X82627Y12472D01*
X82667Y12551D01*
X82700Y12631D01*
X82725Y12712D01*
X82743Y12795D01*
X82754Y12880D01*
X82758Y12966D01*
X83358D01*
X83362Y12880D01*
D02*
G37*
G36*
X100877Y11435D02*
X100899Y11417D01*
X100921Y11401D01*
X100944Y11387D01*
X100968Y11375D01*
X100991Y11365D01*
X101015Y11358D01*
X101039Y11353D01*
X101064Y11350D01*
X101089Y11349D01*
X100792Y11052D01*
X100791Y11077D01*
X100788Y11102D01*
X100783Y11126D01*
X100776Y11150D01*
X100766Y11173D01*
X100754Y11197D01*
X100740Y11220D01*
X100724Y11242D01*
X100706Y11264D01*
X100685Y11286D01*
X100855Y11456D01*
X100877Y11435D01*
D02*
G37*
G36*
X121071Y10839D02*
X121052Y10856D01*
X121033Y10871D01*
X121012Y10885D01*
X120990Y10897D01*
X120966Y10906D01*
X120942Y10915D01*
X120916Y10921D01*
X120888Y10925D01*
X120860Y10928D01*
X120830Y10929D01*
Y11169D01*
X120860Y11170D01*
X120888Y11173D01*
X120916Y11177D01*
X120942Y11183D01*
X120966Y11191D01*
X120990Y11201D01*
X121012Y11213D01*
X121033Y11227D01*
X121052Y11242D01*
X121071Y11259D01*
Y10839D01*
D02*
G37*
G36*
X112628Y11242D02*
X112647Y11227D01*
X112668Y11213D01*
X112690Y11201D01*
X112714Y11191D01*
X112738Y11183D01*
X112764Y11177D01*
X112792Y11173D01*
X112820Y11170D01*
X112850Y11169D01*
Y10929D01*
X112820Y10928D01*
X112792Y10925D01*
X112764Y10921D01*
X112738Y10915D01*
X112714Y10906D01*
X112690Y10897D01*
X112668Y10885D01*
X112647Y10871D01*
X112628Y10856D01*
X112609Y10839D01*
Y11259D01*
X112628Y11242D01*
D02*
G37*
G36*
X86217Y10775D02*
X86182Y10740D01*
X86151Y10698D01*
X86123Y10647D01*
X86099Y10590D01*
X86079Y10524D01*
X86063Y10451D01*
X86050Y10371D01*
X86041Y10283D01*
X86034Y10083D01*
X85034Y10170D01*
X85032Y10274D01*
X85011Y10541D01*
X84998Y10615D01*
X84982Y10682D01*
X84963Y10741D01*
X84942Y10792D01*
X84917Y10836D01*
X84890Y10872D01*
X86217Y10775D01*
D02*
G37*
G36*
X88738Y10759D02*
X88703Y10724D01*
X88671Y10682D01*
X88643Y10632D01*
X88618Y10575D01*
X88598Y10510D01*
X88581Y10437D01*
X88568Y10357D01*
X88558Y10269D01*
X88551Y10069D01*
X87551Y10178D01*
X87550Y10282D01*
X87529Y10550D01*
X87517Y10624D01*
X87502Y10690D01*
X87484Y10749D01*
X87463Y10800D01*
X87440Y10844D01*
X87414Y10880D01*
X88738Y10759D01*
D02*
G37*
G36*
X91262Y10746D02*
X91226Y10712D01*
X91193Y10671D01*
X91165Y10622D01*
X91140Y10565D01*
X91119Y10500D01*
X91102Y10427D01*
X91088Y10347D01*
X91079Y10259D01*
X91071Y10060D01*
X90071Y10194D01*
X90070Y10299D01*
X90050Y10566D01*
X90038Y10640D01*
X90024Y10707D01*
X90007Y10765D01*
X89988Y10816D01*
X89966Y10860D01*
X89941Y10896D01*
X91262Y10746D01*
D02*
G37*
G36*
X93786Y10734D02*
X93749Y10701D01*
X93716Y10660D01*
X93687Y10611D01*
X93661Y10555D01*
X93640Y10490D01*
X93622Y10418D01*
X93609Y10338D01*
X93599Y10250D01*
X93591Y10051D01*
X92591Y10211D01*
X92590Y10316D01*
X92571Y10584D01*
X92560Y10658D01*
X92547Y10724D01*
X92531Y10782D01*
X92512Y10833D01*
X92492Y10876D01*
X92468Y10912D01*
X93786Y10734D01*
D02*
G37*
G36*
X110215Y8448D02*
X110234Y8433D01*
X110255Y8419D01*
X110277Y8407D01*
X110301Y8398D01*
X110325Y8389D01*
X110351Y8383D01*
X110379Y8379D01*
X110407Y8376D01*
X110437Y8375D01*
Y8135D01*
X110407Y8134D01*
X110379Y8131D01*
X110351Y8127D01*
X110325Y8121D01*
X110301Y8113D01*
X110277Y8103D01*
X110255Y8091D01*
X110234Y8077D01*
X110215Y8062D01*
X110196Y8045D01*
Y8465D01*
X110215Y8448D01*
D02*
G37*
G36*
X140287Y6447D02*
X140214Y6516D01*
X140140Y6578D01*
X140065Y6633D01*
X139988Y6681D01*
X139909Y6721D01*
X139829Y6754D01*
X139748Y6779D01*
X139695Y6791D01*
X139642Y6779D01*
X139561Y6754D01*
X139481Y6721D01*
X139402Y6681D01*
X139325Y6633D01*
X139250Y6578D01*
X139176Y6516D01*
X139103Y6447D01*
Y7777D01*
X139176Y7708D01*
X139250Y7646D01*
X139325Y7591D01*
X139402Y7543D01*
X139481Y7503D01*
X139561Y7470D01*
X139642Y7445D01*
X139695Y7433D01*
X139748Y7445D01*
X139829Y7470D01*
X139909Y7503D01*
X139988Y7543D01*
X140065Y7591D01*
X140140Y7646D01*
X140214Y7708D01*
X140287Y7777D01*
Y6447D01*
D02*
G37*
G36*
X137842Y6362D02*
X137759Y6424D01*
X137675Y6478D01*
X137592Y6527D01*
X137509Y6569D01*
X137425Y6604D01*
X137342Y6633D01*
X137258Y6656D01*
X137174Y6672D01*
X137090Y6682D01*
X137006Y6685D01*
X136921Y7285D01*
X137009Y7289D01*
X137094Y7301D01*
X137176Y7321D01*
X137255Y7348D01*
X137330Y7384D01*
X137403Y7427D01*
X137473Y7479D01*
X137540Y7538D01*
X137603Y7605D01*
X137664Y7680D01*
X137842Y6362D01*
D02*
G37*
G36*
X86036Y6433D02*
X86070Y5983D01*
X86090Y5873D01*
X86115Y5783D01*
X86145Y5713D01*
X86179Y5663D01*
X86218Y5633D01*
X86261Y5623D01*
X84667D01*
X84737Y5633D01*
X84799Y5663D01*
X84854Y5713D01*
X84902Y5783D01*
X84942Y5873D01*
X84975Y5983D01*
X85001Y6113D01*
X85019Y6263D01*
X85030Y6433D01*
X85034Y6623D01*
X86034D01*
X86036Y6433D01*
D02*
G37*
G36*
X107566Y5542D02*
X107541Y5541D01*
X107516Y5538D01*
X107492Y5533D01*
X107468Y5526D01*
X107445Y5516D01*
X107421Y5504D01*
X107398Y5490D01*
X107376Y5474D01*
X107354Y5456D01*
X107332Y5435D01*
X107162Y5605D01*
X107183Y5627D01*
X107201Y5649D01*
X107217Y5671D01*
X107231Y5694D01*
X107243Y5718D01*
X107253Y5741D01*
X107260Y5765D01*
X107265Y5789D01*
X107268Y5814D01*
X107269Y5839D01*
X107566Y5542D01*
D02*
G37*
G36*
X88551Y5850D02*
X88551Y5758D01*
X88577Y5345D01*
X88583Y5333D01*
X87469Y5455D01*
X87485Y5472D01*
X87499Y5497D01*
X87511Y5530D01*
X87522Y5571D01*
X87531Y5621D01*
X87538Y5679D01*
X87548Y5819D01*
X87551Y5991D01*
X88551Y5850D01*
D02*
G37*
G36*
X91071Y5827D02*
X91095Y5317D01*
X89985Y5467D01*
X90002Y5484D01*
X90016Y5509D01*
X90029Y5542D01*
X90040Y5583D01*
X90050Y5633D01*
X90057Y5691D01*
X90068Y5830D01*
X90071Y6003D01*
X91071Y5827D01*
D02*
G37*
G36*
X93591Y5803D02*
X93608Y5301D01*
X92502Y5479D01*
X92519Y5496D01*
X92534Y5521D01*
X92547Y5554D01*
X92559Y5595D01*
X92569Y5644D01*
X92577Y5702D01*
X92587Y5841D01*
X92591Y6014D01*
X93591Y5803D01*
D02*
G37*
%LPC*%
G36*
X49529Y73791D02*
X46229D01*
Y73661D01*
X46209Y73650D01*
X46104Y73610D01*
X45820Y73728D01*
X45502Y73791D01*
X45176D01*
X44858Y73728D01*
X44557Y73603D01*
X44287Y73423D01*
X44057Y73193D01*
X43904Y72963D01*
X43884Y72953D01*
X43788Y72940D01*
X43751Y72946D01*
X43561Y73136D01*
X43344Y73262D01*
Y72136D01*
Y71010D01*
X43561Y71136D01*
X43754Y71329D01*
X43783Y71336D01*
X43883Y71325D01*
X43907Y71314D01*
X44057Y71089D01*
X44287Y70859D01*
X44557Y70679D01*
X44858Y70554D01*
X45176Y70491D01*
X45502D01*
X45820Y70554D01*
X46104Y70672D01*
X46209Y70632D01*
X46229Y70621D01*
Y70491D01*
X49529D01*
Y73791D01*
D02*
G37*
G36*
X65071Y73648D02*
Y73072D01*
X65647D01*
X65521Y73290D01*
X65289Y73522D01*
X65071Y73648D01*
D02*
G37*
G36*
X42244Y73262D02*
X42026Y73136D01*
X41794Y72904D01*
X41668Y72686D01*
X42244D01*
Y73262D01*
D02*
G37*
G36*
X21819Y72632D02*
Y72056D01*
X22395D01*
X22269Y72274D01*
X22037Y72506D01*
X21819Y72632D01*
D02*
G37*
G36*
X20719D02*
X20501Y72506D01*
X20269Y72274D01*
X20143Y72056D01*
X20719D01*
Y72632D01*
D02*
G37*
G36*
X65647Y71972D02*
X65071D01*
Y71396D01*
X65289Y71522D01*
X65521Y71755D01*
X65647Y71972D01*
D02*
G37*
G36*
X42244Y71586D02*
X41668D01*
X41794Y71368D01*
X42026Y71136D01*
X42244Y71010D01*
Y71586D01*
D02*
G37*
G36*
X95826Y72563D02*
X95372D01*
X94928Y72475D01*
X94510Y72301D01*
X94133Y72050D01*
X93812Y71729D01*
X93561Y71352D01*
X93387Y70934D01*
X93299Y70490D01*
Y70036D01*
X93387Y69592D01*
X93561Y69174D01*
X93812Y68797D01*
X94133Y68476D01*
X94510Y68225D01*
X94928Y68051D01*
X95372Y67963D01*
X95826D01*
X96270Y68051D01*
X96688Y68225D01*
X97065Y68476D01*
X97386Y68797D01*
X97637Y69174D01*
X97811Y69592D01*
X97899Y70036D01*
Y70490D01*
X97811Y70934D01*
X97637Y71352D01*
X97386Y71729D01*
X97065Y72050D01*
X96688Y72301D01*
X96270Y72475D01*
X95826Y72563D01*
D02*
G37*
G36*
X46969Y67072D02*
Y66440D01*
X47601D01*
X47594Y66465D01*
X47449Y66715D01*
X47244Y66920D01*
X46994Y67065D01*
X46969Y67072D01*
D02*
G37*
G36*
X146125Y71706D02*
X145543D01*
X144968Y71615D01*
X144414Y71435D01*
X143895Y71171D01*
X143424Y70829D01*
X143012Y70417D01*
X142670Y69946D01*
X142405Y69427D01*
X142225Y68873D01*
X142134Y68298D01*
Y67715D01*
X142225Y67140D01*
X142405Y66586D01*
X142670Y66067D01*
X143012Y65596D01*
X143424Y65184D01*
X143895Y64842D01*
X144414Y64577D01*
X144968Y64397D01*
X145543Y64306D01*
X146125D01*
X146700Y64397D01*
X147254Y64577D01*
X147773Y64842D01*
X148244Y65184D01*
X148656Y65596D01*
X148999Y66067D01*
X149263Y66586D01*
X149443Y67140D01*
X149534Y67715D01*
Y68298D01*
X149443Y68873D01*
X149263Y69427D01*
X148999Y69946D01*
X148656Y70417D01*
X148244Y70829D01*
X147773Y71171D01*
X147254Y71435D01*
X146700Y71615D01*
X146125Y71706D01*
D02*
G37*
G36*
X8298D02*
X7715D01*
X7140Y71615D01*
X6586Y71435D01*
X6067Y71171D01*
X5596Y70829D01*
X5184Y70417D01*
X4842Y69946D01*
X4577Y69427D01*
X4397Y68873D01*
X4306Y68298D01*
Y67715D01*
X4397Y67140D01*
X4577Y66586D01*
X4842Y66067D01*
X5184Y65596D01*
X5596Y65184D01*
X6067Y64842D01*
X6586Y64577D01*
X7140Y64397D01*
X7715Y64306D01*
X8298D01*
X8873Y64397D01*
X9427Y64577D01*
X9946Y64842D01*
X10417Y65184D01*
X10829Y65596D01*
X11171Y66067D01*
X11435Y66586D01*
X11615Y67140D01*
X11706Y67715D01*
Y68298D01*
X11615Y68873D01*
X11435Y69427D01*
X11171Y69946D01*
X10829Y70417D01*
X10417Y70829D01*
X9946Y71171D01*
X9427Y71435D01*
X8873Y71615D01*
X8298Y71706D01*
D02*
G37*
G36*
X16994Y71691D02*
X13994D01*
Y68691D01*
X14208D01*
X14275Y68566D01*
X14165Y68402D01*
X14052Y68129D01*
X13994Y67839D01*
Y67543D01*
X14052Y67253D01*
X14165Y66980D01*
X14329Y66735D01*
X14538Y66526D01*
X14571Y66504D01*
Y66379D01*
X14538Y66356D01*
X14329Y66147D01*
X14165Y65902D01*
X14052Y65629D01*
X13994Y65339D01*
Y65043D01*
X14052Y64754D01*
X14165Y64481D01*
X14329Y64235D01*
X14538Y64026D01*
X14571Y64004D01*
Y63879D01*
X14538Y63856D01*
X14329Y63647D01*
X14165Y63402D01*
X14052Y63129D01*
X13994Y62839D01*
Y62543D01*
X14052Y62253D01*
X14165Y61980D01*
X14329Y61735D01*
X14538Y61526D01*
X14783Y61362D01*
X15056Y61249D01*
X15346Y61191D01*
X15642D01*
X15932Y61249D01*
X16205Y61362D01*
X16450Y61526D01*
X16659Y61735D01*
X16823Y61980D01*
X16936Y62253D01*
X16994Y62543D01*
Y62839D01*
X16936Y63129D01*
X16823Y63402D01*
X16659Y63647D01*
X16450Y63856D01*
X16417Y63879D01*
Y64004D01*
X16450Y64026D01*
X16659Y64235D01*
X16823Y64481D01*
X16936Y64754D01*
X16994Y65043D01*
Y65339D01*
X16936Y65629D01*
X16823Y65902D01*
X16659Y66147D01*
X16450Y66356D01*
X16417Y66379D01*
Y66504D01*
X16450Y66526D01*
X16659Y66735D01*
X16823Y66980D01*
X16936Y67253D01*
X16994Y67543D01*
Y67839D01*
X16936Y68129D01*
X16823Y68402D01*
X16713Y68566D01*
X16780Y68691D01*
X16994D01*
Y71691D01*
D02*
G37*
G36*
X12084Y58408D02*
Y57776D01*
X12716D01*
X12709Y57801D01*
X12564Y58051D01*
X12359Y58256D01*
X12109Y58401D01*
X12084Y58408D01*
D02*
G37*
G36*
X11284D02*
X11259Y58401D01*
X11009Y58256D01*
X10804Y58051D01*
X10659Y57801D01*
X10652Y57776D01*
X11284D01*
Y58408D01*
D02*
G37*
G36*
X22395Y70956D02*
X21269D01*
X20143D01*
X20269Y70739D01*
X20457Y70551D01*
X20463Y70523D01*
X20450Y70415D01*
X20440Y70397D01*
X20217Y70248D01*
X19987Y70018D01*
X19807Y69748D01*
X19682Y69447D01*
X19619Y69129D01*
Y68804D01*
X19682Y68485D01*
X19807Y68184D01*
X19987Y67914D01*
X20211Y67691D01*
X19992Y67473D01*
X19812Y67203D01*
X19687Y66902D01*
X19624Y66584D01*
Y66258D01*
X19687Y65940D01*
X19812Y65639D01*
X19992Y65369D01*
X20206Y65156D01*
X19987Y64938D01*
X19807Y64668D01*
X19682Y64367D01*
X19619Y64049D01*
Y63724D01*
X19682Y63405D01*
X19807Y63104D01*
X19987Y62834D01*
X20206Y62616D01*
X19987Y62398D01*
X19807Y62128D01*
X19682Y61827D01*
X19619Y61509D01*
Y61184D01*
X19682Y60865D01*
X19807Y60564D01*
X19987Y60294D01*
X20206Y60076D01*
X19987Y59858D01*
X19807Y59588D01*
X19682Y59287D01*
X19619Y58969D01*
Y58644D01*
X19682Y58325D01*
X19807Y58024D01*
X19987Y57754D01*
X20217Y57524D01*
X20440Y57375D01*
X20450Y57357D01*
X20463Y57249D01*
X20457Y57221D01*
X20269Y57034D01*
X20143Y56816D01*
X21269D01*
X22395D01*
X22269Y57034D01*
X22081Y57221D01*
X22075Y57249D01*
X22088Y57357D01*
X22098Y57375D01*
X22321Y57524D01*
X22551Y57754D01*
X22731Y58024D01*
X22856Y58325D01*
X22919Y58644D01*
Y58969D01*
X22856Y59287D01*
X22731Y59588D01*
X22551Y59858D01*
X22332Y60076D01*
X22551Y60294D01*
X22731Y60564D01*
X22856Y60865D01*
X22919Y61184D01*
Y61509D01*
X22856Y61827D01*
X22731Y62128D01*
X22551Y62398D01*
X22332Y62616D01*
X22551Y62834D01*
X22731Y63104D01*
X22856Y63405D01*
X22919Y63724D01*
Y64049D01*
X22856Y64367D01*
X22731Y64668D01*
X22551Y64938D01*
X22337Y65151D01*
X22556Y65369D01*
X22736Y65639D01*
X22861Y65940D01*
X22924Y66258D01*
Y66584D01*
X22861Y66902D01*
X22736Y67203D01*
X22556Y67473D01*
X22332Y67696D01*
X22551Y67914D01*
X22731Y68184D01*
X22856Y68485D01*
X22919Y68804D01*
Y69129D01*
X22856Y69447D01*
X22731Y69748D01*
X22551Y70018D01*
X22321Y70248D01*
X22098Y70397D01*
X22088Y70415D01*
X22075Y70523D01*
X22081Y70551D01*
X22269Y70739D01*
X22395Y70956D01*
D02*
G37*
G36*
X12716Y56976D02*
X12084D01*
Y56344D01*
X12109Y56351D01*
X12359Y56496D01*
X12564Y56701D01*
X12709Y56951D01*
X12716Y56976D01*
D02*
G37*
G36*
X11284D02*
X10652D01*
X10659Y56951D01*
X10804Y56701D01*
X11009Y56496D01*
X11259Y56351D01*
X11284Y56344D01*
Y56976D01*
D02*
G37*
G36*
X73979Y56453D02*
X73150D01*
Y55624D01*
X73979D01*
Y56453D01*
D02*
G37*
G36*
X72900D02*
X72071D01*
Y55624D01*
X72900D01*
Y56453D01*
D02*
G37*
G36*
X73979Y55374D02*
X73150D01*
Y54545D01*
X73979D01*
Y55374D01*
D02*
G37*
G36*
X72900D02*
X72071D01*
Y54545D01*
X72900D01*
Y55374D01*
D02*
G37*
G36*
X151172Y53069D02*
Y52493D01*
X151748D01*
X151622Y52711D01*
X151390Y52943D01*
X151172Y53069D01*
D02*
G37*
G36*
X42848Y50160D02*
Y48810D01*
X43605D01*
Y49360D01*
X43577Y49569D01*
X43497Y49763D01*
X43369Y49931D01*
X43201Y50059D01*
X43007Y50139D01*
X42848Y50160D01*
D02*
G37*
G36*
X28109D02*
Y48810D01*
X28866D01*
Y49360D01*
X28838Y49569D01*
X28758Y49763D01*
X28630Y49931D01*
X28462Y50059D01*
X28268Y50139D01*
X28109Y50160D01*
D02*
G37*
G36*
X57587D02*
Y48810D01*
X58344D01*
Y49360D01*
X58316Y49569D01*
X58236Y49763D01*
X58108Y49931D01*
X57940Y50059D01*
X57746Y50139D01*
X57587Y50160D01*
D02*
G37*
G36*
X41748D02*
X41589Y50139D01*
X41395Y50059D01*
X41227Y49931D01*
X41099Y49763D01*
X41019Y49569D01*
X40991Y49360D01*
Y48810D01*
X41748D01*
Y50160D01*
D02*
G37*
G36*
X27009D02*
X26850Y50139D01*
X26656Y50059D01*
X26488Y49931D01*
X26360Y49763D01*
X26280Y49569D01*
X26252Y49360D01*
Y48810D01*
X27009D01*
Y50160D01*
D02*
G37*
G36*
X56487D02*
X56328Y50139D01*
X56134Y50059D01*
X55966Y49931D01*
X55838Y49763D01*
X55758Y49569D01*
X55730Y49360D01*
Y48810D01*
X56487D01*
Y50160D01*
D02*
G37*
G36*
X3260Y47481D02*
X3042Y47355D01*
X2810Y47123D01*
X2684Y46905D01*
X3260D01*
Y47481D01*
D02*
G37*
G36*
X58344Y47710D02*
X57587D01*
Y46360D01*
X57746Y46381D01*
X57940Y46461D01*
X58108Y46589D01*
X58236Y46757D01*
X58316Y46951D01*
X58344Y47160D01*
Y47710D01*
D02*
G37*
G36*
X43605D02*
X42848D01*
Y46360D01*
X43007Y46381D01*
X43201Y46461D01*
X43369Y46589D01*
X43497Y46757D01*
X43577Y46951D01*
X43605Y47160D01*
Y47710D01*
D02*
G37*
G36*
X56487D02*
X55730D01*
Y47160D01*
X55758Y46951D01*
X55838Y46757D01*
X55966Y46589D01*
X56134Y46461D01*
X56328Y46381D01*
X56487Y46360D01*
Y47710D01*
D02*
G37*
G36*
X41748D02*
X40991D01*
Y47160D01*
X41019Y46951D01*
X41099Y46757D01*
X41227Y46589D01*
X41395Y46461D01*
X41589Y46381D01*
X41748Y46360D01*
Y47710D01*
D02*
G37*
G36*
X95826Y50563D02*
X95372D01*
X94928Y50475D01*
X94510Y50301D01*
X94133Y50050D01*
X93812Y49729D01*
X93561Y49352D01*
X93387Y48934D01*
X93299Y48490D01*
Y48036D01*
X93387Y47592D01*
X93561Y47174D01*
X93812Y46797D01*
X94133Y46476D01*
X94510Y46225D01*
X94928Y46051D01*
X95372Y45963D01*
X95826D01*
X96270Y46051D01*
X96688Y46225D01*
X97065Y46476D01*
X97386Y46797D01*
X97637Y47174D01*
X97811Y47592D01*
X97899Y48036D01*
Y48490D01*
X97811Y48934D01*
X97637Y49352D01*
X97386Y49729D01*
X97065Y50050D01*
X96688Y50301D01*
X96270Y50475D01*
X95826Y50563D01*
D02*
G37*
G36*
X67937Y50570D02*
X66937D01*
X66624Y50529D01*
X66332Y50408D01*
X66081Y50216D01*
X65889Y49965D01*
X65768Y49673D01*
X65727Y49360D01*
Y47160D01*
X65768Y46847D01*
X65889Y46555D01*
X66081Y46304D01*
X66332Y46112D01*
X66624Y45991D01*
X66937Y45950D01*
X67937D01*
X68250Y45991D01*
X68542Y46112D01*
X68793Y46304D01*
X68985Y46555D01*
X69106Y46847D01*
X69147Y47160D01*
Y49360D01*
X69106Y49673D01*
X68985Y49965D01*
X68793Y50216D01*
X68542Y50408D01*
X68250Y50529D01*
X67937Y50570D01*
D02*
G37*
G36*
X90243Y45600D02*
X89917D01*
X89599Y45537D01*
X89298Y45412D01*
X89028Y45232D01*
X88810Y45013D01*
X88592Y45232D01*
X88322Y45412D01*
X88021Y45537D01*
X87703Y45600D01*
X87377D01*
X87059Y45537D01*
X86758Y45412D01*
X86488Y45232D01*
X86258Y45002D01*
X86109Y44779D01*
X86091Y44769D01*
X85983Y44756D01*
X85955Y44762D01*
X85768Y44950D01*
X85550Y45076D01*
Y43950D01*
Y42824D01*
X85768Y42950D01*
X85955Y43138D01*
X85983Y43144D01*
X86091Y43131D01*
X86109Y43121D01*
X86258Y42898D01*
X86488Y42668D01*
X86758Y42488D01*
X87059Y42363D01*
X87377Y42300D01*
X87703D01*
X88021Y42363D01*
X88322Y42488D01*
X88592Y42668D01*
X88810Y42887D01*
X89028Y42668D01*
X89298Y42488D01*
X89599Y42363D01*
X89917Y42300D01*
X90243D01*
X90561Y42363D01*
X90862Y42488D01*
X91132Y42668D01*
X91362Y42898D01*
X91542Y43168D01*
X91667Y43469D01*
X91730Y43787D01*
Y44113D01*
X91667Y44431D01*
X91542Y44732D01*
X91362Y45002D01*
X91132Y45232D01*
X90862Y45412D01*
X90561Y45537D01*
X90243Y45600D01*
D02*
G37*
G36*
X82628Y45605D02*
X82303D01*
X81984Y45542D01*
X81683Y45417D01*
X81413Y45237D01*
X81190Y45013D01*
X80972Y45232D01*
X80702Y45412D01*
X80401Y45537D01*
X80083Y45600D01*
X79757D01*
X79439Y45537D01*
X79155Y45419D01*
X79050Y45459D01*
X79030Y45470D01*
Y45600D01*
X75730D01*
Y42300D01*
X79030D01*
Y42430D01*
X79050Y42441D01*
X79155Y42481D01*
X79439Y42363D01*
X79757Y42300D01*
X80083D01*
X80401Y42363D01*
X80702Y42488D01*
X80972Y42668D01*
X81195Y42892D01*
X81413Y42673D01*
X81683Y42493D01*
X81984Y42368D01*
X82303Y42305D01*
X82628D01*
X82946Y42368D01*
X83247Y42493D01*
X83517Y42673D01*
X83747Y42903D01*
X83892Y43120D01*
X83908Y43130D01*
X84026Y43142D01*
X84047Y43135D01*
X84232Y42950D01*
X84450Y42824D01*
Y43950D01*
Y45076D01*
X84232Y44950D01*
X84050Y44768D01*
X84023Y44761D01*
X83906Y44777D01*
X83896Y44783D01*
X83747Y45007D01*
X83517Y45237D01*
X83247Y45417D01*
X82946Y45542D01*
X82628Y45605D01*
D02*
G37*
G36*
X151872Y38693D02*
X151172D01*
Y37993D01*
X151872D01*
Y38693D01*
D02*
G37*
G36*
X4355Y34151D02*
Y33575D01*
X4931D01*
X4805Y33793D01*
X4572Y34025D01*
X4355Y34151D01*
D02*
G37*
G36*
X3255D02*
X3037Y34025D01*
X2805Y33793D01*
X2679Y33575D01*
X3255D01*
Y34151D01*
D02*
G37*
G36*
X82628Y33650D02*
X82303D01*
X81984Y33587D01*
X81683Y33462D01*
X81413Y33282D01*
X81193Y33061D01*
X80972Y33282D01*
X80702Y33462D01*
X80401Y33587D01*
X80083Y33650D01*
X79757D01*
X79439Y33587D01*
X79138Y33462D01*
X78868Y33282D01*
X78650Y33063D01*
X78432Y33282D01*
X78162Y33462D01*
X77861Y33587D01*
X77543Y33650D01*
X77217D01*
X76899Y33587D01*
X76598Y33462D01*
X76328Y33282D01*
X76098Y33052D01*
X75918Y32782D01*
X75793Y32481D01*
X75730Y32163D01*
Y31837D01*
X75793Y31519D01*
X75918Y31218D01*
X76098Y30948D01*
X76328Y30718D01*
X76598Y30538D01*
X76899Y30413D01*
X77217Y30350D01*
X77543D01*
X77861Y30413D01*
X78162Y30538D01*
X78432Y30718D01*
X78650Y30937D01*
X78868Y30718D01*
X79138Y30538D01*
X79439Y30413D01*
X79757Y30350D01*
X80083D01*
X80401Y30413D01*
X80702Y30538D01*
X80972Y30718D01*
X81193Y30939D01*
X81413Y30718D01*
X81683Y30538D01*
X81984Y30413D01*
X82303Y30350D01*
X82628D01*
X82946Y30413D01*
X83247Y30538D01*
X83517Y30718D01*
X83747Y30948D01*
X83894Y31168D01*
X83907Y31176D01*
X84025Y31191D01*
X84048Y31184D01*
X84232Y31000D01*
X84450Y30874D01*
Y32000D01*
Y33126D01*
X84232Y33000D01*
X84048Y32816D01*
X84025Y32809D01*
X83907Y32824D01*
X83894Y32832D01*
X83747Y33052D01*
X83517Y33282D01*
X83247Y33462D01*
X82946Y33587D01*
X82628Y33650D01*
D02*
G37*
G36*
X57587Y33760D02*
Y32410D01*
X58344D01*
Y32960D01*
X58316Y33169D01*
X58236Y33363D01*
X58108Y33531D01*
X57940Y33659D01*
X57746Y33739D01*
X57587Y33760D01*
D02*
G37*
G36*
X42848D02*
Y32410D01*
X43605D01*
Y32960D01*
X43577Y33169D01*
X43497Y33363D01*
X43369Y33531D01*
X43201Y33659D01*
X43007Y33739D01*
X42848Y33760D01*
D02*
G37*
G36*
X28109D02*
Y32410D01*
X28866D01*
Y32960D01*
X28838Y33169D01*
X28758Y33363D01*
X28630Y33531D01*
X28462Y33659D01*
X28268Y33739D01*
X28109Y33760D01*
D02*
G37*
G36*
X56487D02*
X56328Y33739D01*
X56134Y33659D01*
X55966Y33531D01*
X55838Y33363D01*
X55758Y33169D01*
X55730Y32960D01*
Y32410D01*
X56487D01*
Y33760D01*
D02*
G37*
G36*
X41748D02*
X41589Y33739D01*
X41395Y33659D01*
X41227Y33531D01*
X41099Y33363D01*
X41019Y33169D01*
X40991Y32960D01*
Y32410D01*
X41748D01*
Y33760D01*
D02*
G37*
G36*
X27009D02*
X26850Y33739D01*
X26656Y33659D01*
X26488Y33531D01*
X26360Y33363D01*
X26280Y33169D01*
X26252Y32960D01*
Y32410D01*
X27009D01*
Y33760D01*
D02*
G37*
G36*
X58344Y31310D02*
X57587D01*
Y29960D01*
X57746Y29981D01*
X57940Y30061D01*
X58108Y30189D01*
X58236Y30357D01*
X58316Y30551D01*
X58344Y30760D01*
Y31310D01*
D02*
G37*
G36*
X43605D02*
X42848D01*
Y29960D01*
X43007Y29981D01*
X43201Y30061D01*
X43369Y30189D01*
X43497Y30357D01*
X43577Y30551D01*
X43605Y30760D01*
Y31310D01*
D02*
G37*
G36*
X28866D02*
X28109D01*
Y29960D01*
X28268Y29981D01*
X28462Y30061D01*
X28630Y30189D01*
X28758Y30357D01*
X28838Y30551D01*
X28866Y30760D01*
Y31310D01*
D02*
G37*
G36*
X56487D02*
X55730D01*
Y30760D01*
X55758Y30551D01*
X55838Y30357D01*
X55966Y30189D01*
X56134Y30061D01*
X56328Y29981D01*
X56487Y29960D01*
Y31310D01*
D02*
G37*
G36*
X41748D02*
X40991D01*
Y30760D01*
X41019Y30551D01*
X41099Y30357D01*
X41227Y30189D01*
X41395Y30061D01*
X41589Y29981D01*
X41748Y29960D01*
Y31310D01*
D02*
G37*
G36*
X27009D02*
X26252D01*
Y30760D01*
X26280Y30551D01*
X26360Y30357D01*
X26488Y30189D01*
X26656Y30061D01*
X26850Y29981D01*
X27009Y29960D01*
Y31310D01*
D02*
G37*
G36*
X67937Y34170D02*
X66937D01*
X66624Y34129D01*
X66332Y34008D01*
X66081Y33816D01*
X65889Y33565D01*
X65768Y33273D01*
X65727Y32960D01*
Y30760D01*
X65768Y30447D01*
X65889Y30155D01*
X66081Y29904D01*
X66332Y29712D01*
X66624Y29591D01*
X66937Y29550D01*
X67937D01*
X68250Y29591D01*
X68542Y29712D01*
X68793Y29904D01*
X68985Y30155D01*
X69106Y30447D01*
X69147Y30760D01*
Y32960D01*
X69106Y33273D01*
X68985Y33565D01*
X68793Y33816D01*
X68542Y34008D01*
X68250Y34129D01*
X67937Y34170D01*
D02*
G37*
G36*
X53198D02*
X52198D01*
X51885Y34129D01*
X51593Y34008D01*
X51342Y33816D01*
X51150Y33565D01*
X51029Y33273D01*
X50988Y32960D01*
Y30760D01*
X51029Y30447D01*
X51150Y30155D01*
X51342Y29904D01*
X51593Y29712D01*
X51885Y29591D01*
X52198Y29550D01*
X53198D01*
X53511Y29591D01*
X53803Y29712D01*
X54054Y29904D01*
X54246Y30155D01*
X54367Y30447D01*
X54408Y30760D01*
Y32960D01*
X54367Y33273D01*
X54246Y33565D01*
X54054Y33816D01*
X53803Y34008D01*
X53511Y34129D01*
X53198Y34170D01*
D02*
G37*
G36*
X38459D02*
X37459D01*
X37146Y34129D01*
X36854Y34008D01*
X36603Y33816D01*
X36411Y33565D01*
X36290Y33273D01*
X36249Y32960D01*
Y30760D01*
X36290Y30447D01*
X36411Y30155D01*
X36603Y29904D01*
X36854Y29712D01*
X37146Y29591D01*
X37459Y29550D01*
X38459D01*
X38772Y29591D01*
X39064Y29712D01*
X39315Y29904D01*
X39507Y30155D01*
X39628Y30447D01*
X39669Y30760D01*
Y32960D01*
X39628Y33273D01*
X39507Y33565D01*
X39315Y33816D01*
X39064Y34008D01*
X38772Y34129D01*
X38459Y34170D01*
D02*
G37*
G36*
X4931Y32475D02*
X3805D01*
X2679D01*
X2805Y32258D01*
X2998Y32065D01*
X3005Y32036D01*
X2994Y31936D01*
X2983Y31912D01*
X2758Y31762D01*
X2528Y31532D01*
X2348Y31262D01*
X2223Y30961D01*
X2160Y30643D01*
Y30317D01*
X2223Y29999D01*
X2341Y29715D01*
X2301Y29610D01*
X2290Y29590D01*
X2160D01*
Y26290D01*
X5460D01*
Y29590D01*
X5330D01*
X5319Y29610D01*
X5279Y29715D01*
X5397Y29999D01*
X5460Y30317D01*
Y30643D01*
X5397Y30961D01*
X5272Y31262D01*
X5092Y31532D01*
X4862Y31762D01*
X4632Y31915D01*
X4622Y31935D01*
X4608Y32031D01*
X4615Y32068D01*
X4805Y32258D01*
X4931Y32475D01*
D02*
G37*
G36*
X4365Y21314D02*
Y20738D01*
X4941D01*
X4815Y20955D01*
X4583Y21188D01*
X4365Y21314D01*
D02*
G37*
G36*
X3265D02*
X3048Y21188D01*
X2815Y20955D01*
X2689Y20738D01*
X3265D01*
Y21314D01*
D02*
G37*
G36*
X4941Y19638D02*
X3815D01*
X2689D01*
X2815Y19420D01*
X2998Y19238D01*
X3004Y19211D01*
X2988Y19094D01*
X2982Y19084D01*
X2758Y18935D01*
X2528Y18705D01*
X2348Y18435D01*
X2223Y18134D01*
X2160Y17816D01*
Y17490D01*
X2223Y17172D01*
X2348Y16871D01*
X2528Y16601D01*
X2752Y16378D01*
X2533Y16160D01*
X2353Y15890D01*
X2228Y15589D01*
X2165Y15270D01*
Y14945D01*
X2228Y14627D01*
X2346Y14343D01*
X2306Y14238D01*
X2295Y14218D01*
X2165D01*
Y10918D01*
X5465D01*
Y14218D01*
X5335D01*
X5324Y14238D01*
X5284Y14343D01*
X5402Y14627D01*
X5465Y14945D01*
Y15270D01*
X5402Y15589D01*
X5277Y15890D01*
X5097Y16160D01*
X4873Y16383D01*
X5092Y16601D01*
X5272Y16871D01*
X5397Y17172D01*
X5460Y17490D01*
Y17816D01*
X5397Y18134D01*
X5272Y18435D01*
X5092Y18705D01*
X4862Y18935D01*
X4645Y19079D01*
X4635Y19096D01*
X4623Y19214D01*
X4630Y19235D01*
X4815Y19420D01*
X4941Y19638D01*
D02*
G37*
G36*
X59745Y8965D02*
X59440Y8866D01*
X58963Y8623D01*
X58530Y8308D01*
X58152Y7930D01*
X57837Y7497D01*
X57594Y7020D01*
X57495Y6715D01*
X59745D01*
Y8965D01*
D02*
G37*
G36*
X71645Y9415D02*
X64245D01*
Y6150D01*
X64120Y6140D01*
X64061Y6511D01*
X63896Y7020D01*
X63653Y7497D01*
X63338Y7930D01*
X62960Y8308D01*
X62527Y8623D01*
X62050Y8866D01*
X61745Y8965D01*
Y5715D01*
Y2465D01*
X62050Y2564D01*
X62527Y2807D01*
X62960Y3122D01*
X63338Y3500D01*
X63653Y3933D01*
X63896Y4410D01*
X64061Y4919D01*
X64120Y5290D01*
X64245Y5280D01*
Y2015D01*
X71645D01*
Y9415D01*
D02*
G37*
G36*
X43709Y6326D02*
X43413D01*
X43123Y6268D01*
X42850Y6155D01*
X42605Y5991D01*
X42396Y5782D01*
X42373Y5749D01*
X42248D01*
X42226Y5782D01*
X42017Y5991D01*
X41771Y6155D01*
X41499Y6268D01*
X41209Y6326D01*
X40913D01*
X40623Y6268D01*
X40350Y6155D01*
X40105Y5991D01*
X39896Y5782D01*
X39873Y5749D01*
X39749D01*
X39726Y5782D01*
X39517Y5991D01*
X39272Y6155D01*
X38999Y6268D01*
X38709Y6326D01*
X38413D01*
X38123Y6268D01*
X37850Y6155D01*
X37686Y6045D01*
X37561Y6112D01*
Y6326D01*
X34561D01*
Y3326D01*
X37561D01*
Y3540D01*
X37686Y3607D01*
X37850Y3497D01*
X38123Y3384D01*
X38413Y3326D01*
X38709D01*
X38999Y3384D01*
X39272Y3497D01*
X39517Y3661D01*
X39726Y3870D01*
X39749Y3903D01*
X39873D01*
X39896Y3870D01*
X40105Y3661D01*
X40350Y3497D01*
X40623Y3384D01*
X40913Y3326D01*
X41209D01*
X41499Y3384D01*
X41771Y3497D01*
X42017Y3661D01*
X42226Y3870D01*
X42248Y3903D01*
X42373D01*
X42396Y3870D01*
X42605Y3661D01*
X42850Y3497D01*
X43123Y3384D01*
X43413Y3326D01*
X43709D01*
X43999Y3384D01*
X44272Y3497D01*
X44517Y3661D01*
X44726Y3870D01*
X44890Y4115D01*
X45003Y4388D01*
X45061Y4678D01*
Y4974D01*
X45003Y5264D01*
X44890Y5537D01*
X44726Y5782D01*
X44517Y5991D01*
X44272Y6155D01*
X43999Y6268D01*
X43709Y6326D01*
D02*
G37*
G36*
X8298Y11706D02*
X7715D01*
X7140Y11615D01*
X6586Y11435D01*
X6067Y11171D01*
X5596Y10829D01*
X5184Y10417D01*
X4842Y9946D01*
X4577Y9427D01*
X4397Y8873D01*
X4306Y8298D01*
Y7715D01*
X4397Y7140D01*
X4577Y6586D01*
X4842Y6067D01*
X5184Y5596D01*
X5596Y5184D01*
X6067Y4842D01*
X6586Y4577D01*
X7140Y4397D01*
X7715Y4306D01*
X8298D01*
X8873Y4397D01*
X9427Y4577D01*
X9946Y4842D01*
X10417Y5184D01*
X10829Y5596D01*
X11171Y6067D01*
X11435Y6586D01*
X11615Y7140D01*
X11706Y7715D01*
Y8298D01*
X11615Y8873D01*
X11435Y9427D01*
X11171Y9946D01*
X10829Y10417D01*
X10417Y10829D01*
X9946Y11171D01*
X9427Y11435D01*
X8873Y11615D01*
X8298Y11706D01*
D02*
G37*
G36*
X59745Y4715D02*
X57495D01*
X57594Y4410D01*
X57837Y3933D01*
X58152Y3500D01*
X58530Y3122D01*
X58963Y2807D01*
X59440Y2564D01*
X59745Y2465D01*
Y4715D01*
D02*
G37*
G36*
X56155Y19887D02*
X55859D01*
X55569Y19829D01*
X55296Y19716D01*
X55051Y19552D01*
X54842Y19343D01*
X54678Y19098D01*
X54565Y18825D01*
X54507Y18535D01*
Y18239D01*
X54565Y17949D01*
X54678Y17676D01*
X54842Y17431D01*
X55051Y17222D01*
X55296Y17058D01*
X55569Y16945D01*
X55859Y16887D01*
X56155D01*
X56445Y16945D01*
X56718Y17058D01*
X56963Y17222D01*
X57172Y17431D01*
X57336Y17676D01*
X57449Y17949D01*
X57507Y18239D01*
Y18535D01*
X57449Y18825D01*
X57336Y19098D01*
X57172Y19343D01*
X56963Y19552D01*
X56718Y19716D01*
X56445Y19829D01*
X56155Y19887D01*
D02*
G37*
G36*
X74062Y19534D02*
X73766D01*
X73476Y19476D01*
X73203Y19363D01*
X72958Y19199D01*
X72749Y18990D01*
X72585Y18745D01*
X72472Y18472D01*
X72414Y18182D01*
Y17886D01*
X72472Y17596D01*
X72585Y17323D01*
X72749Y17078D01*
X72958Y16869D01*
X73203Y16705D01*
X73476Y16592D01*
X73766Y16534D01*
X74062D01*
X74352Y16592D01*
X74625Y16705D01*
X74870Y16869D01*
X75079Y17078D01*
X75243Y17323D01*
X75356Y17596D01*
X75414Y17886D01*
Y18182D01*
X75356Y18472D01*
X75243Y18745D01*
X75079Y18990D01*
X74870Y19199D01*
X74625Y19363D01*
X74352Y19476D01*
X74062Y19534D01*
D02*
G37*
G36*
X56407Y15919D02*
Y15287D01*
X57039D01*
X57032Y15312D01*
X56887Y15562D01*
X56682Y15767D01*
X56432Y15912D01*
X56407Y15919D01*
D02*
G37*
G36*
X55607D02*
X55582Y15912D01*
X55332Y15767D01*
X55127Y15562D01*
X54982Y15312D01*
X54975Y15287D01*
X55607D01*
Y15919D01*
D02*
G37*
G36*
X74314Y15566D02*
Y14934D01*
X74946D01*
X74939Y14959D01*
X74794Y15209D01*
X74589Y15414D01*
X74339Y15559D01*
X74314Y15566D01*
D02*
G37*
G36*
X73514D02*
X73489Y15559D01*
X73239Y15414D01*
X73034Y15209D01*
X72889Y14959D01*
X72882Y14934D01*
X73514D01*
Y15566D01*
D02*
G37*
G36*
X64297Y21706D02*
X63715D01*
X63140Y21615D01*
X62586Y21435D01*
X62067Y21171D01*
X61596Y20828D01*
X61184Y20416D01*
X60841Y19945D01*
X60577Y19426D01*
X60397Y18872D01*
X60306Y18297D01*
Y17715D01*
X60397Y17140D01*
X60577Y16586D01*
X60841Y16067D01*
X61184Y15596D01*
X61596Y15184D01*
X62067Y14841D01*
X62586Y14577D01*
X63140Y14397D01*
X63715Y14306D01*
X64297D01*
X64872Y14397D01*
X65426Y14577D01*
X65945Y14841D01*
X66416Y15184D01*
X66828Y15596D01*
X67171Y16067D01*
X67435Y16586D01*
X67615Y17140D01*
X67706Y17715D01*
Y18297D01*
X67615Y18872D01*
X67435Y19426D01*
X67171Y19945D01*
X66828Y20416D01*
X66416Y20828D01*
X65945Y21171D01*
X65426Y21435D01*
X64872Y21615D01*
X64297Y21706D01*
D02*
G37*
G36*
X57039Y14487D02*
X56407D01*
Y13855D01*
X56432Y13862D01*
X56682Y14007D01*
X56887Y14212D01*
X57032Y14462D01*
X57039Y14487D01*
D02*
G37*
G36*
X55607D02*
X54975D01*
X54982Y14462D01*
X55127Y14212D01*
X55332Y14007D01*
X55582Y13862D01*
X55607Y13855D01*
Y14487D01*
D02*
G37*
G36*
X74946Y14134D02*
X74314D01*
Y13502D01*
X74339Y13509D01*
X74589Y13654D01*
X74794Y13859D01*
X74939Y14109D01*
X74946Y14134D01*
D02*
G37*
G36*
X73514D02*
X72882D01*
X72889Y14109D01*
X73034Y13859D01*
X73239Y13654D01*
X73489Y13509D01*
X73514Y13502D01*
Y14134D01*
D02*
G37*
G36*
X79968Y12621D02*
X79750Y12495D01*
X79518Y12263D01*
X79392Y12045D01*
X79968D01*
Y12621D01*
D02*
G37*
G36*
Y10945D02*
X79392D01*
X79518Y10728D01*
X79750Y10495D01*
X79968Y10369D01*
Y10945D01*
D02*
G37*
%LPD*%
D10*
X12812Y45688D02*
X37959D01*
X9144Y38750D02*
X12002Y41607D01*
X29411Y10640D02*
X30786Y9266D01*
X31426D01*
X29411Y10640D02*
Y10783D01*
X31426Y9266D02*
X33401Y11241D01*
X16510Y23684D02*
X29411Y10783D01*
X12100Y19300D02*
X16510Y23710D01*
Y26035D01*
X14002Y43688D02*
X17653D01*
X12002Y41688D02*
X14002Y43688D01*
X12002Y41607D02*
Y41688D01*
X11753Y28229D02*
X12002Y27980D01*
X9144Y30099D02*
X11014Y28229D01*
X9144Y30099D02*
Y38750D01*
X11014Y28229D02*
X11753D01*
X93218Y26035D02*
X95758Y23495D01*
X90678Y26035D02*
X93218D01*
Y23495D02*
Y26035D01*
X90678Y23495D02*
Y26035D01*
X78486D02*
X90678D01*
X46101D02*
X78486D01*
Y18542D02*
Y26035D01*
X46101Y23241D02*
Y26035D01*
X78486Y18542D02*
X83058Y13970D01*
Y11495D02*
Y13970D01*
X11811Y46402D02*
X12098D01*
X43561Y26035D02*
X46101D01*
X41021D02*
X43561D01*
Y23241D02*
Y26035D01*
X16510D02*
X41021D01*
X37959Y45748D02*
Y48260D01*
X41021Y23241D02*
Y26035D01*
X19050Y35020D02*
Y45628D01*
X16510Y32480D02*
X19050Y35020D01*
X16510Y26035D02*
Y32480D01*
X12098Y46402D02*
X12812Y45688D01*
X12002Y32480D02*
X16510D01*
X138425Y7112D02*
X140965D01*
X138425Y6985D02*
Y7112D01*
X102362Y10160D02*
Y35179D01*
X105537Y6985D02*
X138425D01*
X102362Y10160D02*
X105537Y6985D01*
X99314Y38227D02*
X102362Y35179D01*
X52698Y38227D02*
Y48260D01*
Y38227D02*
X99314D01*
X92964Y4826D02*
X93091Y4953D01*
Y11368D02*
X93218Y11495D01*
X90464Y4826D02*
X90571Y4933D01*
Y11388D02*
X90678Y11495D01*
X87964Y4826D02*
X88051Y4913D01*
Y11408D02*
X88138Y11495D01*
X85534Y11431D02*
X85603Y11500D01*
X85464Y4826D02*
X85534Y4896D01*
D33*
X90080Y31551D02*
Y32000D01*
X89408Y30879D02*
X90080Y31551D01*
X89408Y29845D02*
Y30879D01*
X87540Y31556D02*
Y32005D01*
X86868Y30884D02*
X87540Y31556D01*
X86868Y29850D02*
Y30884D01*
X121666Y36322D02*
X139700D01*
X118364Y39624D02*
X121666Y36322D01*
X139700D02*
X140970Y37592D01*
X118364Y39624D02*
Y44831D01*
X84473Y27455D02*
X86868Y29850D01*
X17676Y27455D02*
X84473D01*
X17653Y27432D02*
X17676Y27455D01*
X119253Y42418D02*
Y44747D01*
X119065Y45527D02*
X119133Y45459D01*
Y44867D02*
Y45459D01*
Y44867D02*
X119253Y44747D01*
X124206Y37465D02*
X138303D01*
X138430Y37592D01*
X119253Y42418D02*
X124206Y37465D01*
X86360Y26797D02*
X89408Y29845D01*
X18707Y26797D02*
X86360D01*
X18669Y26835D02*
X18707Y26797D01*
X106680Y16002D02*
X107950Y14732D01*
X103646Y16002D02*
X106680D01*
X72738Y59215D02*
X102216D01*
X60266Y71687D02*
X72738Y59215D01*
X60266Y71687D02*
Y71687D01*
X59436Y72517D02*
X60266Y71687D01*
X143129Y60071D02*
X143383Y59817D01*
X137922Y60071D02*
X143129D01*
X143383Y29845D02*
Y59817D01*
X139573Y64389D02*
X143891Y60071D01*
Y26543D02*
Y60071D01*
X137922Y66929D02*
X139573D01*
X136398Y65405D02*
X137922Y66929D01*
X136398Y61595D02*
Y65405D01*
Y61595D02*
X137922Y60071D01*
X142875Y31383D02*
Y59422D01*
X142734Y59563D02*
X142875Y59422D01*
X137414Y59563D02*
X142734D01*
X135636Y61341D02*
Y65659D01*
Y61341D02*
X137414Y59563D01*
X139446Y69469D02*
X139573D01*
X135636Y65659D02*
X139446Y69469D01*
X140970Y27432D02*
X143383Y29845D01*
X138430Y29972D02*
X139700Y28702D01*
Y26543D02*
Y28702D01*
Y26543D02*
X140081Y26162D01*
X143510D02*
X143891Y26543D01*
X140081Y26162D02*
X143510D01*
X142734Y31242D02*
X142875Y31383D01*
X137904Y31242D02*
X142734D01*
X137160Y30498D02*
X137904Y31242D01*
X137160Y28702D02*
Y30498D01*
Y28702D02*
X138430Y27432D01*
X101343Y52451D02*
X102997Y50797D01*
X5856Y52451D02*
X101343D01*
X102997Y14873D02*
Y50797D01*
X5574Y43029D02*
Y52170D01*
X5856Y52451D01*
X130626Y25413D02*
X131064Y24975D01*
Y17907D02*
Y24975D01*
X130626Y25413D02*
Y25470D01*
X117620Y39352D02*
X137160Y19812D01*
X138430D01*
X115443Y63119D02*
X138430Y40132D01*
X121793Y46101D02*
X127806D01*
X83058Y23495D02*
X88551Y18002D01*
X114300Y12827D02*
X122047D01*
X88551Y18002D02*
X96171D01*
X101346Y12827D01*
X121920Y45212D02*
X128397D01*
X102997Y14873D02*
X103138Y14732D01*
X105410D01*
X3815Y41270D02*
X5574Y43029D01*
X140970Y22352D02*
X151384D01*
X114046Y67564D02*
X128270Y53340D01*
X107442Y67564D02*
X114046D01*
X57150D02*
X61849D01*
X55626Y66040D02*
X57150Y67564D01*
X80518Y23495D02*
X87156Y16857D01*
X95284D01*
X112395Y11049D02*
X121285D01*
X95284Y16857D02*
X101092Y11049D01*
X27432Y20447D02*
X35363Y12516D01*
X70288D01*
X80010Y2794D01*
X104521D01*
X107569Y5842D01*
X109982Y8255D02*
X121412D01*
X131064Y17907D01*
X122809Y42672D02*
X131445D01*
X102216Y59215D02*
X103505Y57926D01*
Y16143D02*
Y57926D01*
Y16143D02*
X103646Y16002D01*
X115951Y60579D02*
X137668Y38862D01*
X139700D01*
X73025Y60579D02*
X115951D01*
X139700Y38862D02*
X140970Y40132D01*
X45466Y64643D02*
X64135D01*
X114046Y65532D02*
X126714Y52864D01*
X108712Y65532D02*
X114046D01*
X44069Y66040D02*
X45466Y64643D01*
X73025Y63119D02*
X115443D01*
X116078Y59436D02*
X117620Y57894D01*
Y39352D02*
Y57894D01*
X122428Y43942D02*
X131064D01*
D34*
X93091Y4953D02*
Y11368D01*
X90571Y4933D02*
Y11388D01*
X88051Y4913D02*
Y11408D01*
X85534Y4896D02*
Y11431D01*
D37*
X127451Y48203D02*
Y48203D01*
X126873Y47625D02*
X127451Y48203D01*
X122241Y47625D02*
X126873D01*
X121987Y47565D02*
X122181D01*
X121920Y47498D02*
X121987Y47565D01*
X122181D02*
X122241Y47625D01*
D38*
X52698Y48260D02*
D03*
Y31860D02*
D03*
X42298D02*
D03*
Y48260D02*
D03*
X27559D02*
D03*
Y31860D02*
D03*
X57037Y48260D02*
D03*
Y31860D02*
D03*
X37959D02*
D03*
X67437D02*
D03*
Y48260D02*
D03*
X37959D02*
D03*
D39*
X58126Y66040D02*
D03*
X46569D02*
D03*
X73914Y14534D02*
D03*
X11684Y57376D02*
D03*
X56007Y14887D02*
D03*
X11684Y53876D02*
D03*
X73914Y18034D02*
D03*
X56007Y18387D02*
D03*
X38561Y4826D02*
D03*
X41061D02*
D03*
X43561D02*
D03*
X15494Y67691D02*
D03*
Y62691D02*
D03*
Y65191D02*
D03*
X92964Y4826D02*
D03*
X90464D02*
D03*
X87964D02*
D03*
D40*
X150622Y51943D02*
D03*
Y41783D02*
D03*
Y46863D02*
D03*
Y49403D02*
D03*
Y44323D02*
D03*
X21269Y56266D02*
D03*
Y71506D02*
D03*
X95758Y11495D02*
D03*
X80518D02*
D03*
X30861Y11241D02*
D03*
X46101D02*
D03*
X140965Y4572D02*
D03*
X138425D02*
D03*
X64521Y72522D02*
D03*
X3805Y33025D02*
D03*
X3815Y20188D02*
D03*
X42794Y72136D02*
D03*
X3810Y46355D02*
D03*
X85000Y32000D02*
D03*
Y43950D02*
D03*
X21269Y53726D02*
D03*
X48641Y11241D02*
D03*
X98298Y11495D02*
D03*
X12100Y16800D02*
D03*
Y19300D02*
D03*
Y14300D02*
D03*
X90080Y32000D02*
D03*
X87540Y32005D02*
D03*
X79920Y43950D02*
D03*
X87540D02*
D03*
X90080D02*
D03*
X77380Y32000D02*
D03*
X79920D02*
D03*
X82465Y43955D02*
D03*
Y32000D02*
D03*
X140970Y37592D02*
D03*
X138430D02*
D03*
X11811Y41402D02*
D03*
X12002Y27980D02*
D03*
X148082Y51943D02*
D03*
X139573Y72009D02*
D03*
X148082Y49403D02*
D03*
Y44323D02*
D03*
Y46863D02*
D03*
X61976Y72517D02*
D03*
X148082Y41783D02*
D03*
Y39243D02*
D03*
X95758Y23495D02*
D03*
X93218D02*
D03*
X90678D02*
D03*
X83058Y11495D02*
D03*
X45339Y72141D02*
D03*
X33269Y58806D02*
D03*
X21269Y68966D02*
D03*
X33269Y61346D02*
D03*
Y56266D02*
D03*
X46101Y23241D02*
D03*
X43561D02*
D03*
X41021D02*
D03*
X33401Y11241D02*
D03*
X11811Y46402D02*
D03*
X12002Y32980D02*
D03*
X3815Y15108D02*
D03*
X88138Y11495D02*
D03*
X85603Y11500D02*
D03*
X90678Y11495D02*
D03*
X93218D02*
D03*
X88138Y23495D02*
D03*
X85603Y23500D02*
D03*
X98298Y23495D02*
D03*
X83058D02*
D03*
X3815Y43810D02*
D03*
X139573Y66929D02*
D03*
Y64389D02*
D03*
Y69469D02*
D03*
X3810Y17653D02*
D03*
Y30480D02*
D03*
X140970Y27432D02*
D03*
X138430Y29972D02*
D03*
Y27432D02*
D03*
X11811Y43902D02*
D03*
X12002Y30480D02*
D03*
X38481Y11241D02*
D03*
X35946Y11246D02*
D03*
X41021Y11241D02*
D03*
X43561D02*
D03*
X38481Y23241D02*
D03*
X35946Y23246D02*
D03*
X48641Y23241D02*
D03*
X33401D02*
D03*
X33269Y53726D02*
D03*
X33274Y66421D02*
D03*
X33269Y63886D02*
D03*
X21269Y58806D02*
D03*
Y61346D02*
D03*
X21274Y66421D02*
D03*
X21269Y63886D02*
D03*
X33269Y68966D02*
D03*
X140965Y2032D02*
D03*
X138425Y7112D02*
D03*
X140965D02*
D03*
X138425Y2032D02*
D03*
X138430Y52832D02*
D03*
Y50292D02*
D03*
Y47752D02*
D03*
Y45212D02*
D03*
Y42672D02*
D03*
Y40132D02*
D03*
X140970Y52832D02*
D03*
Y50292D02*
D03*
Y47752D02*
D03*
Y45212D02*
D03*
Y42672D02*
D03*
X138430Y35052D02*
D03*
Y32512D02*
D03*
X140970Y35052D02*
D03*
Y32512D02*
D03*
Y29972D02*
D03*
X138430Y24892D02*
D03*
Y22352D02*
D03*
X140970Y24892D02*
D03*
Y22352D02*
D03*
Y19812D02*
D03*
Y17272D02*
D03*
Y14732D02*
D03*
X138430Y17272D02*
D03*
Y19812D02*
D03*
X140970Y40132D02*
D03*
X107950Y52832D02*
D03*
Y50292D02*
D03*
X105423Y27418D02*
D03*
X115570Y50292D02*
D03*
X110490D02*
D03*
Y52832D02*
D03*
X113030Y50292D02*
D03*
Y52832D02*
D03*
X115570D02*
D03*
X107950Y32512D02*
D03*
Y24892D02*
D03*
Y27432D02*
D03*
Y29972D02*
D03*
Y22352D02*
D03*
Y17272D02*
D03*
Y19812D02*
D03*
X105410Y32512D02*
D03*
Y24892D02*
D03*
Y29972D02*
D03*
Y19812D02*
D03*
Y22352D02*
D03*
Y17272D02*
D03*
Y14732D02*
D03*
X107950Y40132D02*
D03*
Y37592D02*
D03*
Y35052D02*
D03*
X105410Y50292D02*
D03*
Y47752D02*
D03*
Y45212D02*
D03*
Y42672D02*
D03*
Y35052D02*
D03*
Y37592D02*
D03*
Y40132D02*
D03*
Y52832D02*
D03*
X107950Y47752D02*
D03*
Y45212D02*
D03*
Y42672D02*
D03*
Y14732D02*
D03*
X145542Y49403D02*
D03*
Y46863D02*
D03*
Y41783D02*
D03*
Y39243D02*
D03*
Y51943D02*
D03*
Y44323D02*
D03*
D41*
X150622Y39243D02*
D03*
X139573Y61849D02*
D03*
X3815Y12568D02*
D03*
Y41270D02*
D03*
X3810Y27940D02*
D03*
X33269Y71506D02*
D03*
X138430Y14732D02*
D03*
D42*
X73025Y55499D02*
D03*
D43*
X60745Y5715D02*
D03*
X64006Y18006D02*
D03*
X8006Y68006D02*
D03*
Y8006D02*
D03*
X145834D02*
D03*
Y68006D02*
D03*
D44*
X67945Y5715D02*
D03*
D45*
X77380Y43950D02*
D03*
X80518Y23495D02*
D03*
X47879Y72141D02*
D03*
X59436Y72517D02*
D03*
X30861Y23241D02*
D03*
D46*
X73025Y58039D02*
D03*
Y60579D02*
D03*
Y63119D02*
D03*
D47*
X36061Y4826D02*
D03*
X55626Y66040D02*
D03*
X44069D02*
D03*
X85464Y4826D02*
D03*
D48*
X95599Y48263D02*
D03*
Y70263D02*
D03*
D49*
X15494Y70191D02*
D03*
D50*
X32000Y47000D02*
D03*
X33000Y48000D02*
D03*
X31000D02*
D03*
X47000Y47000D02*
D03*
X48000Y48000D02*
D03*
X46000D02*
D03*
X62000Y47000D02*
D03*
X63000Y48000D02*
D03*
X61000D02*
D03*
X66000Y42000D02*
D03*
X67000Y41000D02*
D03*
X65000D02*
D03*
X23000Y33000D02*
D03*
X24000Y34000D02*
D03*
X22000D02*
D03*
X23000Y35000D02*
D03*
X24000Y36000D02*
D03*
X22000D02*
D03*
X23000Y37000D02*
D03*
X24000Y38000D02*
D03*
X22000D02*
D03*
X26000Y56000D02*
D03*
X24000D02*
D03*
X25000Y57000D02*
D03*
X26000Y58000D02*
D03*
X24000D02*
D03*
X25000Y59000D02*
D03*
X26000Y60000D02*
D03*
X24000D02*
D03*
X25000Y61000D02*
D03*
X26000Y62000D02*
D03*
X24000D02*
D03*
X29000Y69000D02*
D03*
X27000D02*
D03*
X25000D02*
D03*
X28000Y70000D02*
D03*
X26000D02*
D03*
X29000Y71000D02*
D03*
X27000D02*
D03*
X25000D02*
D03*
X28000Y72000D02*
D03*
X26000D02*
D03*
X29000Y73000D02*
D03*
X27000D02*
D03*
X25000D02*
D03*
X46000Y57000D02*
D03*
Y59000D02*
D03*
X45000Y58000D02*
D03*
X44000Y57000D02*
D03*
Y59000D02*
D03*
X43000Y58000D02*
D03*
X42000Y57000D02*
D03*
X40000D02*
D03*
X41000Y58000D02*
D03*
X42000Y59000D02*
D03*
X40000D02*
D03*
X61000D02*
D03*
X59000D02*
D03*
X57000D02*
D03*
X55000D02*
D03*
X53000D02*
D03*
X60000Y58000D02*
D03*
X58000D02*
D03*
X56000D02*
D03*
X54000D02*
D03*
X53000Y57000D02*
D03*
X55000D02*
D03*
X57000D02*
D03*
X59000D02*
D03*
X61000D02*
D03*
X133000Y62000D02*
D03*
Y60000D02*
D03*
X131000D02*
D03*
X146000Y61000D02*
D03*
X148000D02*
D03*
Y59000D02*
D03*
X150000D02*
D03*
Y56000D02*
D03*
Y36000D02*
D03*
Y34000D02*
D03*
Y28000D02*
D03*
X145000Y20000D02*
D03*
Y17500D02*
D03*
X140000Y12500D02*
D03*
Y10000D02*
D03*
X135000Y12500D02*
D03*
X137500Y10000D02*
D03*
X135000D02*
D03*
X132500D02*
D03*
Y5000D02*
D03*
X115000Y2500D02*
D03*
X130000D02*
D03*
X120000D02*
D03*
X125000D02*
D03*
X127500Y5000D02*
D03*
X122500D02*
D03*
X117500D02*
D03*
X82500D02*
D03*
X80000D02*
D03*
Y7500D02*
D03*
X77500D02*
D03*
Y10000D02*
D03*
X75000D02*
D03*
X97500Y5000D02*
D03*
X100000D02*
D03*
X102500D02*
D03*
Y7500D02*
D03*
X100000D02*
D03*
X97500D02*
D03*
X25000Y5000D02*
D03*
Y7500D02*
D03*
X22500D02*
D03*
Y5000D02*
D03*
X17500D02*
D03*
X20000D02*
D03*
Y7500D02*
D03*
X17500Y10000D02*
D03*
X20000D02*
D03*
X17500Y7500D02*
D03*
X15000D02*
D03*
X7500Y62500D02*
D03*
X10000D02*
D03*
X5000D02*
D03*
X2500Y60000D02*
D03*
Y52500D02*
D03*
Y55000D02*
D03*
X7500Y57500D02*
D03*
Y55000D02*
D03*
X5000D02*
D03*
Y57500D02*
D03*
X2500D02*
D03*
X4100Y59600D02*
D03*
X150114Y16383D02*
D03*
X4933Y59600D02*
D03*
X79199Y71400D02*
D03*
X5766Y59600D02*
D03*
X76700Y71400D02*
D03*
X50899Y5900D02*
D03*
X48400D02*
D03*
X22400Y10300D02*
D03*
X12900Y4600D02*
D03*
X78366Y71400D02*
D03*
X14566Y4600D02*
D03*
X13733D02*
D03*
X50066Y5900D02*
D03*
X49233D02*
D03*
X15399Y4600D02*
D03*
X23900Y10318D02*
D03*
X77533Y71400D02*
D03*
X23067Y10318D02*
D03*
X24733D02*
D03*
X6599Y59600D02*
D03*
X118364Y44831D02*
D03*
X17653Y27432D02*
D03*
X119065Y45527D02*
D03*
X17653Y43688D02*
D03*
X18669Y26835D02*
D03*
X128397Y45212D02*
D03*
X27432Y20447D02*
D03*
X121920Y47498D02*
D03*
X108712Y65532D02*
D03*
X122047Y12827D02*
D03*
X121285Y11049D02*
D03*
X130626Y25470D02*
D03*
X112395Y11049D02*
D03*
X127451Y48203D02*
D03*
X107569Y5842D02*
D03*
X131445Y42672D02*
D03*
X126746Y52832D02*
D03*
X122809Y42672D02*
D03*
X107442Y67564D02*
D03*
X121793Y46101D02*
D03*
X109982Y8255D02*
D03*
X128270Y53340D02*
D03*
X121920Y45212D02*
D03*
X131064Y43942D02*
D03*
X101092Y11049D02*
D03*
X116078Y59436D02*
D03*
X151384Y22352D02*
D03*
X122428Y43942D02*
D03*
X101346Y12827D02*
D03*
X114300D02*
D03*
X127806Y46101D02*
D03*
X64135Y64643D02*
D03*
X61849Y67564D02*
D03*
M02*
